<mxfile host="app.diagrams.net" agent="Mozilla/5.0 (Windows NT 10.0; Win64; x64) AppleWebKit/537.36 (KHTML, like Gecko) Chrome/134.0.0.0 Safari/537.36" version="26.1.1">
  <diagram name="PÃ¡gina-1" id="XOSfhmM8_rBRL9iZez01">
    <mxGraphModel dx="1035" dy="501" grid="1" gridSize="10" guides="1" tooltips="1" connect="1" arrows="1" fold="1" page="1" pageScale="1" pageWidth="827" pageHeight="1169" math="0" shadow="0">
      <root>
        <mxCell id="0" />
        <mxCell id="1" parent="0" />
        <mxCell id="3cIEztt3R_hKzi4iVKEx-1" value="" style="shape=image;verticalLabelPosition=bottom;labelBackgroundColor=default;verticalAlign=top;aspect=fixed;imageAspect=0;image=data:image/png,iVBORw0KGgoAAAANSUhEUgAAAr4AAACZCAYAAADJsTnSAAAAAXNSR0IArs4c6QAAAARnQU1BAACxjwv8YQUAAAAJcEhZcwAADsMAAA7DAcdvqGQAAPQ/SURBVHhe7J0JXJTV/v8/MzAbKAwoiBuLC7hCJOEWuKRJaa75S1HEq97+ZmbaTdFbIiYumVpWmOJWiaYiuaTmVVLEUgxLZBE0TCRBQVGRRbaZ7/88MwPMwDDPDG4t8+41xrOd8z3f9Twzz5kREANmzJgxY8aMGTNmzPzNEWr+b8aMGTNmzJgxY8bM3xrzxNeMGTNmzJgxY8bMPwLzxNeMGTNmzJgxY8bMPwLzxNeMGTNmzJgxY8bMPwIjFrcpcTflKGLvuGNEv3YQa/Y+DIprB7By7XHkKTU7dLBEu5H/xaz+9prtvzPlyE75HdZdO6PZn/gWpDw7Bb9bd0XnhxGyPBspv1uja+dmjbvbKv4JXyw+CrspCzGus6VmpykU46cvFuOo3RQsHtdZs++vQ+mZDVh0uCk+WhKo2WPGjB4KTyEi/ARa/Ps9vOpuodn5CFFcxf4P1yGr93y8PaCZZufjRXF1Pz5cl4Xe89/CgEbloEKcigjHiRb/Ruir7o85lkpxZsMiHG46GUsCu2r2PU0UuPLtMkTEF7BKziGAQCiEyMoeLl6DMXqEL1o+iqJuEg9b9xS4uv9DrMvqjY/eHqDZ9yTR9afCUxEIP9ECH4W+qjn+D6T0DDYsOoymkxchsCt/fX4kc4qHgLdX5R+7MGPoKwha8QOKNPseFsWNH/H151twNOMWCgoK6r3uP1Bozvw7w4L3i5HwmbQD2XpvAP4cKK5+gZE+k7DjYYRkxfKLkT6YtCNbk3xNR1mSjG8/34jYq1WaPaZSjmtnv8ex5HzN9l+Liuyf8f3RC5otM2b0oyxOQkzEVpy43tg44UGRi/ivIhB97p5mx+NHkRuPryKice5eI7+ASFmMpJgIbD1xXbX5eGOpAtk/f4+jF/I020+bKvwR9yU+/+oH/Habq6+3cftWHpt4fo/VU/rC66U1SCrXnPpEeBR1T4Hc+K8QEX1Os/2E0fEnJYqTYhCx9YT62D+Vimz8/P1RXMjjn7s9kjnFQ2J44luVgS9efwf7HsdcQdAcL4RswbZt2+q8tuL9lxw0J/2dIRTn30Lxn3jSy0HF+bj1sEJSMfJvFTd60vtoaIbAL1Nxelk/zfZfC/lrm5F69kPNlhkzZhrL440lOV7bnIqzHw7UbP85ELQIwHtbqmtsFHbuj0fijmBYn1qGD/cXas56Evw16p4ZE5G/hs2pZ/HhQIlmR8M8kjnFQ2Jg4luKxGVTsPTOZCwYaQeBZu+ToxB73/LDxFXbsWLsM3CyEkFi74GA+QeQbfCmQon8XdPRd/iHSKzQ7GJ3vckfj0bfqV+rtgr3vgW/iauwfcVYPONkBZHEHh4B83HAUMN39mCGXyAWLByDzvbWsPeehxOlSuTFrUSgb1vYiC0hdeiEIXO+QXqZ5ho2hrOfB6NvRwdYi8WwdfbB2PBY3FQqkRs1HZM2ZqA8cysm9g3GliwFlPknsTq4HzwcrSGyYO01c8fAN6OQzt2RK/Oxa3pfDP8wEbXDSsbHo/ti6td/qDbv7JkBv8AFWDimM+yt7eE974ThNhmGdKHMjcL0SRuRUZ6JrRP7InhLFruCb8x1UOYiavokbMwoR+bWiegbvAVZt/TrMv/kagT384CjtQgWllI0cx+IN6PSUfuGBOHOT+EY5mEHsdgGrs9PQ+T52s8hDI/1DvbM6IOAJT+pzuX0eXJ1MPp5OMJaZAFLaTO4D3wTURrFNMpHGFXZh7HkNV+4yCUQyRzQ9ZX3cbD6moqrOBA6Ct6tmkBkKYNj5wDM2XGRRZqGqmwcXvIafF3kkIhkcOj6Ct4/mA3uak6ePoPD1OcV7sVbfhOxavsKjH3GCVYiCew9AjD/gPpcFco8xK0MhG9bG4iZLh06DcGcb9KhNhOnCz8ELliIMZ3tYW3vjXknmBQ88hWe/RzBfTvCwVoMsa0zfMaGI/amCQlMI/eKrWEY2bU5pGJrtOn9Br5JT0XUG35wacratXPH0KXxuKtptuLqAYSO8karJiJYyhzROWAOdlxUS6TM2YZpvXzg41Pn1UsdT7z6LjyLz4P7oqODNfMnWzj7jEV47M0GbtBKcPz9Qegz5Sudd6oqzi7HML83sEv/c1s8dlDb1W/iCmwNG4muzaUQW7dB7zdYPKVG4Q0/FzRlecPOfSiWxt+tPX/8cmxeNBTudhJI5G7wmxaJcw3MXZR5cVgZ6Iu2NmLm4w7oNGQO03dtsPLlB5SmYtusF+Buz2SzbY9BC44hX+eN1wpcPRCKUd6t0ERkCZljZwTM2QGNiUzUsZrS1G2Y9YI77KUsZ7YfhAXH8lnka8GjUz70xZLxPqmuS+OXb8aioe6wk0ggd/PDtMhz7Ej18T4YHBav2mLCNpwvlTnYNq1Xff/16VWTa/lzYmMRotnAAfAW3ceV33LZNl9f+nJGsYny6a97vHHK/krdNgsvuNsz+9ii/aAFOKbjhDw+2GAd1hzWx0P4mKGc1RhZDOddE+sxR6PmMlxcfo2ZA9Vx2aRNb0yLWIXpz4/Fp6lVTEgWR30GIyxePTtpSGZ9cwp985aHr8+lOPhOH/ScuBFXaoqiFtwzvvq4E/s2dWs1iD5JvU/7gx1JGhBJtzXHHpbyM3Opk9iNZh4v0+zRx22KDJCStIkbvbBgG8UlJtCB8ABqJWpJk/cXac7Rh4KufzqAZK4z6Iea5svpx3fcSdZ3pWrrdmQASaVNyO2FBbQtLpESDoRTQCsRtZy8X3VcH4qb62iQWEhWXq/TtlOnKHp3POVeWEn+cjvq8fo6Opxwnk5/u5RGuFlRh+mH6S67pvLn/1J3604UHHmczqf+SkdWjyJncRuadriYipL3UfgoVxK1HUGLIvdR0t3btDvQiaQdx9GnRxIpJYWN96NR5CqS06htBUyA6/TpABm5zviBaof1I73jLqO+KzPZhoJurhtEYqEVeb2+jU6diqbd8RmG22QY1EVRMu0L585vSyMWRdK+pLtUmWJ4zPUpouR94TTKVURtRyyiyH1JVKBHl/n5uynQSUodx31KRxJTKCXhAH3E6Uc+ilTDV10jIAs7H5qxMZbOxO+gBQNakMh1Gh28w/XDp7+btG6QlFpOPaSS6vbuQHKSdqRxnx6hxJQUNu6PVDLKR20jTjON8REqP09LfJuQrfc0Wn8skc4dj6Qp3a1JPiSCfq8qoVMh3cnK9hma+tkhOp0QS1vm9CUHsStN2ZfPrFdO55f4UhNbb5q2/hglnjtOkVO6k7V8CEX8XqWWxzFY3c/tSAqQSqmJ2wu0YFscJTJdhQe0IlHLyaQOjUpKWelPcrse9Pq6w5Rw/jR9u3QEuVl1oOmHmZVUuhCT0MqLXt92ik5F76b4/CLD8lX+TP9lY+kUHEnHz6fSr0dW0yhnMbWZdpiKVUIZASe3REQylyEUFnOazsevo7EuIrJp5kzP/XsDxf6cQDHz+pBc2ptWZFQRlZyikO5WZPvMVPrs0GlKiN1Cc/o6kNh1Cu3LVxDdT6YDmyMpMlLz+iKUhjuLyNo7hE7e59N3Jf38X6bfTsEUefw8pf56hFaPciZxm2nEwlMvd3a9Rs1lfehDTjYVZXTirfbUZMAnzL6aXTrw2IHB2ZXd5JDLkDCKOX2e4teNJReRDTVzfo7+vSGWfk6IoXl95CTtvaL2fLGUmjOdfHHsNJ3csYAGOInI+V/7VH6ruP4pDZC50gwu+VWm0Ep/Odn1eJ3WHU6g86e/paUj3Miqw3RSd88TM8yyx992J0nz5+k/X8fRmbgoCunvRJYCkSbncCYKoe5WtvTM1M/o0OkEit0yh/o6iMl1yj7KV5iuYyo+Tm+7S6j58/+hr+POUFxUCPV3siSBqC+tzOSUzK/TemjlTo56sWSKT6rqkoTE0uZszF/QsdMnaceCAeQkcqZ/7VNlDlXdcgxW5wnD+fI+JR/YXOu/kV9Q6HBnEll7U8jJ+6wpwznRODgfbUdij3fpp3LNLg1FJ2aRu8ie/u8bpje+vvTljIydJstXv+7xxSnnEm+Tu6Q5Pf+frynuTBxFhfQnJ0sBiTT13LAPMhsYqMP64cuf2v5UO99QwZOzTJaFJ++aXo85U5o+l6GiWHpLE5dfnUig+F2hFNCW+YNlZ5qXwBxLVZMcKXj/A8My15tTFOiZt+Q/gvpcRj9+Mo2mLtpH1zknqoPeia8iN5omtXemV7/Ooip68HgmvpZCEkmtyMqqzstuDG1TFW9NgvFfQ1erBS+Po1ntpfRc+EXNDn0YN/GViP1pTW3DFDerPUmfC9ds10flLBIpDYrIUQUjp9jYN1xI2ms51dRBxu2oMWRvM5y25hM9iAkk+6Z+FP7rPfU1VVl0dEME7U/lBlhJyWE9SOb5Pv1ayTYVeXR2x1raelId7CrK42l2R/V4q4yc+EqkgygiR9MCX5tsk08Xlclh1EPmSe+rhOQfs14qkymsh4w83/+VjVqfLjlRz9KOtVvpJJepNJTHz6aO0uco/GJVzTXPf3RJJTeHImcDvWTDivTXLBR49ac98VVQ3tkdtHbrSVViVFNO8bM7qsbNumuUj5THzaL2Ek9671xthSn+IZwmTP2czt6OpvHNZNR7eXqN/CzQaMtwOVkN/IyuPeB8W0Ke751jPWko/oHCJ0ylz8+WqQNdp1iLyX/N1ZqxqvrW6IrKYukNFyn1Wp5R2xeLp6gx9mQzfCsbM6cLCUkHRVC1q1ARj3wlMRRo35T8wn+le6prqijr6AaK2J/Kbm2MRCM356/qPsro2HRW6F2m0zGWLzkUuZ/TC9KWNPXgAybSeGom603L02tHocjdQsPlVjTws2u1duZQ5NOR2V5k02Y0bclkXsY3HsUDigm0p6Z+4fSrekAsPI/Shoj9pApPfdzfR8EtJdQjLFnlx1RylKa72FLA+uu6slTDZwduS+Vn1ZM6Rtkxms4m7y7Tj7HMy6Gg3M9fIGnLqaot1fmSnrQsrbpFdnzTMJLbvEKb8xQ6E9+y2DfIRdqLlusGK42xt6HhXLDyxUxRDE10kJH/6mp7sUtUMae2IVMyRY9vRrLey6nWREyeLcNJbjWQPrtWYrKOi2ImkoPMn1ZX64O1l7PhJbKp1pEROq0H78TXeJ/k+uLqkqTnMqo1QS5tGiYnm1c2U55Ce+JrSr5UUP6R2eRl04ZGb8lU50menGgc6omvqHlvCp4bQiEh7DXvPzQzOIA6yy1J3mcJ/cyGxduXnpzROPnq1D3eOC2imIkOJPNfTbUukUMbXrIhsaqe8/mggqcO64E3fzY88eXLWSWmyvLAUN5tXD1uzFzm7jdjmdyDKYLps5qCXePJUaRn4mtQ5rpzCj3zFrbvcdRnbeo/6lCViU2vz0bCwAism+CCx7AuWI2wJUZ/8j/88MMPuq8jSzHESnMOBJC36wCnaimFcsibClBVUfNhf6MRyNuhQ23DkMubQlDF067ADi4u9urnQxS5SEq5gaqM9Rjt1Q3duqlf/cJOofTBZaRlVkA6YBKCnH/BQp9WaOM1GEHz96LIdyyGdm2iak4HoSN8XwuCT2EMlofMwKTRg+DTZQQiMhVQKpW6H/UZQGDnAhd7zbiMbNNoXRgxZqPR1iVD6OiL14J8UBizHCEzJmH0IB90GRGBTIWSyaqR1MIFvfq61vik0LEnnmtfhvSUy6gwSX9COPq+hiCfQsQsD8GMSaMxyKcLRkRkQsHOre7ONB9R4k7aReTYPgvfrrXLpK0HvoeoTW/i2ZwUZJS0RW+/drUxxWT279sFikvJSM1Lw8UcWzzr27X2m1OsB+K9qE1401fPc1MCOdp1cKrVn1yOpoIqVFQQM1MSUm5UIWP9aHhpbNStWz+EnSrFg8tpUJtJADsXF1S7StXvhuW7aDEAk4Kc8ctCH7Rq44XBQfOxt8gXY4d2hR5vbhiBDdq7t9b0IYBVExksW7qgrUi1A0IrK8gEClQpqvB7SgZK2vaGX7vaLCR09EffLgpcSr6ISs0+7mOtC58EYtKXErz9zRb8q70l/3gqpRgwKQjOvyyET6s28BochPl7i+A7dij0haeKpoMxbpgjUvZ8g/NVQEncLhy83x+vjWxZYwdtjLMDp5L2cG+tkVJghSYyS7R0aQu1SoSwspJBwPRRjYWbP/p3qB4V8+VevuhQkYHUy9oL2hTITUrBjaoMrB/tpembvfqF4VTpA1xOy+SNmcqsVKQXtYa3T1utmOuDXh01q7arfkdKRgna9vZDrYmYPP590UVxCckXLUzUcRWyUtNR1NobPm21xtenF6q7NFanJmG0T6q3mQXg5t8ftSZwRC/fDqjISIWuCYzPl6UXPkHgpC8hefsbbPlXe3DDNSonGktFAbJ/u4zLl9nrtyzcQnu8unQ/Ev73Pp6TGtuXbs54FPLxxumDLKSmF6G1tw9qXcIRfXp1VOmI3wcrTavDjMb7GH/OsjBRFiZ8w3n3YeqxSXOZUvyWnI5Sl+fg26o208l790JXTYzoYEhmzSl10Zm3cPZ75PVZl3rfO1GVtg3r/5ePG/LX4XVQva+8sADlynno5nwA78Xtw0wtozYeMRzcn0OvXoYehhbAwqJOX8Y+bFwn7rhA1N4lYO3qtmxEwwJ2jWX1eeUoZzq26RGIucGdddsSNkUnVnxhNwSfnDmPl3ZuR8yhozi+aR62r12FkevjET3FWXOyBmUu2+eHoF0P0MXfHz26+2PymFdw5r0QXNKcwqE7LM4JdPdw46oR0cg2jdeFEWM2Fh1dcqJGY4pfEHY96AJ//x7o7j8ZY145g/dCtCUVQSyqDTzOfS25TU4HRo5VjRK50VPgF7QLD7r4w79Hd/hPHoNXzrwH7e5M9ZFKrjJaWkCk77QKVjiZvCIdFTH/tmQ7WDArKqrYVMUSFnov1gOnP13haqUrL0cFbNAjcC6CO+ueJGzaCZyZkri+LSxrr+GTj+ww9JMzOP/STmyPOYSjxzdh3va1WDVyPeKZLo1OCQIRRHWTpYD1o/lTmwpusmcp0k1SbNxqkRSaWFDij+gZeDX0CgZtPIFFz9uq9vKPhwvPT3Dm/EvYuT0Gh44ex6Z527F21Uisj2e+qHdAVhgQOBJtv4rBzoR34b/7e5QPXo3hLbR9Ugsj7MAhYAqpr5KGFSqQyiDT7pLZ0YJpgw1Lh3J1sCJwbjB0uxeiaSc2ueKLGebPCnYup7IaBFJIJdVeUwG1iXSUzEzE4pLLTUzJdkNN03GVgsWQkLu+FoFUipoujdSpSZjgk2oEkMpk6kmDBgsW9yA2Zs22GuPypfKPaMx4NRRXBm3EiUXPQ+PBRuZE4xC0HI7wXR+hTwNfXWZcX7o545HIxxunLC+qXELHIyCVSjRy8Pug4TqsNeGuxggfa+j7JHhzlt1Q02SBHYY0lHd39ml8Pdapv0bWdc6/DT0XXYMBmVmtqDPzUaEzb3lM9VmbehmbuzuZsmAeZr0+BVOmcK9gDPGQwrKtPyb+axi8bI1v/GnBTZapohwPauaEFbh583adpPSQWLSEm7MVSkpt0TswCEFB6teEId5o7+GJDvZAQeJOrN1zE89OXYzIfWeQmZOMNf2KcTjqkOphdpZba1Bej8a6XbcxcG0izv1vJzauCsXMYS1QeZ+dqPI2ZmQLQkX5g9rJb8VN3Lzd8Kj42zQCbSF5x9zABIA5pGGvUeJ69Drsuj0QaxPP4X87N2JV6EwMa1EJHVEVObj8W7Fmg1GUgpQsS7i5t4fQlLEqryN63S7cHrgWief+h50bVyF05jC0qLzPpcpG+okQzVydYXMnE5e0VipUpW/CGxMW4YjUBc6W15Gaeler/VIkp/wGtHFFeydXONvcQeYlrYU/VenY9MYELDp4Q7PDOCxausHZqgSltr0RqLFRUNAEDPFuDw/PDjXv2Ghj6cKuMSCfy/1E7Fy7BzefnYrFkftwJjMHyWv6ofhwFA4ZWpnRaCzh4uYMy+upSK1e6cZRmgy1SG6qyWLhj2EY+/oBtFywE5Hjaz+h4huPm0UBEneuxZ6bz2Lq4kjsO5OJnOQ16Fd8GFGHbmrOr4+kz3iMbncNh6JWIeoI8NL4oWjoG8cbYwdjUGRnIEMrDIpTU/G7RTt4VL8tqsICLZn+rEpKYds7UNM3e00YAu/2HvDkEhRPzFi6dISb5AYupt2p1WH5JVy+pnlb09KF5QNLXGf965ooBb+hDVxd7puoY2bzjm6Q3LiItDu1DZZfuozqLh+XTk1DgeyMDNSaoJj52e+waOdR8860CmPyZeGPCBv7Og60XICdkePhUlPJjcyJj4TG9NV4+bRLCm+cylzQ0U2CGxfTUOsS5bh0+RqbMDP4fNDNgrcO16XxPsaXs1xw30RZlAUG8u6tFo2sx3Xg9VMxOnbvDNm1c0jUEvJ+YiLSaz92q8GgzNz12g6gj8dSn3Wppxlhyxcwc3E4wsOrX4swztMaFu2HYf7i/wc/7guHqy7h+8gN2HPujuaqxlCJwusZSEtLq/O6iPQ/HubrVYSQu7jA7vYJ7D6Qxd3LIPvIEqz5vrDOu6UPiy0CJo6Cw7mP8eayH5BTztLhrQSsmfwi+o8Mx6kSIQRX9mHpzFlYcjibScHUdj8HfxRUwN7ZGbZCAcQSMaj4Hu5xEczdJQoqcCsrC/eYZRUFv2DzrMX47h53A1rGhiWHi4sdbp/YjQNZrLXybBxZsgbfFxoYFV+bRiAQSyCmYtxTCck3ZvU19RCIIRETiu/dUycrPXB37IKKW8jKusccW4GCXzZj1uLvcI+zYLWodA+Hlv8X+7LKoCy+iKh3FuOg6GUEDW8OoUlj5d5hEKDiVhay1Cfjl82zsFh9stGrw+tiNWAcRjol4LMFXyGtiAVoURq+CluKL38pgm274Zg41Aqxy2YiMvEO00MprnwbgkXRJeg17lV4NB2AcSOdkPDZAnyVVsQKRxHSvgrD0i9/QZGtnaYHI7ENwMRRDjj38ZtY9kMO06ACtxLWYPKL/TEy/BT0mqnZMIPydba8gn1LZ2LWksPIVjszcv4oQIW9M5xtWU4ou4iDkZHYm/Tovhqp2bCJGGoVi2UzI5F4h3lO6RV8G7II0SW9MO5VD9CljQgetxI5/RdhyQhrZNXkkHRkW7xsWN8iAa7sW4qZs5bgsHpAuJ/zBwoq7OHsXP2emx7Ez2H8q53w+5ZV+E78MsYNbqo5oIfG2MEI6O5BLAuJxuVSBUou7cK7i/dDEBCEkXXeebYNmIhRDufw8ZvL8IM6WJGwZjJe7D8S4Vyw8sWM3cuYPMYOx1e8jS0XCqEou4bv3g/D7hvsZBXNMGziUFjFLsPMyESoTfQtQhZFo6TXOLza2dJkHdu9PBlj7I5jxdtbcKFQgbJr3+H9sN2o6fIx6dQ0CHcPLkNI9GWUKkpwade7WLxfgICgkdA1AU++LLyEjcHjsDKnPxYtGQHrrNo6mJ59z6icWHXpe0Ru2INzWjcKjcGo/FuHxlzDvQmiU/d48o6HhR1enjwGdsdX4O0tF1CoKMO1795H2O4bmgkQjw96iHjqsKoRXR7CxwznrM6wNFEWocBQ3rVrXD2uB39dlw+bjomtTmHxxHn48vhpnNz9AYLe2YU8qv+mlmGZ2bxIZ06hj0dRn6tw6ftIbNhzTuuGSQvNs74G0LO4rehLGi4RqRZ5NAb14jbVPFTPS0DWo7ezs7hFAjLVYiTNGgOiyiQK9ZaRd2iSZkcDlKfS+tHtSCa0JKmVlKxch9HCGc+TtdbiNlnLqXSotmFKCvUmmXeoZrs+qgfCZW3o9SM1S8vYztsUv2wYtbMWklAsJYmlgKRtBlFobJ76ofHKTNo+1ZPkFhYkbWpDMpGIHHxn0p4s9RPkD07MJneJBUmadqd3425Q7IKeZG8pJLF1E5KK7clrwjKaHyAn+YitlMcaLE9dT6PbyUhoycYktSLXYQtpxvPWOovbZG1epxoRFQW8bfLq4sEJmu0uIQtJU+r+bjz/mPXygE7MdieJhYSadn+X4rLr61JREEsLetqTpVBM1k2kJLb3ognL5lOAXE4jtuZRJad/q440PHgAtZRISSoSksjJn/575Ia6X76xVuoubiuIXUA97S3ZGKypiVRM9l4TaNn8AJLLR9BWppjG+AjX7p1Ty2moq4wsxFbM3kKSuQ6lD39Sr69V3IylRS86k0zA/MFKQpbS1uQ/O4auqlZKseN3TtHyoa4ksxCTlUxEQpkrDf3wJ9Wq2noLcmQtaWqtcCw0Qslb5k2hSerGFLfjadmwdmQtZPqQsr4EUmozKJRiOaOrFqrIqM3rR0jLm3nkq6TM7VPJU25BFtKmZMPkEzn40sw93AJYRv56GsJyQu8Vv3Fb+qkndzn99K4HyXqvoN+qF1Xc20LDZJpFEpxPxy6iF51lJLBgPi9h8dzan2bHXGXSqBd9ifXmEAkN23KPV9+VmdtpqqecLFjbTW1kJBI5kO/MPaQJzwapTF1Cz4ktqd3M47W5qQEM2oFRz8/Kf6J3PWQqPdaqZBjJNLZX+YFdT3rZvyWJRWISCSXUuv98OpSrbk/nWx2Yjm7HL6Nh7axJyOJKyvQnkLahQaGxqtg3Jj8obsfR4sFtSCoUsf5E1KxXMI3qZqXJOVwbNyl20YvkLBMwv7Bi+UBKrf1nU4xGyabrmMkct5gGt5GSkBufqBn1Ch5F3axqFwDy6bQefIvbTPJJ9eI1u54vk39LJp+YxamkNfWff4jUJtBe3MYwkC8ruUVzbA5Y339BkmFbeHMi113Rl8NJIupBYckap65Hw9/qoA1vX3pyhjHy6UOn7sWX88Ypp8O4xYOpjZTlfKZvUbNeFDyqG1lp6jmfD/LVYX0Yzp8NL27jthvOWQyTZeHJu42ox42ayzBKUr6k6f3akZzl+SatfWnirNHMjt3pvXNsZNqL2/hk1plTxNWft7AeH74+F9GXwyUk6hFG+kLDiJ8s/qtSgVuXzuPS3abo6N0FLfi/V7nRKAqzkJyajWJJa3T1bA97neeolCjOSUPKlXsQOrjDq3MLSDVHuGNFWedx4Q8lWnv2gJstUHTtAi5cK4O8gxe6tapZ5VcLu8O+dP4S7jbtCO8uLcA/LNYHX5s8KIuycP7CH1C29sRznJAMw2PWg7IIWecv4A9la3j2cNN/p83OuXbhAq6VydHBqxv0i8r0ee08knJEaPeMZ51zDIxVeQMRL7bDcrdvcX3jS+pdRddw4cI1lMk7wKtbK5iumQaouoMrSWnIVTiik7cHHHR0U4U7mUm4mAc4dfJEh2Z1FceOX0lCWq4Cjp284aF7sYkoUJiVjNTsYkhad4Vne3sjfnLcsHzK4hykpVzBPaED3L06o0WNMyuRv2E0/o0N2P//Wmj2PSKYPjOTLiIPTujk2QH1VGYQHn0ri5GTloIr94RwcPdC59oBNYgy/0uM7vwRPA6dx4e9jBGmMXbQTwHz3baLWmNP5ifodikZNyTt4NXFSSun6EFRiKzkVGQXS9C6qyfa6wSrMfmhDHnpF5BZ4oCuz7aDXE/sVt3JRJJayfDs0Ex3fI3QMcrykH4hEyUOXfFsO3n9jyYfoU5NowAbX2qLRa33IPOTbriUfAOSdl7o4mR4TCbny2qMyomPiMb01Sj56tY9zrp8eZFziXRcyCyBQ9dn0U6PExr0Qa5uNFiHG+IhfMxgzjJdlobzrppG+1cdGmpHmZeKhBu28Hymbc0CtfLjM9FpaCrevnQcs53r28OQzPrmFHV5bPWZ8Tee+Joxo0V5AkKe7Y/vhp3ExQ97anaaeWSUnUFY4FZ0Wrse49rqmRn9LeA+M3uA8+FDMPjQUMT/uABddFdXPHZqJr6/b8LL/JXbzCOnduL7+6aXjZg8mTHz16fq/EL49N6O7luOYUNge0gKEvHppOH4b+6/8WPiB+hhYB3dn5G/a4UyY6aG8ri34WHnj9XXPfF/o5/R7DXzSJH2ROieyL/xpJcl/8RQ9LCxh+9HZfj38hlPfNLLIRAIYSEU8K4PMfO4YLoXWkDIDGA2gZl/CpZeM7HiHRecmOIOuVUTWDv1wQfX+mPVpnl/uUkvh/kdXzN/f0pvIuNSDgStu8HD8TE+82Lm742iENcuXkWZU5eHfATFjBkzZv56VN3NwsXf8lBp44rOnVo80scPniTmia8ZM2bMmDFjxoyZfwTmRx3MmDFjxowZM2bM/CMwT3zNmDFjxowZM2bM/CMwT3zNmDFjxowZM2bM/CP4Z0x8i3/CF3MXYWd6Q78U8oRRXMX+ZXOx9kSBZsffj/LsFKQXPNyvCRmD4up+LJu7Fie4vkrPYMPchdiR9hTs3GDfClw7sBz/YTIez3/8+miQ8mykpBeovpCLn0KcipiLD/Zc1mxX09BYFMg+tBgTh/jj+YFTsOnPEmcaed+ZPRuz9b3e/RRx3M/6FJ5CxNwPsOeyQnPdk+NJxcnDUY7slHQ8fjH/rH70N+Jhc+Rfonbp+mvpmQ2Yu3CHeqMeClzdvwxz157QbJuOTg0yliegx8JTEZj7wR7NljE8qTg3kseYl/8RE19lSTK+/XwjYq/+SRKpIhfxX0Ug+tw9zY6/F4qrX2CkzyTsyH78EaTIjcdXEdE4d4+Aimz8/P1RXMh78hOYBvsuO42185YhljzxrONTCjeWZL8Y6YNJO7KNm/gqi5EUE4GtJ65rdmhQjWU5foAXemiPpfQgFk5Zih8t+2DUyMHo7vRnSSsK3Pjxa3y+5SgybhWgoKDu6z4eMHMpi5MQE7EVJ64/2fzwJOOk8bCJwRcj4TNpBx67mH9aP/ob8bA58k9fu+r7a0X2z/j+6AX1Rj0UyI3/ChHR5zTbpqNTg4zlsetRieKkGERsNXZC/wTj3EgeZ142ZxYzjxwqzset4qcQPfLXsDn1LD4c+BS+sqyBvhXX82H32npEhQ+AXLPviUPFyL9VbOS7vQ2jGsu4Ddge3h/av7WjLMpFblFLvDRnMf4zazx62v250oqg+QsI2bIN27bVeW19Hy85PD1Zn1qcmAShOP8WnoSYf3Y/+lvwNHPkE6G+v8pf24zUsx9qtszo58nF+Z+Bp5JZCve+Bb+Jq7B9xVg842QFkcQeHgHzcSC7+i60AlcPhGKUdys0EVlC5tgZAXN24GKp5nDhXrzlNxErtoZhZNfmkIqt0ab3G/gmPRVRb/jBpakYYjt3DF0aj7s1hiTc+SkcwzzsIBbbwPX5aYg8X6Q5dgd7ZvghcMFCjOlsD2t7b8w7UQplXhxWBvqirY0YllIHdBoyh/VRprnGBEpTsW3WC3C3l0Js2x6DFhxDvvbNYcVVHAgdBe9WTSCylMGxcwDm7LiI6uECVcg+vASv+bpALhFB5tAVr7x/EJy6lPm7ML3vcHyYWKE5l52d/DFG952Kr/9gg2+MrpR5iFsZCN+2NhBbSuHQaQjmfJMO9cgLsfctP0xctR0rxj4DJysRJPYeCJh/QC1PbhSmT9qIjPJMbJ3YF8Fbstg1PPY0gdLUbZj1gjvspWLYth+EBcfyVT9ur4Iba5/BCIvndKHfpobHxqjKxuElr8HXRQ6JSAaHrq/g/YPZ7H5YdbBBO+j2zdDY1Mc/GB8snYYXvLVtaliHDVJyHO8P6oMpX2m/c1uBs8uHwe+NXZrtOihzETV9EjZmlCNz60T0Dd6CLM5Opvi2Rme9B/wLS8L/hf5etTqrurAGr768EokVedg7sw96v7WXjc6wvfnjn1PfAYSO8karJiJYyhzROWAOdjTGYR4ZjfOnwrOfI7hvRzhYszizdYbP2HDE3lTqjxNlPk6uDkY/D0dYiyyYXZrBfeCbiEovV7XFG+t39mCGXyAWLByDzvbWsPeehxOlSuSfXI3gfh5wtBbBgsnYzH0g3oxKh6pVTX5YtX0Fxj7jBCuRBPYeAZh/gPN5JXKjpmPSxgyUZ27FxL7B2KJ2HsMx1BAG8pw+P8raMwN+gQuwcExn2Fvbw3se9+6VEnlxKxHo2xY2YktIHTphyJxvUOu6BmKU0aiczuyya3pfDP8wkXm2hqpkfDy6L6Z+/QfbMCKeeWyrl3sH8W5/f8w5cFezg6MY/5s/EP3fOcD+5rGtPp/9bqdOnlLmn8Tq4H7wcLSGyILps5k7Br4ZhRqx+GpXY8bFqMo+jCWv+cJFLoFI5oCur7yPgypl8Y3JkK71+yuXb/oMDlNdzQaE1G2z8IK7PauFtmg/aAGO6Q6Ip3+eGtQQvHo0PaZUeXT8cmxeNBTudhJI5G7wmxaJc4WaE3QwNK4G4pxnXtJQbtNLY2pXXfjmSYVn8XlwX3R0sGZzPFs4+4xFeOxNrf604L7H90lzOzKApNIm5PbCAtoWl0gJB8IpoJWIWk7erzpeciqEulvZ0jNTP6NDpxModssc6usgJtcp+yhfoWqAAiQikrkMobCY03Q+fh2NdRGRTTNneu7fGyj25wSKmdeH5NLetCKjihQ319EgsYAs7HxoxsZYOhO/gxYMaEEi12l08A5rT3GT1g0Sk9DKi17fdopORe+m+NwLtNJfTnY9Xqd1hxPo/OlvaekIN7LqMJ0O31WJaSTFdPxtd5I0f57+83UcnYmLopD+TmQpEFHflZnseAmdCulOVrbP0NTPDtHphFjaMqcvOYhdacq+fOKGW35+Cfk2sSXvaevpWOI5Oh45hbpby2lIxO+kuP4pDZC50owfylS9cZT/+A65y/rSyswqk3VFVEkpK/1JbteDXl93mBLOn6Zvl44gN6sONF018NsUGSAlaRM3emHBNopLTKAD4QHUStSSJu8vIipKpn3ho8hV1JZGLIqkfUl3+e1pLMXH6W13CTV//j/0ddwZiosKof5OliQQaY1V6kjB+x/ot2l+Oc/Yyun8El9qYutN09Yfo8RzxylySneylg+hiN+rDNpBp29em/LosEHu0K7XmpOsz4ekMhVH2Ql6q30TGvAJk0EvRZS8L5xGuYqo7YhFFLkvie5Wphj2bcV1+nSAjFxn/MA2DPuD4uYZ2vnxJOoqdqBBIV/Q5u/T6Q6PvfninzkMhXS3IttnptJnh05TQuwWmtPXgcSuU2ifSQ5TTmfmdiKx20w6Xhse9dAXQ/VojD9V/kz/7W5NnYIj6fj5VPr1yGoa5SymNtMOU7GeOLm9O5CcpB1p3KdHKDElhenlI5Xd5KO2UQEnAk+sq/OckKy8Xqdtp05R9O54ys/fTYFOUuo47lM6kphCKQkH6KNRriSSj6JtXKMqv5VSE7cXaMG2OEpkx8MDWpGo5WRSh/M+CufObzuCFkXuo6S7fPmhIQzHRGU9P0qja+sGkVhoRV6vb6NTp6Jpdzw7L2Ul+cvtqMfr6+hwwnk6/e1SGuFmRR2mHyZVBBuKUT6/bwiteKjRfPmP9I67TJPD+eOZz7Z6YT735Qg7smPn3Nbsoru7abyjnIZtusE1ati2+nw2Y71WnrpNuwOdSNpxHH16JJFSUpjcH3E+KadRqgb4alcjx1V+npb4NiFb72m0/lginTseSVNYnMiHRNDveTxj4tF1fX9lV3D5xjFY1XXx8bfJXdKcnv/P1xR3Jo6iQvqTk6WARH1Xqo7z6pSvBumFT4+NiyluXBKxlJqzPPnFsdN0cscCGuAkIud/7WO6V9D1TweQzHWG5mTD46qvN54aZii3qXusg+m1Szff8dXUSvr5v6xWdwqmyOPnKfXXI7R6lDOJ20yjw3oEemoTX4nYn9ZcrS5i5RQ3qz1JnwtnfxdR9PhmJOu9nNJr/EhBuVuGk9xqIH12TVU52WROrHIa9SlldGy6M4lcptMxLp4ZitzP6QVpS5p68IG6IEik9PxHlzTns+M5G+glGxbgXzOrqxKEhKSDIihHI1JZ7BvkIu1Fy2usxLgdRWPsbWj41nzNDiMoiqGJDjLyX10ta3XfavmpKJrGN5NR7+XpNceZ8LRluJysBn5G1xRq3Ug836Nz5ZrjzLV+CJ9AUz8/y1sMTdUVGzi94SKlXsszauVhySZqjD3ZDN9K+arEIyGx/xqqNV8czWovpefCL6o2K5PDqIfMk97/tZJtGWFPIymKmUgOMn9aXZNgFJSz4SWyETc08dW1Ke/YVOOQkOd755hHaij+gcInTKXPz943aAedvnltyq/Dhri/L5haSnpQWDKnW5YOjk4nF9sAWn/dgB4rkymsh4w83/+VpQcjfFt74svrD9zQmP/I3GimanbJb2/D8c+pbzw1k/Wm5bUNsD620HC5FQ387BprzVjUE19LoYikVlZkVedlN2Ybk5YbrrETXxP96UEMBdo3Jb/wX+me6poqyjq6gSL2p6r61Y0TBeWd3UFrt57Uuhksp/jZHVV6ucg6MGriy/LcoIicGh0p8s7SjrVb6aTWDUN5/GzqKH2OwrlGNfnBf83VmmvK42ZR++rjzGOSw3qQzPN9UolphD/ohTcmuE1tP1LQTTbxlUgHUUStwin2DReS9lpeWzwZt6PGkL3NcNrKbkQMxWijc7pRE19D8cxv24a4s2scOcqH05ab6gsLtr9KzZq/StvZTJjXtvp8VidH5tHZHWtp60n1GywqyuNpdke13FV8tauR41L5l8ST3qs1Ekuz4TRh6ud0JptnTLy6ruOvjNqJbxHFTHQgmf9qqi0hObThJRsSaya+fDrlrUH64NNjI2NKlUclPWlZWq0suZuGkdzmFdqcV6kz8eX1lbp644vXEsO5TR+m1i6dfMebPx5QTKA9NfULp1/VAlFV1lHaELGfUvUI9NQeohLI26FDzeIFIeTyphBUVQBVvyMlowRte/uhXc1v4Qvh6N8XXRSXkHyxUr1LYIP27q2hPkUAqyYyWLZ0QVuRageEVlaQCRSoqv6oycIFvfq6as5nxx174rn2ZUhPuaz5+EoAOxcX2KtEUiA3KQU3qjKwfrQXunXrpn71C8Op0ge4nJZZ+5EXD1VZqUgvag1vn7ZaffdBr47qH7iu+j0FGSVt0duvXc1xdgL8+3aB4lIyLpbfQdrFHNg+64uuNb+Sao2B70Vh05u+mm0eTNCVIjcJKTeqkLF+NLyqx92tH8JOleLB5TRkqgYugLxdB9SaTw55UwGqKvRoxVh78lKFrNR0FLX2hk/bGk3CsU8vaFSpB22b8o/t8s00XMyxxbO+XVGr6oF4L2oT3vQpMdoOvDZVDdkEHWrRdPA4DHNMwZ5vzjONlCBu10Hc7/8aRrasbogP03zbOH/Qwkh7Nxj/bFS/p2SgpG1v+NU2wNTnj75dFLiUfBHGekw1wpaj8cn/fsAPP+i+jiwdYuJPbprmT5nCAZgU5IxfFvqgVRsvDA6aj71Fvhg7tCuaqJvQgunI9zUE+RQiZnkIZkwajUE+XTAiIhMKpRJK3s9SNQjs4OJiz1pTI3T0xWtBPiiMWY6QGZMwepAPuoyIQKaCtVndqECOdh2caq+Ry9FUUIWKivqdmuwPGoyLifoI7FzgUqtwJKXcQFXGeoz2qu67G/qFnULpg8tIu3zTQIz2eGQ5XT+G4rnxtrV7ORBDrU9iz3d5zF75+G73DxC/xPY1M9K2dXxWB6Z/39eC4FMYg+UhMzBp9CD4dBmBiEwFu16JSp7a1bhxKXEn7SJybJ+Fb62RWJp9D1Gb3kSvtsaNqTG5kxVjpKYXobW3D2pLiCP69OqImhEZ1GllI2oQ161hPTY2pjgs3PzRv4OWLL180aEiA6mXdReEGecrtfDGq4UpuU3Nw9Qu/vwhxYBJQXD+ZSF8WrWB1+AgzN9bBN+xQ9FVj0D8PT4mBBYWtQNQIdD8vwIKZjNLka4nCSwsmXMyIyk0RhKIINJM3GoQCOq0qY0IYpH2cFl73GbNLzaza1kf1VKUlzNvs+mBwLkhCAmpfoViVeRWLP+/9jWBwgubTSqYmi21LxBIIZVoeqpgE07Wmu5wmSzcBSx5KKhSNSG1tBDVyFafOo7LrtP5IWpTdFVezixggx6Bc7XGHYLQVZHYuvz/0F4lJ6erOlc3KJyR9jSCKgVThJC7rhaBVIpqVdZH16a8Y6MqZitLWIj0NWiMHTTw2lSzbbQOtbAagMCRbXE5ZicS7sRi9/flGDxuOFqYEMkm+bZR/qCNcfZuOP459aka0JVDYKGKIaVSwf88XV3EDnB/rhd69dJ9+Xo4mJgATfQnSzsM+eQMzn+/Hu8Oc0PxmU2Y96ovvMduwe/VN+Q1KJEbPQU+Pv+HD2KScEfSDv6TF2PRWOc6MtYZfb1YZ3q1rNWlMjcaU3x88H8fxCDpjgTt/Cdj8aKxcNZulLvGWFc02R80GBUT9eH8pHY45VC7biDmavUdEroKkVuX4//ak8EYfdicrisi82VdxRuIZ2Ntq4cmgzFhhD1+3LMfOTf2Y/fJphgW+KJqcalRtlXJpeWz2ihzET3FBz7/9wFiku5A0s4fkxcvwtjqBvhqVyPHVak2EvSlWePH1IjcyTxQXUJ0BgSpVFJzOV//ptcgBp8eGxtTDIFUBpm2bpitLZinspDSwTi9asEbr6bkNg0PU7uMyB92Qz7BmfPfY/27w+BWfAab5r0KX++x2KJHIGO6fLJYusDN2RLXU1O1FqYBpckp+A1t4OpWdwZnJIocXP6tWLPBKEpBSpYl3Nz1JTwLtHRzhlVJKWx7ByIoKEj9mjAE3u094Nmh9h0VPixdOsJNcgMX0+6wNKGh/BIuX1PfkVm6uMHZ8jpSU+/WHkcpklN+A9q4smubwdXZBncyL6H2ufEqpG96AxMWHWSisqJFFSh/UJuEK27exO06jm8sFi2ZPFYlKLXtjcDqcQdNwBDv9vDw7KD/nYO6sEl1DY/MnpZw6egGyY2LSOO+e1VD+aXL0KiSF76xNXdwhbPNHWRe0nogviodm96YgEWHKwzbQQtemzbShdVI0Gf8aLS7dghRq6JwBC9h/FB7zbGGENQkdlN922R/eGh7Mzsz+SyvpyJVtwGo1eeGh1LfI4RPN/K7idi5dg9uPjsViyP34UxmDpLX9EPx4Sgc4pxIO06U1xG9bhduD1yLxHP/w86NqxA6cxhaVN5nPsT9xzA51pW4Hr0Ou24PxNrEc/jfzo1YFToTw1pU4j67pm5xbAhtMRubHx5JTFi0ZL5lhZJSW/QOrO47CBOGeKO9hyc6NHcwEKPfP0RO524MCBXlD2onvxU3cdPYJGuMbRtECr8Jo9EqYR++2hKNH5uPxIQB1mz/w9tWeT0a63bdxsC1iTj3v53YuCoUM4e1QKWmAb7a1bhxCdHM1Rk2dzJxSWshVFX6JrwxIRRfbop4pP6qA8tNHd0kuHExDbUlpByXLl9jXsLBp9PG1SA+PT5MzVVkZyBDa1pTzPLu7xbt4KHzFrRxvqJbtg3Hq8t9ntyml8bULjW8+cOiAIk712LPzWcxdXEk9p3JRE7yGvQrPoyoQzc159diQKVPi2YYNnEorGKXYWZkIu4w3yi98i1CFkWjpNc4vOpR507PWOgeDi3/L/ZllUFZfBFR7yzGQdHLCBreXK8SbAMmYpTDOXz85jL8kFPOPOwWEtZMxov9RyL8VInqnLKLBxEZuRdJeldRarB7GZPH2OH4irex5UIhFGXX8N37Ydh9Q2O+ZsMwcagVYpfNRGTiHRaApbjybQgWRZeg17hX4WFhhQHjRsIp4TMs+CoNRcxLi9K+QtjSL/FLkS2Eche42N3Gid0HkMXELM8+giVrvkeh9psRpmAbgImjHHDu4zex7IcclhYUuJWwBpNf7I+R4aegHrlhBGIJxFSMe/e4wDbCnmUXcTAyEnsNKpJT5WSMsTuOFW9vwYVCBcqufYf3w3ajWpW88I2N3ZGOG+mEhM8W4Ku0IpYQipD2VRiWfvkLimxbG7SDDrw21ZzXSMTPjcernX7HllXfQfzyOAxuqjnQEAIxJGJC8b17qgRvjG/XYLI/PHz8Nhs2EUOtYrFsZiQS1Q3g25BFiC7phXGverBpSBUufR+JDXvOaRUwA1QW4npGGtLS6rwupuOPQmOdRw88unkguIJ9S2di1pLDyOaWhFfdR84fBaiwd4azrbBOnHDvZghQcSsLWfeYTIoC/LJ5FhZ/d48FdblqdXdjYp17511QcQtZWfdYwVCg4JfNmLX4O9xj0pbzfJmBGgHEEjGo+B5UYjY2PzySmLBFwMRRcDj3Md5c9gPUrpuANZNfRP+R4ThVYjhXmuT32gjlcHGxw+0Tu3FArXgcWbIG3xudZPltawix7wSMdTuNVat+Qtsxgeit+Sayh7Yt96mKoAK3srKgFusXbJ61GGqxWAN8tauR47IaMA4jnRLw2YKvkFbEJshFafgqbCm+/KUIdraiR+uvOtjh5cljYHd8Bd7ecgGFijJc++59hO2+UTOZ4tNpo2oQnx4foubS3YNYFhKNy6UKlFzahXcX74cgIAgj67yNyu8rdfTGE6+dLQ3ntoYwuXZVw5c/RAJc2bcUM2ctwWG1QLif8wcKKuzh7FynPnNonvV9onAPZctaTqVDmsVV3IPVSaHeJPMOVW8qblLsohfJWSYgC6kVSSyl1Np/NsVcrXlanQJkLWlqTQPl9NO7HiTrvYJ+q37y+d4WGiZTP8SvWvRh1ZGGBw+glhIpSUVCEjn503+P3FA/1K9aBCCjNq8fqV28wI7cjl9Gw9pZk1AoJqnEkgTSNjQoNJbyNM9i568fQhJRb1pR06l+FLfjaPHgNiQVikgsElGzXsE0qpuVZoEA130sLXrRmWQCC5JaSchS2pr8Z8dQ9XBJcYdOLR9KrjILElvJSCSUkevQD+kn1YLPckpdP5rayYTsOit2vSsNWziDnrfWWvBlgq44FLfjadmwdmQtFJJYyuQRSKnNoFCKVQ2cW1wgo5ZTD1Gt+ZIo1FtG3qFJ6u0HJ2i2u4QsJE2p+7vx3AAN2zN/PQ2RiKj3it/U2w3CbBK3mAa3kZJQJCaRqBn1Ch5F3awaWtxW16Z8Y2PH75yi5UNdSWYhJiuZiIQyVxr64U+qFeMG7aDdN3eqQZsaoUODVFLqkudIbNmOZh6vacEAD+jEbHeSWEioafd3Kb6cx7d1vtXBCJ3pLEridhi2N2/8MzvfjF1ELzrLSGAhJSsmn7S1P82OucrO5CiiL4dLSNQjjDTrJBpAs7hN/Sl1/ZfAmkZvLzFhcZup/lRJmdunkqfcgumhKdkwfxI5+NLMPVnqBRo6cRJHBbELqKe9JQnF1tREKiZ7rwm0bH4AyeUjaKuqPcOxrspzsjb0+hGtLFYQSwt62pMls7N1EymJ7b1owrL5FCCX04iteUz+uvmBc8VQ8pZ5U2iSWrkPTswmd4kFSZp2p3fjy3n9oSH48py+xW2yNq+T1nA4hVP8smHUzlrI9CRlviUgaZtBFBrLxqI6bihX8uf0hihPXU+j28lIyHzZiuneddhCmvG8tdbiNkPxrDDCtoaooovLerJa04MWXah1eF7b6vNZnRxZQLELepK9JbOjdROSiu3Ja8Iymh8gJ/mIrSqdGK5djR2Xgu6cWk5DXWVkIbYiGavHMteh9CEzEu+YjMiddf21dnEbg/lP3OLB1EbK5gBiFo/NelHwqG5kVb24jbd/nhrUALxzgEbElGpcdj3pZf+WrE0mi1BCrfvPp0O53DW63+rAPy49cW4wXnlyW4MYX7vq5mW+/FGZuZ2mesrJgtWMpjYs9kUO5DtzD2XpEUjA/cOKwJ+SqjuZSLqYBzh1gmeHZrULjhqNEsXXziMpR4R2z3iilTErWxSFyEpORXaxBK27eqK9vZYUynxsGP1vYMNe/D/eB1XKkJd+AZklDuj6bDvI651ehTuZSVAP1xMdmtUfbdWdK0hKy4XCsRO8PRx09FFx6xLOX7qLph290aXFo/hycgUKs5KRml0MSeuu8Gxvb5L+lUVZOH/hDyhbe+I5N/UdV8P2VCJ/w2j8Gxuw//+10OwzQFke0i9kosShK55tJ2/ExxZ8Y2O2uJKEtFwFHDt5w8OhzlEDdtCF36aNg+nry9Ho/JEHDp3/EL2MaVZZhKzzF/CHsjU8e7hBdVNuyLfrYbo/PHT8Vt1BZtJF5MEJnTw74JGp75FjWDfK4hykpVzBPaED3L06o4VUc4BRN06URddw4cI1lMk7wKtbK72L70yOdWb7axcu4FqZHB28uhmX93RQoijrPC78oURrzx5wUztPI/PDo4kJRWEWklOzUSxpja6e7VHXdQ3GqEl+r0XFLVw6fwl3m3aEd5cWMDXLGmNbk3kUtr12AReulUHewQvd9DZguHY1elwsvq8kpSFX4YhO3h6oSbOPxV91KctLx4XMEjh0fRbt6g+Iv/9G1SC+OYBpMVWw8SW0XdQaezI/QbdLybghaQevLk7QSi+68I5Ln94Mx6uh3KafRtQuHXjyh7IYOWkpuHJPCAd3L3RuQKA/9cT3z07ZmTAEbu2EtevHoa1xnm9GH2VnEBa4FZ3Wrsc4syINw3069uA8wocMxqGh8fhxQRc85JMTZsyYMWPmL0bNxPf3TXiZd8L5J+BPVLvMs4yHQNozFHsizZPeh0baE6F7Is2TXl6qkBjaAzb2vvio7N9YPsM86TVjxoyZfyICgRAWQkHDi/n+VPy5apf5HV8zZv5CKAqv4eLVMjh10fpo0IwZM2bMmPkT82eqXeaJrxkzZsyYMWPGjJl/BObPls2YMWPGjBkzZsz8IzBPfM2YMWPGjBkzZsz8IzBPfM2YMWPGjBkzZsz8I/ibTXxLcWbDXCzckabZNtMwClzdvwxz157QbP8TMc1fCk9FYO4He9QbpWewYe5C7Eir9/NAZhRXsX/ZXKw9UaDaLD2zAXMX7lD9zUt5NlLSC1TffNOYeC7PTkF6gaGfUXrE1Bnr40DH7wpPIWLuB9hzuaEfxDfzp6H4J3wxdxF2pj+lHPEUfEXHV41BJ94fBwpkH1qMiUP88fzAKdj0tGzxp6Vuji1Hdko6jE2hf9Wa+Deb+FYg++fvcfRCnmbbTMMokBv/FSKiz2m2/4mY4i9KFCfFIGKr5kahIhs/f38UF/LME5B6KHIR/1UEos/dU21WZP+M749eUP1tEDaJ/GKkDybtyNYUQtPiWXH1C4z0mYQd2U9y4qs71kePrt8pi5MQE7EVJ66bC/ifnvJrOPv9MSTnP50c8eR9pU6O5KNevD8GSg9i4ZSl+NGyD0aNHIzuTuYPuXXRzrEKXP1iJHwm7YBxKfSvWxP/Zl4gx2ubU3H2w4GabTNmDPEQ/iJ/DZtTz+LDgY/iV/L+3shf24zUsx9qtgxAxci/VaxVBE2zDxXn41bxE5z0mjFjiGaB+DL1NJb1M+cIvdSL90ePsigXuUUt8dKcxfjPrPHoaWee+OqinWMJxfm30OgU+heqiU/JC6qQfXgJXvN1gVwigsyhK155/yCyNTcKFVcPIHSUN1o1EcFS5ojOAXOw42Kp+iCjKvswlrzmCxe5BCKZA7q+8j4Oqi4uxN63+mBwWLzqvMK9b8Fv4ipsXzEWzzhZQSSxh0fAfByo7oiFXF7cSgT6toWN2BJSh04YMucbpJdpDt/Zgxl+gViwcAw621vD3nseTpRW4OqBUIzyboUmIkvIHDsjYM4O1IpXiLOfB6NvRwdYi8WwdfbB2PBY3DToTJzcfhi/fDMWDXWHnUQCuZsfpkWeY0cYynzsmt4Xwz9MZPdnGqqS8fHovpj69R+aHTxjQSlSt83CC+72kIpt0X7QAhzL1/0mO2VeHFYG+qKtjRiWUgd0GjIH31Q3ULgXb/lNxKrtKzD2GSdYiSSw9wjA/APZ7D6RB2Ue4lYGwretDcSWUjh0GoI536SjWrTCs58juG9HOFiLIbZ1hs/YcMRqFKay4fjl2LxoKNztJJDI3eA3LRLnVIpRY1BuhrH+wun55Opg9PNwhLXIgrXVDO4D30RUern6uDacPvoMRlh8BZQ52zCtlw98fOq8egVjSxbrh6fdO3tmwC9wARaO6Qx7a3t4z2N30IVn8XlwX3R0sIaY2cvZZyzCY2/WFAm+MTeE4evUfjhx1XasGPsMnKxEkNh7IGD+gZrY1EtpKrbNegHu9lJmv/YYtOAYtF2Ls2GfwWHVW/rjoyoXUdMnYWNGOTK3TkTf4C3IUmjbx7BsytwoTJ+0ERnlmdg6sS+Ct2Sxax5DrPKMlc/X9cMXuwaouIoDoaPg3aoJRJYyOHYOwJwdF1m0qzEUW8bScPzw5WqNzVZsRdjIrmguFcO6TW+8wfSRGvUG/FyaMt+2g/vQpYi/Wy0Tn834MSZnGJRbb95XH6qLwXji2ukTgCU/abI2Xx5U1asV2Bo2El2bM/+yboPebzA/SI3CG34uaMp81M59KJbG3609n2ec2vDV1dKD76BPz4nYeKWhYFfbs8E6VQ8l8k+uRnA/Dzhai2DBxtzMfSDejEpHuVJfvPPLaIo/V11Yg1dfXonEijzsndkHvd/aiyx9uZYnP6vtYmgeYXg+w5erDY+JJzfw1Al+qnNsHHKjpmPSxgyUZ27FxL7G1S4dtGoihzL/JFYH94OHozVEFkz2Zu4Y+GYU1JcazucqeHLbQ42d+x7fJ035+SXk28SWvKetp2OJ5+h45BTqbi2nIRG/E5WcopDuVmT7zFT67NBpSojdQnP6OpDYdQrty1dwF9MS3yZk6z2N1h9LpHPHI2lKd2uSD4mg36tuU2SAlByD96v6uR0ZQFJpE3J7YQFti0ukhAPhFNBKRC0nq49Xpqwkf7kd9Xh9HR1OOE+nv11KI9ysqMP0w3SXHVfcXEeDxEKy8nqdtp06RdG74ynrZAh1t7KlZ6Z+RodOJ1DsljnU10FMrlP2ESde5c//ZWPpRMGRx+l86q90ZPUocha3oWmHi1V96oeTW0JiaXPW7hd07PRJ2rFgADmJnOlf+wqYINfp0wEycp3xA5VprqDyH+kddxn1XZmp2uQbS/Hxt8ld0pye/8/XFHcmjqJC+pOTpYBEfVeqrmcN0Ep/Odn1eJ3WHU6g86e/paUj3Miqw3Q6zDVwO5ICpFJq4vYCLdgWR4kJByg8oBWJWk6m/UXqJvRTSSkr/Ulu14NeX3eYEs6fpm+XjiA3qw40nWu48mf6L7Nfp+BIOn4+lX49sppGOYupzbTDxGmMs6FELKXmzB++OHaaTu5YQAOcROT8r33ENMMvtyn+sjuQnKQdadynRygxJYX5y0c0ylVE8lHbWF8Kuv7pAJK5zlCdq9aHIwXvf0B0P5kObI6kyEjN64tQGu4sImvvEDp5n7/dm+sGkVhoRV6vb6NTp6Jpd3wu/fzf7mTdKZgij5+n1F+P0OpRziRuM41UbsQ35obgvU6tD2kTN3phwTaKS0ygA+EB1ErUkiY3aORiOv62O0maP0//+TqOzsRFUUh/J7IUiGp8UxWHjsGqvxuOj5uUvC9cpZe2IxZR5L4k5rfa9uGRrSiZ9oWPIldRWxqxKJL2Jd1lqeRRxyrfWHl8vQEMx66u3ymuf0oDZK404wcuE5TQqZDuZGX7DE397BCdToilLXP6koPYlabsyycFT2wZhaH4uc+TqzV5TSRzoSFhMXT6fDytG+tCIptm5Pzcv2lD7M+UEDOP+sil1HtFhqo7PpsZA2/O4Kkx+vK+3r554knVjrQlTT3EcoQRvqGSWyQjlyFhFHP6PMWvG0suIhtq5vwc/XtDLP2cEEPz+shJ2ntF7fkGxqnjK3x1lVH24yc0beoi2ne9IUWr7dlgnaqXI3dToJOUOo77lI4kplAKqxkfjXIlkXwUbSsoqh/vfDKa6M+Km2do58eTqKvYgQaFfEGbv0+ja/VybT5Pflbr2dA8wuB8hi/n8ozJcG6oNFwnjKI2xxYl76Nwzj5tR9CiyH3EUmjjayJrd3egE0k7jqNPjyRSSgrL1x9x+VlOo7aptGo4n/Pltocc+1OY+JZT3Kz2JPF8j86Va3YxE/8QPoGmfn6WiqLHUzNZb1qeXqU5xhw4dwsNl1vRwM+u0YO4WdRe4knv1V5MxT+E04Spn9PZslojcqgTgz+tuVodyOq+pc+Fs7/LKPYNF5L2Wk4ZtV3R7agxZG8znLbmaxKXREqDInKYojmKKHp8M5L1Xk614ikod8twklsNpM+uKehBTCDZN/Wj8F/vqa+pyqKjGyJof6qh2aE6oUh6LqO06nYVubRpmJxsXtlMeZV8E1++sRRRzEQHkvmvpsya9nNow0s2JNZMfMti3yAXaS9artsAjbG3oeGcMjinlojJf81VjS6YCJwtpM9R+EWta+pSFktvuEip1/IMqj3rNkWNsSeb4Vsp/0EMBdo3Jb/wX+meWmGUdXQDRexPZdrmumU2lPSkZbWKodxNw0hu8wptzlPwyq2S0Sh/UVDe2R20dutJrSJXTvGzO6r85WKVoSDXQpFPR2Z7kU2b0bQls5LbwdsuN/GVSAdRRE71CQ8oJtCemvqF069qpTA3OkobIvYT50a8tmoA/uvUfij2X0O1IRNHs9pL6bnwi5oddSiKoYkOMvJfnVljX0XOBnrJRqx34mswPiqTKayHjDzf/5WlNQ5t+/DLVpkcRj1knvT+r9zVjyFW+cbK5+uaPbrwxa6BiW9RNI1vJqPey9Nr+2N5Y8twOVkN/IyulRiOLWMwFD8ndhjO1Ypqm7EcU513yo5NJ2eRC00/pokbJu/nL0ip5dSDbIPfZsbAlzP4akxlvbyvH7540pn4GuEb6nrVl1bWKoumsxtol+nHWEbgYOP4/AWStpyq2uIbp7av8I3ZSM2q7NlgnVLU8dW8s7Rj7VY6WZv4qDx+NnWsrhl14p1XRp5aoQ9F7uf0gsyNZh7nKqe+XMuXn6vt0tA8wvB8hjfnGhwTX24wXCeMQzvHVlJyWA+Seb5PqhTKqxsDNVGRR2d3rKWtJ7lJqobyeJrdUZ2vq6pzQ0P5nC+3KR5u7E/+UQflHaRdzIHts77oWvOzddYY+F4UNr35LH5PyUBJ297wa1f7S85CR3/07aLApeRU5KVdRI7ts/CtvRjWA99D1KY34avn0RKBvB061DzQLoRc3hSCqgpwi1KSUm6gKmM9Rnt1Q7du6le/sFMofXAZaZmaj6cEdnBxsVc/E1L1O1IyStC2tx9qxRPC0b8vuiguIfliJaQDJiHI+Rcs9GmFNl6DETR/L4p8x2Jo1yaa8xvCAm7+/dGhul2hI3r5dkBFRiou861N4BtLxm9ITS9Ca28ftNVqv0+vjrBUbSiQm5SCG1UZWD/aq+b6bv3CcKr0AS6nZaofsRDI0a6DU83zMUK5HE0FVaioaPjH/xS5SUi5UYWM9aPhVd1ut34IO1WKB5fTkCkcgElBzvhloQ9atfHC4KD52Fvki7FDu6JaYxZu/uhfqxg49vJFh4oMpF4u55H7Mm4a7S+sXd/XEORTiJjlIZgxaTQG+XTBiIhMKJRKKI36fcNSXPgkEJO+lODtb7bgX+057RrXrsDOBS721ZqVYsCkIDj/shA+rdrAa3AQ5u8tgu/YoejaxEhb1cPY6wSQt+uA2pCRQ95UgKoK/a1WZaUivag1vH3a1vz2utCxD3p1VHtWXRofHxwmyPYYYpVvrLy+rk+FxuYhPVT9noKMkrbo7deu9nfvWVz79+0CxaVkXLTgjy3DKHGnwfj5f7DPMJSrL6JStUcAm/buaK05RWDVBDLLlnBpK1LvEFrBSiaAokphlM2MpeGcUcZTYzRya+d9vZgWh8b6hsCmPdxrlYUmMku0dGkLtbaEsLKSQaCoLQgNj1O7aFQZN2ajML5OCR198VqQDwpjliNkxiSMHuSDLiMikKlgea9eQjVCRunD+rMa3VxrZH5uaB5hcD7Tg99HDI2JNzcIDdQJjSgPhXG60QvzC9/XguBTGIPlITMwafQg+HQZgYhMBbO9EupLG87nvLmt0lCN1JxvAP3V6bFSCS7HWVqI2LDrU8EFtaVIVzCBBSzZDqVSgQr1xRDpu1gPAguLWsWpqL6wHOXMb216BGJucGfdc4RN0YmbtHDWYX1bWFZfU8ESNCeertoEFpZMXuYICnaB3RB8cuY8Xtq5HTGHjuL4pnnYvnYVRq6PR/QULSPWQwCpTMZcrRYLNk4Qa1ezretnnONV7+EbC+EgU5uQU2INrD+ppFYb6gYQODcYnXUbQNNO7dn4UtW6qDMAXjOUlzOt2aBH4FwE6zbMROuE9pZ2cPzkDM6/tBPbYw7h6PFNmLd9LVaNXI/46CmwZecJpDLIdBXDxkjMH/jlpjPG+osSuaw/v6BdeNDFH/49usN/8hi8cuY9hFzSnGIQJf6InoFXQ69g0MYTWPQ8J7l6vzHtcn5a42YMuyGf4Mz5l7BzewwOHT2OTfO2Y+2qkVgfvxN9eG2lH34bcwiYjU0wMotHBbte17WkkEoauMhQfEzSnNMgpsj2GGKVb6y8vq7Z0MGIPNTQF69UKNh0wRK6Q2Q6UidLKMgOQw3Eltb8okEqDeRbvlytzk4CiESaSW4NAu40PRhhMyMxlDOMklsn7+uHP56SNNsMI31DwHRVT1v6laXC0Di1Mc5WxsBfp6pR5kZjil8Qdj3oAn//HujuPxljXjmD9xpIqPwy2mHIQ/ozh26uNT4/6zZf3YDh+Qy/jxgY084+vLnBzrGhOsF0b6xCGuQhaqIyl+VQPwTteoAu/v7o0d0fk8e8gjPvhaD2UgP5nDe3GaqR/GPX9t8ng7AZXJ1tcCfzktYikiqkb3oDExYdgYubMyyvpyK1ZrEDozQZKb8BbVzbw8nVGTZ3MnFJ64H2qvRNeGPCIhy8UTf0DGDREm7OVigptUXvwCAEBalfE4Z4o72HJzrU3BFqYenCrrHE9dRU6IqXgt/QBq5uFihI3Im1e27i2amLEbnvDDJzkrGmXzEORx3SGq8+FMjOyECxZgvsr9TU32HRzgMdWWKxsCBUlD+oTVAVN3HztqZBvrE4uqGjmwQ3LqbhTo0M5bh0+RrTPIcFWjK9W5WUwrZ3YM31QROGwLu9Bzw7GHrnwzAWLd3gbFWCUtveCKxuN2gChni3h4dnB8jvJmLn2j24+exULI7chzOZOUhe0w/Fh6NwSKMwRXYGMmoVg2Km/98t2sGjo4RH7uZwMNZflNcRvW4Xbg9ci8Rz/8POjasQOnMYWlTe50puvaRel8IfwzD29QNouWAnIse71CapxrSrLEDizrXYc/NZTF0ciX1nMpGTvAb9ig8j6tCtRtrq8djY0qUj3CQ3cDHtTu1Yyi/h8jW1Z+mi5IkPNiHSnNkoBFpXP4ZY5Rsrn6/rSymNykMaLF1Yf5bXWZ64q+VHpUhWJ0u43OePLcMI0azB+FmCS3ZtDeRqt3oTOF54bWZ8iw3nDClPjTFWbtPiqVG+YQQNj1N7xmD5iMbMYahOaXapUOJ69Drsuj0QaxPP4X87N2JV6EwMa1GJ+0wE9cRcO975ZbQoeFh/1sND5n3D85nveX2EJaGGx3SrheHcIL9roE7c1MhiGtop9GF0o7wejXW7bmPg2kSc+99ObFwVipnDWqCy1vgG4cttbhaGaiT/2BsZbg+DFQaMGwmnhM+w4Ks0FDElFKV9hbClX+KXIls0GzYRQ61isWxmJBLvsIJSegXfhixCdEkvjHvVA00HjMNIpwR8tuArpBUx5Rel4auwpfjylyLYmvRVJbYImDgKDuc+xpvLfkBOOQvpWwlYM/lF9B8ZjlMlmtN0aIZhE4fCKnYZZkYmQi3etwhZFI2SXuPwqge767uyD0tnzsKSw9lsaslC4H4O/iiogL2zM2wNike4e3AZQqIvo1RRgku73sXi/QIEBI1EC0s5XFzscPvEbhzIYq2WZ+PIkjX4vrB6Gsw3Fju8zO7U7I6vwNtbLqBQUYZr372PsN03apzKNmAiRjmcw8dvLsMP6gaQsGYyXuw/EuH6lWEctgGYOMoB5z5+E8t+yGE6UeBWwhpMfrE/RoafwgPBFexbOhOzlhxGtlphyPmjABX2znDWKIzuHsSykGhcLlWg5NIuvLt4PwQBQRjZQsgrt5XR/sLdXQpQcSsLWfeYVhQF+GXzLCz+7h53225wVX7VpY0IHrcSOf0XYckIa2SlpSFN9UpH9j2h6e0KBbiybylmzlqCw2ql4H7OHyiosIezs22jbfVYbGz3MruTt8PxFW9jy4VCKMqu4bv3w7Bb702o0HB8WIghEROK793T3JCZhkAsgZiKce8ed/VjiFW+sfL4un4NNyYPaWg2DBOHWiF22UxEJt5hOivFlW9DsCi6BL3GvYrOljyxVXYRByMjsTepga8BYBiKnzavBhnM1aa/38RnM9aiETJzGMoZfDXGWLlNiqdG+QY/hsapjTFjrrr0PSI37MG52ndH9GCgTtWJGe6de0HFLWRl3WN1RoGCXzZj1uLvcI+NvpxLfALdeOeTUWRErTCdxud9NYbnM3w+IjQ4JjvDueGB4TrBggUXD0Yicm9SA9+6URcBxBIxqPgeVCn0YXTDvXMvqMCtrCyoL/0Fm2cthvpSfq3y5TYP0UOOXfOs75NFcYdOLR9KrjILElvJSCSUkevQD+kn1eJWBd2MXUQvOstIYCElK4klSVv70+yYq5oFLwq6c2o5DXWVkYXYimQiIclch9KHqou1H9TmnrUOIFnLqaRaVKuikpJCvUnmHareVNym+GXDqJ21kIRiKUksBSRtM4hCY/NUD2SrFifI2tDrR2qWlHE7KXbRi+QsE5CF1IpdI6XW/rMp5qpaOqrMpO1TPUluYUHSpjZMPhE5+M6kPVlaT6fXQy23Xc+Xyb+lmERiEQklran//EOUq3nwuzx1PY1uJyMh68+K9es6bCHNeN66ZgER31i443GLB1MbqVDVvqhZLwoe1Y2sqr/VgZ11O34ZDWtnTUKhmKRM7wJpGxoUGkt5XAPcg+uy6hXKaiqTQslb5k2hSZqxN4DidjwtG9aOrIVCEkslZCmQUptBoRSrariSMrdPJU+5BdNnU7KRMdkcfGnmnizVQ+2cDaV2Pell/5YkFjHdCCXUuv98OlStGD65jfYXBRXELqCe9pZMf9bURCome68JtGx+AMnlI2hrXmUDD/KXqBaciLmKUO8loWFb7vC2yy24kLV5nbTdrDJzO031lJMFi4GmNixGRA7kO3MPqd2Ib8wNwXcdpw8ZtZx6SLOYhlGZRKHeMvIOTdLsqI/idhwtHtyGpEIRs5GImvUKplHdrPQubjMcHw/oxGx3klhIqGn3dym+XNs+Rsj24ATNdpeQhaQpdX83ngn26GOVb6yGfb0BDMaugcVt3PbNWFr0ojPJBGwMVqw/aWvynx1D6iEaji3KX09DJCLqveI3bqsBDMUPX66ub7Pyn94lD1lvWvFbtY7v0ZZhspqczWszI2Q2JmcYkltv3teL4XjS/VYHts3jG/XqVflP9K6HTDXWGm1tGUYyTSzxjVPXV/hsRVT05XCSiHpQWHL1nrqo47HhOlXHVwtiaUFPe7JkurFuIiWxvRdNWDafAuRyGrGV8+268c4nI48/60Hf4jbdXMuX95mN69qFyaE7jzA8nzGcc3nGxFPXDdeJfFo/REKi3iuoJtzqoZ1juRQ6m9wlFiRp2p3ejX/QyJrIFKUooNgFPcnekvm6dROSiu3Ja8Iymh8gJ/mIrWzs9XND3XxuOLc93NgF3D+sSD8Vqu5cQVJaLhSOneDt4YDa5ROMqjvITLqIPDihk2cHNNM5yGDHrySlIVfhiE7eHnCoe9wEFIVZSE7NRrGkNbp6toe9EW1V3clE0sU8wKkTPDs005Wd3d8W56Qh5co9CB3c4dW5BaSaI/opwMaX2mJR6z3I/KQbLiXfgKSdF7o41bmK3T1fOn8Jd5t2hHeXFtD3NdF8YynLS8eFzBI4dH0W7eR67pIVhchKTkV2sQStu3qivTHKMAoFCrOSkZpdDEnrrvBsb6+jM2VxDtJSruCe0AHuXp3RQjP0go0voe2i1tiT+Qm6XUrGDUk7eHVxqq9PPrmN9Bdl0TVcuHANZfIO8OrWit3PPxoa1a6yGDlpKbhyTwgHdy90rlZKNY211WOxcRny0i8gs8QBXZ9tB32uVYuB+FAWIev8BfyhbA3PHm48n5LUR1mUhfMX/oCytSeec1M/Z/1oY5WDb6yGfb0hGpOH1FThTmYS1EP0RIc6ybKh2OLGnr9hNP6NDdj//1po9jWAofjhy9WNoGGb8ctsdM54VHI3EE/KGxF4sd1yuH17heX36mzdON/Qh9Hj1OahxmxkndKGxfO1CxdwrUyODl7d0Kpu4tMX7zwyNuzPjedR5H2D8xmenMs3JoO5wUCdUOZvwOh/Axv2/r9678jrR4mirPO48IcSrT17wI0ZpPG6YW1du4AL18og7+CFbvWMbwyGc1tjx/5UJ75mqqlNKL9vetmIwvvPoSa5/74JL5sVY8bMo6PsDMICt6LT2vUY19bEO4ynhREy/1lyRnlCCJ7t/x2GnUzChz3rFOxHwJMfp7lO/bUow5mwQGzttBbrx7V9Gs+1PkUMj/2fpYs/LQIIhBYQCh5ycc/fEIFACAsh04tZMWbMPFqkPRG6J/KvM+nlMELmp58zyhH3tgfs/Ffjuuf/YfQzj37Sy/Hkx2muU38tpOgZugeR/7hJL4fhsZvf8TVjxowZM2YeIaU3M3ApR4DW3TzgqO+ZNDNmzDw1zBNfM2bMmDFjxowZM/8IzI86mDFjxowZM2bMmPlHYJ74mjFjxowZM2bMmPlHYJ74mjFjxowZM2bMmPlHYJ74mjFjxowZM2bMmPlH8JeZ+Jae2YC5C3dotv5GlGcjJb0Ahn4kstEob+H4J//BnIXbkVqh2WcAxdX9WDZ3LU4UPBZpdFBc3Yel/5mHz+JuPeKxF+JUxFx8sOeyZvtpYLoM5dkpSH8Cev878CT91IypKJB9aDEmDvHH8wOnYFO66rdP66H44xA+/M+7WH0kV7PnL07hKUTM/QB7LivYRinObJiLhTvS1MceAU82P1Th4jeheHfVEej95fG/CYWnIjD3gz2arUfPk89TClzdvwxz157QbDeCx+zHOpSewYa5C7EjTX+OeJz8ZSa+Fdk/4/ujFzRbfxMUV/HFSB9M2pH9WCa+yuydWLpwPSI/XoBPjhVr9jaMIjceX0VE49y9x/1FH6U49fE8rIyzgHcPh0frhMpiJMVEYOuJ65odTwETZVBc/QIjfSZhR7Z5ImcMT85PzZhM6UEsnLIUP1r2waiRg9HdSV90VyAxIgThRyrg6euk2ffXRlmchJiIrThxnSviFcj++XscvZCnPviQPPn8UIWrsRvx2TcJuPW3TUlKFCfFIGLrQ0wSeXjyeUqB3PivEBF9TrNtOo/Tj+tRkY2fvz+KC3ncJPvJ8peZ+Mpf24zUsx9qtv4mUDHybxU/nnd7WRBc+mY7zrr+C28PLsG+zXuR/2dJYoo/cKvZBGyIWoznm2r2/YOh4nzcKjZPes389VEW5SK3qCVemrMY/5k1Hj3t9JQYRQ7ybMdg3Y4VGGz/lylBJiDHa5tTcfbDgZrth8OcH8w8HR6tH9dD/ho2p57FhwOf/BddP6WsU4rUr2dioLs9pOImaNN7GiJWTcfzYz9VHb2zZwb8Ahdg4ZjOsLe2h/e8Eyjc+xb6DA5THefu1vLiViLQty1sxJaQOnTCkDnfIL1Mc5hRmvo1Zg50h71UjCZtemNaxCpMf34sPk1Vv61ecfUAQkd5o1UTESxljugcMAc7LpaqjnEUnv0cwX07wsFaDLGtM3zGhiP2pqnJx4CcylxETZ+EjRnlyNw6EX2DtyCL3fhUZR/Gktd84SKXQCRzQNdX3sfB7EbcEVWdx/ZvLsD5pQmYEzgEFse2YgfXgRalqdsw6wW1jmzbD8KCY/nQuTdV5iFuZSB829pAbCmFQ6chmPNNOtRqLsTet/wwccVWhI3siuasDWum5zfY8dSoN+Dn0hRisR3chy5F/F2N3pT5OLk6GP26+GFy+AeY6N0S7gPfRFR6ufp44Vl8HtwXHR2s2bW2cPYZi/DYmw95Y1CBqwdCMcq7FZqILCFz7IyAOTtQY+rG9Fm4F2/5jcfyzYsw1N0OEokcbn7TEHmuUHOCLsr8k1gd3A8ejtYQWTA/aOaOgW9GgRu2MjcK0ydtREZ5JrZO7IvgLVnsiscgM8OgTxu0dcNwcek3fjk2LxoKdzsJJHI3+E2LRLUqlPm7ML3vcHyYWPusTVXyxxjddyq+/kPdtzIvDisDfdHWRgxLqQM6DZmDb7SC+ZH46artWDH2GThZiSCx90DA/APgDSsePRuU2wgfMeQXLAtizww/BC5YiDGd7WFt7415J0obdU2D8NhcZduJq7B9xVg842QFkcQeHgHzcaABxVVdWINXX16JxIo87J3ZB73f2ossPbkcihtIiY/Fz1eqfYLH35kNz34ejL4dHWAtZj7g7IOx4bEwmI4rruJA6Ch4t2oCkaUMjp0DMGfHRVZ5DFCVjcNLXoOvixwSkQwOXV/B+wezoRptde7ycIS1yILZu5lu7tKB87k+GBwWr958CD3rzw989a8R+jKZR5+jDOcBU+uN+vzxyzdj0VB32EkkkLv5YVrkOXZEH3w6VSL/5GoE9/OAo7UIFsyOzdwH4s2odFR7AG+e4vFJ0+ccbB61bRZeUM2jbNF+0AIcy9d9d5kvtxpG14/VfroCW8NGomtzKcTWbdD7Daaj1Ci84eeCpszX7NyHYmn8XdX5vDmQO95nMMLiNXnAQJwoc7ZhWi8f+PjUefUKxhZuXmNSfDK4H7B40hTFvkXukub0/H++ohMJ8bQrNIDaioVk2XkeO6qgm+sGkVhoRV6vb6NTp6Jpd3w+3Y4MIKljsOr6ypSV5C+3ox6vr6PDCefp9LdLaYSbFXWYfpjucicUxdJb7hJq/vx/6KsTCRS/K5QC2opJaNmZ5iWUE5WcopDuVmT7zFT67NBpSojdQnP6OpDYdQrty1ewDn6m/3a3pk7BkXT8fCr9emQ1jXIWU5tph6lYJYFxGJaziJL3hdMoVxG1HbGIIvcl0d3y87TEtwnZek+j9ccS6dzxSJrC5JAPiaDfqzSNGknZybepg/QZCj1fyfRxkKa2ltAzoeeJbakpPk5va3T0ddwZiosKof5OliQQ9aWVmVxnlZSy0p/kdj3o9XWHKeH8afp26Qhys+pA0w9zWr5NkQESEslcaEhYDJ0+H0/rxrqQyKYZOT/3b9oQ+zMlxMyjPnIp9V6Roery9u5AcpJ2pHGfHqHElBRKOPCRavzyUduogPX383+7k3WnYIo8fp5Sfz1Cq0c5k7jNNDpsitIV1+nTATJynfGDarPkVAh1t7KlZ6Z+RodOJ1DsljnU10FMrlP2Ub6ikX3ejqQAiZikzZ+hqV8co9Mnd9CCAU4kcv4X7Stgx3VkuE27A51I2nEcfXokkVJSEujAR6PIVSSnUdvYyUXJtC+c225LIxZF0r6ku49HZoM+zWfrhuHiUiKWUnMWS18cO00ndyygAU4icv7XPmZTThWf0gCZK834oUx9AaP8x3fIXabxs8oUWukvJ7ser9O6wwl0/vS3tHSEG1l1mE6qrh+Jn0pJ2sSNXliwjeISmf7DA6iVqCVN3l/EidMAPHrmk5vPR/j8QnGT1g1iOcvKi17fdopORe+m+Pz8RlzD8ple+G2uyrnSJuT2wgLaFpfI4jWcAlqJqOXk/arjdVHcPEM7P55EXcUONCjkC9r8fRpd05PLqewwTWstoyHr2d8Mw/7OJP35v9TduhMFRx6n86m/0pHVo8hZ3IamNejwJXQqpDtZ2TLdf3aITifE0pY5fclB7EpT9uWzCqOPcjq/xJea2HrTtPXHKPHccYqcwuwvH0IRLPkazl11/Vztc47BnJ4eUs968gNf/TNdX3V5QAenOJH42UV0oaZg6PLIcxRfPJlcb9Tni6XNmYxf0LHTJ2nHggHkJHKmf6mTNF3/dADJXGdwjfPqlDkABTpJqeO4T+lIYgqlJBygj0a5kkg+irjQ489TPD7ZiDlH8fG3NfOorynuTBxFhfQnJ0sBifquVJ/Aq9P6NOzHaj+ViGTkMiSMYk6fp/h1Y8lFZEPNnJ+jf2+IpZ8TYmheHzlJe69Qnc+bA7njUkcK3v+AbfDEyf1kOrA5kiIjNa8vQmm4s4isvUPo5H3OPIbjsy5PYeJ7l74Za09NB0fQtZoMVEC7xjuSSGviK5EOooic2hRVO/Eto9g3XEjaazllaE0Gb0eNIXub4bSV5dK734wl+6aDKaK2AyrYNZ4cReqJb1H0eGom603L02sbUORuoeFyKxr42TVSPIihQPum5Bf+K91TNVFFWUc3UMT+VDZdNRZ+OakymcJ6yMjz/V+Z2VnqjZtF7SWe9N45NjnXUPxDOE2Y+jmdrZ03GEExHZzahmS9l5N6iA/oxFvtSdzuTfqhRHUCFcVMJAeZP61WBSWHgnI2vEQ2Yk2glsXSGy5S6rU8g42+mtsUNcaebIZvJXYrok4sLMiqmyg7Np2cRS40/RjnyAxFLn3+gpRaTj3IbVDe2R20dutJVTFTU07xszuS9Llwulj1gGICmV/4hdOvaqVTVdZR2hCxn1KNVzrrRnvSWUTR45tp6YFDQblbhpPcaiB9dq2kcX2qAlpCPZel1ehGkbuJhslt6JXNeaTQlkGRR2d3rKWtJ7UKbnk8ze4opefCL6qur0wOox4yT3r/V84LHpPMhnya19YNo0qGkp60LK1GE5S7aRjJbV6hzXkK3olvWewb5CLtRct1g4TG2NvQcBYkj8xP/dfQ1WoDlMfRrPZq/TeMYX/kk5vfR3j8QjWJlZB0UATVpMHGXNMQRthcZVuxP62pVRzFzWqviteGUOR+Ti/I3Gjmcc7e+nO57sSXz98VzHUDWT73o/Bf76nHXZVFRzdE0P6GHL4omsY3k1Hv5em1Y2O5aMtwOVkN/Eyr7mih8gkJeb53jo1SQ/EPFD5hKn1+tpQnd7HmG5owPAI96+YH/rpisr7qwTfxffQ5ijeequPY6HqjPl/ScxnVpqZc2jRMTjavbKY8hfbEl1+niryztGPtVjqpdSNZHj+bOkqfo3DmALx5is8nS0ydcxRRzEQHkvmvrtEHKXJow0s2Kh1x8Ou0PrwT3+rxcJQdo+ls8uky/RjzGA7mA5+/QNKWU1VbvDlQe+JrSg1S5NOR2V5k02Y0bcnkHJRvbqHZpcWTf9Sh6jckp5fC5TlftKrpXY7evbpCpNniENi5wEXf81+KXCSl3EBVxnqM9uqGbt3Ur35hp1D64DLSMkvxW3I6Sl2eg29tB5D37oWuqg6q8HtKBkra9oZfOwvVMQ6hoz/6dlHgUvJFVEoHYFKQM35Z6INWbbwwOGg+9hb5YuzQrmiiOZ8XXjnrfs2CEnfSLiLH9ln4dhVr9gHWA99D1KY34WvKYzB3DyHqQB5atgZOf70VW7d+g0xrN9hkR2PTIe5jiCpkpaajqLU3fNpW60AIxz690NFSvaXITULKjSpkrB8NL43s3br1Q9ipUjy4nAa1+ALYtHdHa00TAqsmkFm2hEtbjSWFVrCSCaCo4j4sZO37voYgn0LELA/BjEmjMcinC0ZEZEKhVEJJUgyYFATnXxbCp1UbeA0Owvy9RfAdOxRdjVZ6Hap+R0pGCdr29kOtqZkc/n3RRXEJyRctGt+nhRv8+3dAjfYce8G3QwUyUi8z7WohdITva0HwKYzB8pAZmDR6EHy6jEBEpgJKNu56yx4el8wGfFpmlK0bxsLNH/07aPlRL190qMhA6mW+1boK5Cal4EZVBtaP9tL0y179wnCq9AEup2Xgt0fkp/J2HVCzzkooh7ypAFUVhgZmyB/55M6EqmVDPmKUXwhg5+KCmjTYmGsawDi9sdbk7dChVnGQy5tCUMXjEHVoMJdz8Pp7JXPdSQhy/gULfVqhjddgBM3fiyLfsRjagMNX/Z6CjJK26O3Xrkb3nO78+3aB4lIyWJP1UN5Jw8UcWzzr2xU12dd6IN6L2oQ3fWU8uUtzvh4euZ6NqCum6stkHnmOMjKeTKo3HBZw8++P2tTkiF6+HVCRkQqd1GSEToWOvngtyAeFMcsRMmMSRg/yQZcREchUMPsrK3nrKa9PWpg456jKQmp6EVp7+6C2S0f06dUR6i6N1alpCGzaw73WAGgis0RLl7aauZsQVlYyCBRayjWyThobJ9zjHRc+CcSkLyV4+5st+Fd7brRM1ybGp8YsTx7iBNL8rQ+BhQUsBZoNHcpRzpRg0yMQc4M71zoRh7ApOqkUwSDOIdV/1qWCM4ylSHfwAtYf26FUKlgBscOQT87g/Es7sT3mEI4e34R529di1cj1iI+eohXshjBSTi0quYC1tIBI77iNRYmbe6NwpNAWzS/vxKe/aXazUTVpcgeHtuzGH2OmokrB+hJa6uhAIJVCUt13eTkLDBv0CJyL4M66AxY27QRO/FSWiEQi7dsVDgGnSj0okct05xe0Cw+6+MO/R3f4Tx6DV868h5BL6jPshnyCM+dfws7tMTh09Dg2zduOtatGYn18NKYYp/Q6VLAkyJlaV9cCC27czD8UzNJDG9mnQAqZTLuYM/9hp3N+rYMyF9FT/BC06wG6+PujR3d/TB7zCs68FwLNsOvwuGRu2KdPLOG3tSEEUhl0VWHJtEFa8Vcn87ADpNlVrg4SBM4Nhm7XQjTt1B508NH4qQXLJzoYEWMN++NO9OGR25L1atBHjPILTm7LWlEbc01DGKE3Di4P6x41QnF1aDiXc/D7OzMEPjlzHi/t3I6YQ0dxfNM8bF+7CiPXxzN9aE0kqqlQsKJqCd0mmV7UCR5ck/WorGJTBea3epMvf+5qkEeuZyPqiqn6MplHn6P48oC6J1PqDYcAUpmMtVCLhToAmZTa8OtUmcvk9gvCrgdd4O/fA939J2PMK2fwnsYBeOspr0/aYahJcw7mr6oudXqEVCph/6oxTqemIWD6r2eBhg3AKcG4OmlUnCjxR/QMvBp6BYM2nsCi521VxxsTn9oSPRksO6J7ZxmunUvUetj+PhIT06HnRrw+Fi3h5myFklJb9A4MQlCQ+jVhiDfae3iig70YHbt3huzaOSRqPRh+PzER6aoOLOHi5gzL66lIrV50xVGajBQ2SWzj6gaLgkTsXLsHN5+disWR+3AmMwfJa/qh+HAUDhm7QoBXTk71LGjVZzOEaObqDJs7mbik1UdV+ia8MWERDhr7hYqKbOyOOg7l4OWIP5+EpKTq16+IXdgXlSe2YluGAC4d3SC5cRFpd2rbLb90GddYQuOwaOkGZ6sSlNr2RqBG9qCgCRji3R4enh1431Gqh/I6otftwu2Ba5F47n/YuXEVQmcOQ4vK+1yqZLFfgMSda7Hn5rOYujgS+85kIid5DfoVH0bUoZuaRkzE0oXZwBLXU1Oha+oU/IY2cHVhftfYPpmeMzK0viKumPnT7xZo51F9x61GeT0a63bdxsC1iTj3v53YuCoUM4e1QOV9JlB18Au0itxjkllpwKePCF0eytaK7AzoqiIVv1u0gwf3dgdX0KkC5Q9qZxsVN2/itmpsFmjJYtGqpBS2vQM1/bLXhCHwbu8Bzw6OcHvSflqNQX+8xSO3vTqxGvARoTF+UQejfMlIHpveTIXP390sUJC4E2v33MSzUxcjct8ZZOYkY02/YhyOOqR3wZalCxub5XWkpt7VmuCUIlmd4OFWt3IzhM1c4WxzB5mXtBZgVaVj0xsTsOjAL4Zzl+Z0fTwSPWvnB966ApP1ZTKPPEfx5QFNPJmMAtkZGaiNwGLmE7/Dop1HzTuxKozQ6fXoddh1eyDWJp7D/3ZuxKrQmRjWohLq0GNzCp48xeeTLvdNnHMwG3R0k+DGxTTUdlmOS5evad5JfVw6NREj66QxcVL4YxjGvn4ALRfsROR4l9obFL65heY0bZ5UetNCjmHTJ6LVqcWYOO9LHD99Ers/CMI7u/JA2gHeILYImDgKDuc+xpvLfkBOOdPtrQSsmfwi+o8Mx6kS1sOw6ZjY6hQWT5yHL4+fxsndHyDonV3II/VEs9mwiRhqFYtlMyOReIe5SekVfBuyCNElvTDuVQ+IBFewb+lMzFpyGNncosCq+8j5owAV9s5wtmUqK7uIg5GR2Jukf32oGn45IRBDIiYU37unclarAeMw0ikBny34CmlFzGBFafgqbCm+/KUItnZCVF36HpEb9uCcVnDVRXFpB3acEeGF10aghY51LeA2bgIGSH7Ftq1nYf0yu2O1O44Vb2/BhUIFyq59h/fDdtd+YbltACaOcsC5j9/Esh9yWEgpcCthDSa/2B8jw0+BE980uLtdASpuZSHrHutEUYBfNs/C4u/uqe72yoQCXNm3FDNnLcFhtdJxP+cPFFTYw9mZu7Mrw8WDkYjcm9TAqlx9NMOwiUNhFbsMMyMToTb1twhZFI2SXuPwamdLnj4NQHdxcFkIoi+XQlFyCbveXYz9ggAEjWyhG1TcJwuCCtzKyoJ62L9g86zFUA9bvbpWIJZATMW4d4/zgscjs9CQT7d9+aFsTXcPYllINC6XKlByaRfeXbwfgoAgjGQOKJS7wMXuNk7sPoAs1m959hEsWfM9CjXzYNuAiRjlcA4fv7kMP6iDBAlrJuPF/iMRzoLE7on7qQYef+STW4UhHzHCL+rRmGsa4nHpzWR4/N1DBMGVfVg6cxaWHM5mcnKum4M/Cipg7+wMLh3Xo9kwTBxqhdhlMxGZeIdZrhRXvg3BougS9Br3Kjz0vUFlNQDjRjoh4bMF+CqtiE1mipD2VRiWfvkLimybGc5dmib08gj0rJsf+OqKkFdfxtQRDiq7g6z0NKSl1b4uZuSg6DHkKKPiyWQIdw8uQ0j0ZZQqSnBp17tYvF+AgKCRdWojf63m3t0WVNxCVtY9NpFSoOCXzZi1+DvcYxrmQo83T/H4ZGdLnjlHPezw8uQxsDu+Am9vuYBCRRmuffc+wnbfqJnoPR6dmoixdZInTgovbUTwuJXI6b8IS0ZYI6vGJ9ORfU9oenxqnvV9wpRQypfTqV87OUlETai170SaNdqdJN3fY8fUCyJkbV6nI1oLumoXtzEUtyl+2TBqZy0koVhKEksBSdsMotDYPHa1mpKUL2l6v3Ykl4ioSWtfmjhrNLlLutN759QPQ9+MXUQvOstIYCElK4klSVv70+yYq6pFZtwKw8ztU8lTbkEW0qZkIxORyMGXZu7JUj94nb+ehrB2e6/4TXV2g/DK+YBOzGbjtpBQ0+7vUny5gu6cWk5DXWVkIbYimUhIMteh9OFP6iWYRV8OZ/rqQWHJelccMCop8b/dSdT8Ndp1R7NLhwL65v+ak2XrKfTdfQXdjltMg9tISSgSk0jUjHoFj6JuVrUPrytux9OyYe3IWigksVRClgIptRkUSrF5nPTcg+8yajn1kObBdqLyn94lD1lvWvFb9dPk92jLMJnm4XgFFcQuoJ72lkwX1tREKiZ7rwm0bH4AyeUjaCtrszJzO031lJMFs0lTGxmTyYF8Z+6hLLXSaf0QCYl6r6Ca5vVR51sduJXusYteJGeZgNnSitlASq39Z1PMVY2lDfbZAKqH8u2o58v+1FIsIjGzk6R1f5p/KFdtV53FbQUUu6An2VsyHVo3IanYnrwmLKP5AXKSj9hKKlU+OEGz3SVkIWlK3d+Nfzwy8/i0YVs3jCou7XrSy/4tmR6YHwkl1Lr/fDqUW31dOaWuH03tZEKyZGORWrnSsIUz6Hnraj9jfhi/jIa1syahUExSFosCaRsaFBqr1g13/BH7KVUmUai3jLxDkzQ79GNYzzxy8/oIj19UcgvVZNTm9SNUkwYbc40B+GzO2VbWciodqlUcJYV6k8w7VLNdH32L2+rm8rrf6sDn78wQtH2qJ8ktLEja1IblRRE5+M6kPQYcXnEzlha96EwyAbvGio1N2pr8Z8dQdZP6UNw5RcuHupLMQkxWLD6EMlca+uFPdJeNgy93GVoU9NB6rpcfeOoKj77464h6cRubmHC3pzovgXw8RXMLpB95juLLA6bWG7UN7Hq+TP4tWd5gMSiUtKb+8w+ROjXpfqsDn04VBbG0oKc9WTLZrJtISWzvRROWzacAuZxGbOXOMSJPGfRJnjmHPpjMcYsHUxupUDU+UbNeFDyqG1lVf6sDr07rw7e4TcdPy3+idz1kqnlQjQW2DCNZ9TyNLwdqL25jNBwnlapFc2I9/ghIaNiWO7zxWRcB9w9r4AmiRF5qAm7YeuKZttWPbZfj+MxOGJr6Nh7Ezdbs40dRmIXk1GwUS1qjq2d72GtWJSjzUpFwwxaez7SteTC8/PhMdBqaircvHcdsZ829RtUdZCZdRB6c0MmzA5pprq9GWZyDtJQruCd0gLtXZ7SQag6wMeRvGI1/YwP2/78Wmn0N05CcKpRFyDp/AX8oW8Ozh5v6HQwm15WkNOQqHNHJ2wMOdeR6pJTlIf1CJkocuuLZdnI9HwEoUJiVjNTsYkhad4Vne/vaxR+NQFl0DRcuXEOZvAO8urWClWZ/Dcpi5KSl4Aq7i3Nw90LnWqVDmb8Bo/8NbNj7/+rcsfNTdScTSRfzAKdO8OzQTHcMBvrUS8FGvNR2EVrvycQn3S4h+YYE7by6wKnBy5QounYBF66VQd7BC91a1Rs100sWzl/4A8rWnnjOTf2uyCOVWUPDPs1huq0LNr6EtotaY0/mJ+h2KRk3JO3g1cUJdaWpuHUJ5y/dRdOO3ujSQs9KTUUhspJTkV0sQeuunmivEySMJ+ynNfDpuSG5jfIRfr+oT2OuMcRj0lsjMOjvbNzFOWlIuXIPQgd3eHVuUc/H6lOFO5lJUDfpiQ51E7xe2DVXkpCWq4BjJ294aCVf3txlkIfTs778YLCuNEpfpvPIcxRfHjCaAmx8qS0Wtd6DzE+64VLyDUjaeaFLw0laBV+tvnbhAq6VydHBqxv0hh5vnjLsk4bzs37K8tJxIbMEDl2fRTu5nsL4yHRqIibXSY7Gx4lJ8ama/j5RKunX971I4jaRtmdyt45VdPvnNfSyk5SeWXhOfcpDUvnr++QlcaOJ2zNJ1cPtn2nNy04kfWYhqd7wfVgenKZFo/5N32Q3cNtk5jHwgE4vGkX//iZbfbf4NOHuVGUtaWrtWzT/WOq/W2VGhdlHzJh5itR/h9jME+ZPnANNfN/sUWAJr5kr8I7LCUxxl8OqiTWc+nyAa/1XYdO8HppzHg5Lr5lY8Y4LTkxxh9yqCayd+uCDa/2xatM89NB+orqxSHsidE8kxrV9Cur7xyJFz9A9iBzXVs9d9BNGIIDQQsj+Z8wz6X9vBAIhLIQCTiVmtDH7iBkzTxGWk4QWELL4M0fgU+JPnAOfwqMO1VThbtZF/JZXCRvXzujU4mE/sqtP1d0sXPwtD5U2rujcqYWJH02ZMWPGjBkzZsyY+TvxFCe+ZsyYMWPGjBkzZsw8Ocyf1ZsxY8aMGTNmzJj5R2Ce+JoxY8aMGTNmzJj5R2Ce+JoxY8aMGTNmzJj5R/CPmfgqru7HsrlrcaLA8K/V/Gkoz0ZKegH+ItL+aXm6dlfg6v5lmLv2hGb7ISk8hYi5H2DPZYVmx8NReCoCcz/Yo/q79MwGzF24Q/X3o6cUZzbMxcIdaZptMybzsLZXXMX+ZXOx9kSBZodhtH3jqfAXyX/l2SlI/6vUlMfAU/UTE336z8CTrkcm2+cpxV3VxW8Q+u4qHKn5qbvHyz9n4psbj68ionHu3l9gLR8L6C9G+mDSjmzzxPchebp2VyA3/itERJ/TbD8cyuIkxERsxYnr3E+XPixKFCfFIGKrelJekf0zvj96QfX3o6cC2T9/j6MX8jTbZkzloW2vyEX8VxGIPndPs8MQur7xxPmL5D/F1S8w0mcSdmT/U7P00/YTU3z6z8GTrUcm2ucpxl3V1Vhs/OwbJNwyT3z/uVAx8m8V/6mTvpm/F/LXNiP17IearUeNHK9tTsXZDwdqts2YMcBfJP9RcT5uFZuztJm/Cf+gecdTmfgW7n0LfuOXY/OioXC3k0Aid4PftEicK+SOKpG/azr6Dv8QiRWq0xlVSP54NPpO/Vqzzc7Ki8PKQF+0tRHDUuqATkPm4Jv0Ms1RoDR1G2a94A57qRi27QdhwbF81Y87V2P4+kLsfcsPE1dtx4qxz8DJSgSJvQcC5h9AtrGfNCrzELcyEL5tbSC2lMKh0xDM+SYdNRIWnsXnwX3R0cEaYrEtnH3GIjz2JpTKXERNn4SNGeXI3DoRfYO3IEvBdHJyNYL7ecDRWgQL1l4z94F4Myod5Vxbd/Zghl8gFiwcg8721rD3nocTpapeDPLQOqjKxuElr8HXRQ6JSAaHrq/g/YPZUB1W5uPk6mD083CEtciCtd8M7gPfRFS6SuIGZC5F6tczMdDdHlJxE7TpPQ0Rq6bj+bGfqq/hfMOQHhh8dkfFVRwIHQXvVk0gspTBsXMA5uy4iGp1FZ79HMF9O8LBWgyxrTN8xoYj9qaxqYDJv20WXlDJb4v2gxbgWL7unT2f35qCMv8kVgf3g4ejNUQWlpA2c8fAN6NQrWJT4GKyz+Cw6g285TcRK7aGYWTX5mws1swWbzA5UxH1hh9cmjLd2Llj6NJ43FWpRu0r45dvxqKh7rCTSCB388O0yHPsSPXxPhgcFq/a4uyYF7cSgb5tYSNmcjt0wpA530ClBmUOtk3rBR8fnzqvXgjekqW6ls8HeClNxdczB8LdXgpxkzboPS0Cq6Y/j7GfpqqP88SuKn9NXIXtK8biGScriCT28AiYjwM1gWFgfBz6fJ9NogzGi6mwMW6b9YJ6jLbtMWjBMei4Il9+MoE7e2bAL3ABFo7pDHtre3jP495h4tEB84mznwejb0cHWItZrDr7YGx4LG5W6ct/rDVDvs5yza7pfTH8w0TUloxkfDy6L6Z+/YdqU5+MfPFjyM7K3ChMn7QRGeWZ2Dqxb41vGh4zPxVXDyB0lDdaNRHBUuaIzgFzsOOiEclcg8H8xWNz/XY0BUOxeQ8H3+0P/zkHcFdzNkfx/+ZjYP93cIDt5M1nfD7NrH/1QChGebdCE5ElZI6dETBnB6rV1yg/bahOaw7zwVuPHioO+fJuXQzYR++8g98fH65emoZhWRrIJw2Jwn2P75OG+5lTiVhKzZ+ZSl8cO00ndyygAU4icv7XPiogBV3/dADJXGfQD2WaC6icfnzHnWR9V6o3K1Nopb+c7Hq8TusOJ9D509/S0hFuZNVhOh2+y44XH6e33SXU/Pn/0NdxZyguKoT6O1mSQNSXVmZW8V+v+rlDKUmbuNELC7ZRXGICHQgPoFailjR5fxF3Ag+VlLLSn+R2Pej1dYcp4fxp+nbpCHKz6kDTVR1U0s//7U7WnYIp8vh5Sv31CK0e5UziNtPocHERJe8Lp1GuImo7YhFF7kuiu7d3U6CTlDqO+5SOJKZQSsIB+miUK4nko2hbAZHi5joaJBaSldfrtO3UKYreHU/5fL/r+9A6KKfzS3ypia03TVt/jBLPHafIKWxM8iEU8XsV3d4dSE7SjjTu0yOUmJJCCQc+Uo1JPmobs7F+mX8/+ha5S5rT8//5ik4kxNOu0ABqy86x7DyPE4iJZFgPvHanEjoV0p2sbJ+hqZ8dotMJsbRlTl9yELvSlH35pKj8mf7b3Zo6BUfS8fOp9OuR1TTKWUxtph2mYpUAhik+/rZG/q8p7kwcRYX0JydLAYmM9VseFNc/pQEyV5qhCozbtDvQiaQdx9GnRxIpJYXZ56NR5CqS0yiVMviojTMOLialjsGqv1U/NSkRkcxlCIXFnKbz8etorIuIbJo503P/3kCxPydQzLw+JJf2phUZnF45X5GQWNqcnpn6BR07fZJ2LBhATiJn+tc+Tha1LzkG71c1X5mykvzldtTj9XV0OOE8nf52KY1ws6IO0w/TXbpPyQc2U2RkpOb1BYUOdyaRtTeFnLzPmuLxAV6KKPYtd5I0f57+89UJSojfRaEBbUkstKTO8xLYcb7Y1ehK2oTcXlhA2+ISmW+HU0ArEbWcbMz49Pt+xk6eeNGxPR/FdPxtzRi/jqMzcVEU0t+JLAUi6rsykx3nG6OubxhGQTfXDWL6syKv17fRqVPRtDs+n1cHlT//l7pbd6LgyON0PvVXOrJ6FDmL29C0wzfr5z8+X1dcp08HyMh1xg9UWzJ+pHfcZZrx6pMxgzd+DNq5KJn2hXPnt6URiyJpX9Jd3jHzUnKKQrpbkS2ri58dOk0JsVtoTl8HErtOoX28CZ1hMH/x21yfHQ1Tx08MxiZr/8sRZGfH/r6tPp2YVnaPdyT5sE10Q8GXz/h8mlNfCHW3smU56DM6dDqBYrfMob4OYnKdso/Vw8b4qaE6rerSMLz1iD/XGIYv75piHz3zDj5/fMh6qc2Dg1PISfwsLbpQqdlTBx5ZGs4n+iV5ehNfSU9alsYZn0NBuZuGkdzmFdqcV8k78S2LfYNcpL1ouaroargdRWPsbWj41nwqiplIDjJ/Wq1yLg4F5Wx4iWzEaofju77GofzX0NXqfFMeR7PaS+m58IuaHQYoi6U3XKTUa3kG1fZwm6LG2JPN8K2UTw8oJtCemvqF06/31B1UZR2lDRH7KZWbU1YmU1gPGXm+/ysLDSZ93lnasXYrndRKfuXxs6mj9DkKv1ilLqQSKQ2KyGEjNY6H1oHqbwl5vneOWUdD8Q8UPmEqfX62lPLO7qC1W09qTcDLKX52R5I+F05MZD0y36VvxjKdDI6gazXXFNAulhhFmokvnx747E5F0TS+mYx6L0+vtYsil7YMl5PVwM/oWkkMBdo3Jb/wX0ltlirKOrqBIvansukSH0UUM9GBZP6rqbb7HNrwkg2JjfRbPnQmP4o8OrtjLW09ySbsmuNMGTS7o9o+Wj00AN/EV6wqKOp2yujYdDb5dJlOxzQ/u67I/ZxekLakqQe5HWpfkfRcRrUhnUubhsnJ5pXNlMeKWu3Et4xi33Ahaa/lpKuGMWRvM5x01aCg/COzycumDY3ekmlULPBy9xsay2w8OOJard4KdtF4R5F64ssbu2pdScT+tKY2MChuVnuVbxszvvq+r+CPF1MmvkUxNNFBRv6rq+3Hrs/ZQC/ZqG3KP0bTJ74S6SCKyKkWnl8HD2ICyb6pH4X/ek+tg6osOrohgvZzCbBO/uP1dSMnvjoyGhE/hu3MiRlGPWSe9P6vnJSm+LV+iqLHUzNZb1qeXtuAIncLDZdb0cDPtPy1IR4YyF9G2Ly+HfnQ9RPe2Lyzi8Y5ymn4lpvqsRRsp1ebNadXt7OZMJ89+Hya5d/o8c1I1ns51aqPzSu2DCe51UD67FplI/yUp07zwFuPjMg1huHLuybap07c8fqjIX9TnW08fBNfPllKDOUTPTy1Z3wt3PzRv4OFZksIx16+6FCRgdTLfIs3FMhNSsGNqgysH+2Fbt26qV/9wnCq9AEup2Xgt9R0FLX2hk9brfb79EJHS+5vvuszNR+XCSBv1wFO1RoSyiFvKkBVRc2HaQ2iyE1Cyo0qZKwfDa/q9rv1Q9ipUjy4nIbMCikGTAqC8y8L4dOqDbwGB2H+3iL4jh2Krk00jWghdPTFa0E+KIxZjpAZkzB6kA+6jIhApkIJpVLzwYnADi4u9kY+u/LwOlDeScPFHFs869sVYs1hWA/Ee1Gb8KavDI6+ryHIpxAxy0MwY9JoDPLpghERmVAomczVn/Voy1z1G5LTS+HynC9a1QxCjt69ukKk2TKsh0pkGbQ76+L3FGSUtEVvv3aoPoM1Cv++XaC4lIyLFgMwKcgZvyz0Qas2XhgcNB97i3wxdmhX6DGLLlVZSE0vQmtvH9R274g+vTpC3b2xOjcS1rbva0HwKYzB8pAZmDR6EHy6jEBEpoLpQqn7cVpjENigvXtrjZ4EsGoig2VLF7TVGENoZQWZQIGq6k/32Zlu/v1RG9KO6OXbARUZqdAJaUUuklJuoCpjPUZ7aXTAXv3CTqH0wWWkZdZqofTCJwic9CUkb3+DLf9qr9KjUbFggKrfkpFe6oLnfFvVxoq8N3p1VQ+MP3ZVp0Egb4cOtYEBubwpBFXsoLHj04lX5qfGxIuRVGWlIr2oNbx92tb4udCxD3ppAsHYMZqCwM4FLvYafRihA+mASQhy/gULfVqhjddgBM3fiyLfsRiqPwE+El/XkdHINhu0c11M8Gv9VOH3lAyUtO0Nv3Y12YmJ6Y++XRS4lHwRlZp9DSJtOH/JjPVrbR2ZCG9s2r2MwKHWOLnnO+QxHed/txs/iF9i+5rx2qOSx6dZckdKRgna9vZDrfpYXPn3RRfFJSRfVGvPND8VmlSndanirUePJg6NzLsM03KnEf5owN941WMS/LJYmJJPGBoTPHkEUhlk2vFlYclMSMwAmu06duAMU72rvJx5hE0PBM4NRudaPTCEaNqpPeggq8ZCS53BCaRSSATqv/muV18ngIWFzkFul3GUl7NJjA16BM5FsG4HEDbthPasA7shn+DM+Zewc3sMDh09jk3ztmPtqpFYHx+NKc6akzUoc9k+vyDsetAF/v490N1/Msa8cgbvhVzSnMEQWDAVGivgI9BBZRWbyjGbifT1qURu9BT4Be3Cgy7+8O/RHf6Tx+CVM+9BW2R9MhNzgIYey+HTQ5XCsN1RwSZq7KhI+wRujJZsB+tXQXYY+skZnH9pJ7bHHMLR45swb/tarBq5HvFsPFoxpwemD1X3Or1DKpXUqMw4nRuJMhfRU/wQtOsBuvj7o0d3f0we8wrOvBcCbRU3GoEIouo7jmoETFeaP+vDxiqTsZHUYmHJzqa69iyHWg2BmBvcWbc9YVN04oKDofwjGjNeDcWVQRtxYtHzsFXt5fcB4+DyTANeZkTscghYXOgerbEy//i4RKbj+0bGi7GwuxEFs4SuK0ohrU2AvGPknWTVgdNHbSgboQO7IfjkzHm8tHM7Yg4dxfFN87B97SqMXB+P6Emac6sx0td1SwZ3w6C7R0dGI9ts2M51Mc6vDVGhYDMVS5FuHmB+ok5PirolUQ92GNJA/jqxhN/marfUtqNp8MdmEwyeMAL2o/dgf85LsNh9Ek2HfYMXueDmswefT7PRqdWnq2cBm1dYcr6gUGvPVD+1czRQpw0XBP56ZGSuMYyxedcY++jC748N+xt/vTQNXlnshjacT6ZovdGloXG3do8ARXYGMoo1G4zi1FT8btEOHux2iJtsUUU5HtREegVu3rytMaQFWro5w6qkFLa9AxEUFKR+TRgC7/Ye8OzgCLeObpDcuIi0O7WmL790GddUd0B81xv7rmnDWLR0g7NVCUpteyOwuv2gCRji3R4enh1gjwIk7lyLPTefxdTFkdh3JhM5yWvQr/gwog7dZC0ItNKrEtej12HX7YFYm3gO/9u5EatCZ2JYi0rcZ8NrqH4b5uF1IGzmCmebO8i8pPWgf1U6Nr0xAYsO/ILodbtwe+BaJJ77H3ZuXIXQmcPQovI+l4Jqz9fGsiO6d5bh2rlErQfS7yMxMV1ThPn0YAkXg3ZnXbgwu1heR2rqXS0ZSpGc8hvQxhUu9xOxc+0e3Hx2KhZH7sOZzBwkr+mH4sNROMT3wL6lCzq6SXDjYhpquy/HpcvX2JSY49H6nfJ6NNbtuo2BaxNx7n87sXFVKGYOa4HKxjvFQ6JAdkYGakO6mOn5d1i086h5h0OFRUu4OVuhpNQWvQM1OmCvCUO80d7DEx24d2MKf0TY2NdxoOUC7IwcD5earPXwsWDZsTs6y67hXKKW3zK7J6arvYw3dvmMZMz46qK8bnq8GMDSpSPcJDdwMe1O7bXll3BZEwgPPUY+eHUAFCTuxNo9N/Hs1MWI3HcGmTnJWNOvGIejDrH4185/xvg6m5xaECrKH9RODitu4ubthjX3SOKH3QjW0Bi768DyF8sPltdTkapeMaqmNBnq9ORW88lXQygLGs5fR4Quj9fmzNOMiU2p3wSMbpWAfV9tQfSPzTFywgBYc1fz2IPPp7n86+ZsietsHqGrvhT8hjZwddOjPT6bye/y1GlD8NejRxOHRuZdo+yjHXf8/mhhwN9466VJ8MniwlK4oXyiOV+Lh3b3xkJ3D2JZSDQulypQcmkX3l28H4KAIIxsYQm5iwvsbp/A7gNZ3D0Zso8swZrvC2uSmm3ARIxyOIeP31yGH3LKme1vIWHNZLzYfyTCT5XA7mV2J2N3HCve3oILhQqUXfsO74ftRvV3I/Nd/9DYBmDiKAec+/hNLPshh41AgVsJazD5xf4YGX4KJUIBruxbipmzluBwNrdktQr3c/5AQYU9nJ3Z7a9ADImYUHzvnmrSxN3FCipuISvrHnNfBQp+2YxZi7/DPU47xi3/rMdD68BqAMaNdELCZwvwVVoRC5wipH0VhqVf/oIi22YQsdvqiltZyLrHlK4owC+bZ2Hxd/dY5Jc3sGJVjmHTJ6LVqcWYOO9LHD99Ers/CMI7u/JAmgLDpwc+u6PZMEwcaoXYZTMRmXiH6bYUV74NwaLoEvQa9yo6W17BvqUzMWvJYajNch85fxSgwt4ZzrZ8oWKHlyePgd3xFXh7ywUUKsrw/9t7E7ioqv///zXDrKAwQOACsiq4QiSSS+KSpiUft7IMF/xmn/5mZtbHtVI0Ea2PWVaaomElWYqUWi6fJEUsxbDYRQ0VSFBUEGKRbeb9P7PAMDDMnQEt+3WfPca4yzn3fd7bed+Ze2byvn0TK/dca0zUd9Xv1He/glrczM2FVsW/4JP5q6BVcRudol0Qbn8XiSWxF1GlrMSF3Quxar8AY2dMRCcD1dlh7PRJcDr7Hl6K/AFaNSRhw6zHMHxiBE6WXcC2sKl4p2A4wldPgE1uFrKytK/s/NL2x4IiBHOmd8XJVdOx+NNjOHViD96a8Rp2F5G2juGKXW0vJuAYn9EO1J9CWBovJrB/ArOetMexda8gOq0Myuo8fPvmSuzRJ8B2jpELLh0IIbi0D2vmzcfqQ/ns+upQK8DvxbVwcHODnZVh/uP0daEC7u72uHV8Dw7kst5q8nFk9QYcLmssg1tyF+JHIJFCQhUoLVVL2Ra7G+IYMh3jrOMROS8KySWsz6pL+HpJOGIrB2LqU76svDeNUGAif3V74h7bnDs/a5AEYdoUT5xavx4/dXsSoYOk2v1c9uDyaTgiZPo4WMdHYl5UMrTq+xpLwmNROXAqnvI1pj0Om93hmKc54JyP7kocmpt3zbBPs7qDyx/FpvxNPV/WX8DhqK3Ye7ZEfXluqBoludmN+V7zOnceBeVcsvSCyFQ+MTZ16571/VPRLKSxf5ieCO5CErGExEIpuQxfSgcLdQ9d12TSlsleJBeKSGYtI2uPEFo+9xGyaVgdT0q6lRhJIV42JBRKSCYVkUDmSqNWxFORpgt2PGEVjXaVkVDdv9iRBoZNor7WDaspudqrHxqXU5fZB0m3loeoLpVWBMgpYEWqbodplLcSKTLEi2yEQpLIpCQSyMh11AqK116A6nK+oNl+CrKyklFHWzmT0YmC5u2lXM2z23fo+AIfklpJqWO/hZRwLZ6WPexAIiarTQcZSRz8aVrkUhqrUNCEHUVUp14sI3elF46YsfClkfbrQFlyktaO8yC5lYSs5WISyj1o3Ns/0W3Wd3H8MnrYQURCiQ11kEnIwX8aRS4dSwrFBNrBLqBZ4NNC5krK+HQODfNSkFTcgVyCptP8yUwP/d7QHFUWm9YD65XD7qyP6/EU/pgbyQVWzLeYXWQuFLwgjq5onqmvo5wvZpOfwoqsZB3Jlo1J7BRE8/bmNll8YALlLUpYNZpcZUISS1hbx4EUNqkvWZvtt6YxXNxWTPHLHiYHEfMvmw4kkziQ/7RIWjpWQYoJO8zoj2Nxm7wLzT7YYPka+mmhL8kHraPfGhRRGk0hcmcK29+wuE1G9g8/QcFdmN7Z2IVSFxq+9CBpQ1p7vOFbHdR6SowMIS8bIfMPGUlFApK5jqIV8cyX1YvmJJp73BYvaUi0GT5gBpUZ9OmcYeSlkJK4gwsFTZ9Pk32k1O+Ns5rDXLGr1pW8y2xqVA/zm9QVASQPWKHdNDE+dQ8tfd+MeLHoWx3UIiTQqtGuJBOKWY4Vk+PAMJrU17pxBbzpMVq+uE3u+gIZhDKHDlgCpC9m+5HCisVhR1uSMxmdgubRXk0CNMx/iXe4fb0mcwtN9pKTUMTmC5k1eYQsp7mP2BgsbjOQ0Yz44bTzneO0gPmNlbQj9VuYyD1mTpic8eH0mJucBGxesGb5QeYSTAvirmgX+XFiOn9x2dyoHU3SbPGUmbFZfy6SHpaKqX94mn5cZtiDy6dZYFF8+GPkJhew8Vsz/cvIJXgBxWmSe9v81PQ8zYUZ8xFHrjENV9611D7N4q6Gyx855svyT2m82s4r0zVnm0KzuE1oJO8LFPRsbCU7g0MWk/mkJQL1P+wCfyrF2x5Ht3AX7M15H30vpOOa1Av+vTtDpjuuhd39XUjBhdsd0SOgNzrpbgwNUJYhNz0T+RVSuPTxg7dD4zIrLdVFyE7LQaVTHzzkpWj59jZX+3ajRFluOjLzKyB16QM/bwf9QjA1qgoUZGXgUqkQTj7+6NWpiQZU5chNScPvKhf49fdk96blyEtLQ161At39+6Krte689tJuHdSj5FIqsgqVcO4ZAF8nfXtVeR7S0vJQregO/75dYVpkFYoyk3DNzg8Pdmt4IL0Gx+b1xLjMV3AnYYF2F9MLpx647K6WOScV54qAzj390N3RcMyqigJkZVxCqdAJPv690NQs5lBdlI20nEo49XkIXgojt5t3ze9UKM9LQ1peNRTd/dH3rjmFpRRj2+PdEO6yFznv98WF9GuQevmjd2fTilOW5SI9Mx8VUhf08fOG2WowxwdaQ1WEzKRrsPN7EHo3O4Z5Pcch85ULSFjQ8IA9R+yagaXjsyxezKEaRdlpyKl0Qp+HvNDSFds/Ri5M60CFioIsZFwqhdDJB/69OunngOb5T2iGr9fexIWUC7jdsQcCeneCsSnDkPbHj6o8Fylpv0Pl4ocBntp3Advs1w3UlyAn9RyK0Bk9/bqjWXrixHT+usc2b09smmUPLp9Wqy8HqdrkDr/ujmaNz6TNTM3T5sA5H7XVJm3Iu1z2aRF3bB+HP7Z3vrQIk7KYyCfN+GsL38vb8cS9VBLP34h6pCwPxKAv+iH66FaEektRnPwBZo5/HYX//hEpb/XXncdz/6FPwJe3P9FqsrkvqE/B8sBB+KJfNI5uDYW3tBjJH8zE+NcL8e8fk/FWf4MH43h4eHjuU/5Gefc+w8j90r1HIBDCSijQPlPHw6NBBP956/Ca+3E856OAdQcbdB78FvKGr8f2xXzRe3/DYlloBSEL6Ps+pEX+mLfuNbgffw4+Cmt0sOmMwW/lYfj67VjMF708PDx/G/5Gefc+4y95x5eHp3XqcTv3HH4rqoOtRy/07GT5x488PJzU30buud9QVGcLj149wbsZDw8Pzz8DvvDl4eHh4eHh4eH5R/CXPOrAw8PDw8PDw8PD82fDF748PDw8PDw8PDz/CPjCl4eHh4eHh4eH5x8BX/jy8PDw8PDw8PD8I/jbFL5Vp7di0fJduq2/LzX5GcgubvjNQsup+OljLAr/Ctnq3xRsCxU/4eNF4fiqzR3cP2h8oj264GmFMpzctAhv7b2o2/5no7yyH5GLNuJ4O+KWpy1U4fTWRVi+K0u3/ffk7vvP/R6fNcjPyIZ2uFw2VOLK/kgs2nhct205FutXeQX7Ixdh4/Fi3Y67S9nJTVj01l7dlhnU5CMjuxj3U3Zpb51yv/O3KXxr83/G4e/TdFt/T5RXPsbEwJnYld9Wh1KhMv1rfLQtHlfaWuzV5OHM4aNIv6HU7fj7cidzHza1Rxc8xlFVIDVuE3Ycv6rb8c9GWZiIzzbF4mwp/wU4fy61yP/5ML5PK9Jt/z256/5zX8cnK2Q/nojAmbugnea4bKhEYeJn2BR7VrdtORbrV1mIxM82IfZsqW7H3USFitQ4bNphZiHPivCPJwZi5q78+6bwbX+dcv/ztyl8Fc98gswzb+u2/p5QxQ3crPiLnckxFJ9mnkLkMO4f9OTh4eH561DgmU8ycebtkbptnvsfQsWNm9BPc7wNTUIVuHGz4r56t/e+qFPuMX9J4Vv2zcsY+uxafBI+Dj72UkgVnhj6fBTOlmmPl+ydi6Ghy7D8yV5wsHFAwOLjmjaDR6/UHNe0n74OO1ZORJ8HZJDYuGLQi18iOzMGLw51R0eJBPY+47Am8bbmfDWqogS8ExqEbrYSiGRO6DnmVXyZXa07WoK9c4cidNlyPNnLATYOAVh8vAq1Vw5gxaQAdO0ghkjujF5jX8Wuc1W6NkyOMx8hbEgPONlIILFzQ+CUCMRfN+4wqsIYzJm5DedrcrBj+hCERecaHSdUN3Di3TAM83WGjdiKyeoIn5EvISa7RtcTg0rwU0QIfO3ZdW098AjTXUq57hhX+5K9mDt4LFb/VKvZVN04gXfDhsHX2QZiKxFkjj4Y+VIMtKeX4ZuXh2L6+i+wbsqD6GwthtTBF2OXHkC+iTeMueyrfhfgyoEVmBTQFR3EIside2Hsq7vQqFq1jENDsWz5k+jlYAOHgMVg5jAO3UbS20/Bv5McEqkDfEcvxNe5euFM2tDodVS4ceJdhA3zhbONGFYiGRx9RuKlmGxoNViGMx+FYUgPJ9gwP7NzC8SUiHi0Ynag8hjeHDUYz33W9I6+FmfWhmDoi7t1200o+wYvD30Waz8Jxzgfe0ilCngOfR5Rjcrjks+YL7PkarINFxz2KjuDj8KGoIeTDSQSO7gFTkFE/PVWkjmH/lRFSHgnFEHdbCFhcjr1HINXv8xGQ6SqPzrN/HweRvo4QCbpANdBz2PT+jl4ZMoH7BjTze45GDL+bSRr3ZtRj/T3JmPI7M81W9rcsR5frJuCBztbQ6z2mbFLcaCJQ1dl7sT8R33gIGPyeY/CsqM32HSu527mBbXMRQnvIDSoG2wlLP6cemLMqyyXNQzYQt1yxiuXfuvzcWj1MwhyV0AqlsOpz7/w5nf50DbnkJXDtqZzjTG/vcbGMxijVyZq2nP6YQtM+Ypant2YM2Q83tY7C+rT38PkIbPx+e9qodsSa1Wc/mO5HlodoBZz5gwD6pF/aDWeCXKHQiqG3KkP/vXmdzof4c5/rfuYCoUxczBz23nU5OzA9CFhiM4taWZDZpOd8/GoxiZ28B61DEdvNNGOGWPh0m8LqjKxc/6j8HFgtYKdN0YtO4qml+TOOYZwz29NMaFPVSFi5szEtvM1yNkxHUPCoqGeuu5mfjFaY5iII2N1CnfcWTInav3n2bWfIHycD+ylUig8h+L5qLPsiBbT8WF8TFxtWqD+AYs/m1tRY0kqkdEDD86mj4+eohO7ltGIzmJy+799VExKur55FEmE1uT/wk46eTKW9iTe0LSROYfp24vl5D5mJcWdSqHEzVPIXWxLjm4D6N9b4+nnpDhaPFhBskHrNOdTXQa9E6wg+/4v0OZDSZRy6mtaM8GTrLvPoUO32XHlddo8SkJCa396YedJOhm7hxJzT9CSftZkx2T88OApSoqPpleHOJHE4znad0PJ+vyZXu9nQz3DouhYSib9euRdmuQmIdfnD1GF9qqGlKfTvohJ5CHuRhPCo2hfarHxce4Jpc6yHjT1gyOUnJFBSQf+S5M8xKSYtFOvG4EV2QfOpW3xpylRrbtOYvJ4/jsqYZcx3V491M00StaFZh+8oz6b9oR2JlmPqfTBkWTKyEiiA/9Vy6igSTvVZ9+iqLEyknXwpEeX7aSEZHY8Yix1FXehWfvL2XHjmLYvUeXJJdTP2o4enP0hHTyVRPHRr9IQJwl5PLeP1KrVyCgRkrX/C7Tz5EmK3ZOo2d8czXWYLjoNX0wxJ1Lo7OH1NKGbmDrN3Kc9ofKkSRsavc6NPRTaWUY9pn5AR5IzKCPpAP13kgeJFZNIrZK6n1+nfjY9KSzqGKVk/kpH3p1EbhJXev6QUaszSmj3Mw+QfPDbdL5et6v6OL3s3YFGvH9Zt6MJt6JorFRCsgcepNkfH6VTJ3bRshGdSez2f7RPYxLT8hn15fNfmW7THOVV+mCEnDzm/qDZNG2vOvr59X5k0zOMoo6lUOavR+jdSW4kcX2ejKnEtP7qKOOdYFLY96cXNh+ipJRT9PWaCeRp3Z3maAKVhVH8y+QjfYAe+c9ndDwpkXavGEvdmA1FvRazo0q6+sEIknvMpR+qNaczaujH13xIPuQdzZYmj8g6kOejy2hnQjKLjwga21VMXWbt1xynimP0io+UHnjkP/R5wmlKiFlCwzuLSCAeQu/kMANy+JSleaEu4x0KVthT/xc206GkFDr19Rqa4GlN3eccottMH5bolo2OI1659FtDKauDqINdAD2/5Sglnz1GUc+x6yvG0KbL9RyyctmWI9cY89sbNzTjcQ7T2oYrbzTHtK+o3fwDGiH3oLl6Z6GaH18jH7nO1m2JtSvxpv2nTXpoNrhm8cmV85tTk7KagjrYUcDzW+ho8lk6FvUcs5uCxmxi+YhrzBw+Vp6+jyLU53ebQOFR+yj1tvb8BhtWHHtFZ5PPKeF0AsUsGU6dRQISN8Qn11i44rMFFXTsFR+SPvAI/efzBDqdEENLhncmkUBMQ97JYce5c05zTM9v+hykPdmUPsspfV+EZnzdJoRT1L5Uun1X84vxWspkHJU1r1Nuc8adZXOi2h+kJJE9wPr7mI6eOkG7lo2gzmI3+j/tBMdRkxgb03mONi356wpf6cMUmdXgqEoq3B5CCtt/0SdFdZqBSWWjaFOBPuA1E1bTwlfSxNGrj9IcNzG5zzlK6nJO099Hj5Ksy2zNVnX8i+QuG0hrGysPxq0YetLBlsbvuMFOVycbKclGbaKGS5bHPkuO8kG0NlvfRlkYTeMV1jTywzxS3omjUIeONDTiVyrVtKmn3O+30qb9mdRaSViXvpL6y/3ozV/r2JbWgIbjVFLRmV20cceJJom8hhIX9CDZgAg6V9/Q5hH67wW97gq2Pk62LJA+L+Zqrx5qk8JXWURndm2kHSdusF501CTSgh4yGhBxjo1I56TBG+hKwwk1CTTfW3u8NUzbt4xin3Uk+aC1pFctOx49nhTWI+nDPF1BKpXRqE0FermMoPUDpovGhFdDpxb6kixwtWaLy4Z1Rq6jLDpDuzbuoBNNJpuaxAXUQzaAIpgC78SFkkPHoRTxa6m2TX0ufb91E+3PbP1G4I99YdRF2p9Wpqvtzibw7+eQu91Y2nLVyOg0ha+UHo7MYvrXoizcTiEKW/rXJ0VUxyGfMV/mGlMLDCbWcg57VVJcqAN1HBpBv2oDganke9q6aT8ZU4lJ/VXH04vuMhq49nzj2JlCKOZJB7Idv4NusPLqyynsWqM3EXMTHcW0+1lnEltQ+EolwbRB79CUMN9bEx9qyuOmk5M8mN5t9CldfOnyzd3NC9UU/6I7yQau1d8UMW7FPEkOtuNpx407FulWrSuT8cqlX825UvJ74yzTio6KHyhi2mz66EwZh6wctuXKNUb8VjuehqKJyw8bG+ng8hXWmqPw5YwbY/MGh/+0TQ/NMIhP7pxviNbfpX5v0Fm9kemHiGk0+6MzZuQKrjmhjtJX9ie535ukmeaa2TBuuhPJg98lvXoKaOvjtiTRxCf3WDj125zyOJruJKfgd3P0+bRgKz1uK9EWvpw5pyWm57c6g8KXU5916bSyv5z83vyVaY6Je1fzi7EagzuODOsU7vMtmxO1/iN9OJL06iuk7SEKsv3XJ1RUx1WTGBkTZx3Tkr/sGV8rz2AM726l2xLCeWAQuteeR+ZF7Uolgb073B1aF09g6w0fF117gTU6yEXo4t4NYs0OIayt5RAo1X0pUZiagWv157Flsj/69u2rfQ1biZNVd3AxKwfaD7oEsHd3h/aS9biccR6V3QZhqFeDjKxX52AM6a3EhfRzqJONwMwZbvhleSC6uvpj9Iyl+KY8CFPG9UEH3fnmYDhOpoegZzAjsAxxa5dg7szJGBXYGxM25UCpUkGl+3jGyn0ghng00d3DA+BdnY0Mpjtz2jcidEbQMzMQWBaHtUvmYubkUQjsPQGbcpRQsfO1pwug8OqOzo0iKqDoKEB9rf7jQWO0at9zvyHjfCW6DRoKvWrZ8eAh6K28gPRzddpdAnu4uzuwI6YRKJr4ATvb1rYDBDXV7G8zbKje0ew6QucgPDMjEGVxa7Fk7kxMHhWI3hM2IUfJ9McUKBsxEzPcfsHywK5w9R+NGUu/QXnQFIzr07rVO46eihDnDOz9MoVJVYmE3d/hj+HPYGKXVkZn5Yng4d3ROCrngQjqXovzmReh4pBPS1Nf5h6TSeovc9jLCiNmzoDbL8sR2NUV/qNnYOk35QiaMg7GVGJKf8rCVGRcq8f5LZPh3xCnfYdh5ckq3LmYhZyq35CeXQX3AUHo2qg6BQYN7KOLe/MQKLzQXe/QUCg6QlCv9ud65GZmo9wlAIHd9D7lPHggeojUf9/lvKAsRGrGNdSf34LJ/g3j7YthK0+i6s5FZOUILdKtltbjlUu/F69n4VyBHR4K6gOJrjlsRuKNmO14qX8xh6y1pmPDzFzT1G8N4PRDXd5ooL79vmJe3BjOG6b9R73ZTj20gPVvSc5XlSDrXAHsHgpCH72RMfKNGGx/KcjsMbdlTkB9LjKzy+ESEAi9epwxeGAPaNXDNRYz9NuM+txMZJe7ICCwW5N8OhgDdQ04c04rQ+KqXxqwLPfem7rDoMawOI64z7d8TrSCZ/Bw6NXnjIFB3VF7PhMXVebER7MxmRVThpgVWvcCgUwOedOrW4mYOogJqt0UWFlBJND+bQyBWNwigQkEemdpSk0N817b/ghdtARLljS8VmB91A6sfdpbF3QCWDEZGi5Zqy6aRWLdMR2sfxHboVIpmaT2GPP+aaQc3oKFIZ6oOL0di58KQsCUaFzWPy7IieE4VSiMfQ6BgU/jrbhUlEi9EDxrFcKnuBkaSiyBuOkOJpR6k8jM9g2oChH7XCACn34LcaklkHoFY9aqcExxa3q2Wi/N9GrCLg20bl82AWtUa5ipBOy4iI1fpdS5KdO1lSkH0KFtZxxuG2q3m15HVRiL5wID8fRbcUgtkcIreBZWhU9Bo0rsx+D90yk4vGUhQjwrcHr7YjwVFIAp0Zd1z0EawXoEQid2w8W4r5BUEo89h2sweup4dDJqFIZABrmh8iBiJiB18ueST4OhL5vXpjW47WU/5n2cTjmMLQtD4FlxGtsXP4WggCmINhYIpvRXU8OuZov+oYuaxOkSrFgfhR1rn4a3TgSNHrR/GqdZplNPME13qWPO0KP19q9XMpmFhj4lkMkg1Z1yd/NCDbSpKRSLmox3yYr1iNqxFk+zAVukWw0m4pVLv6ywULKRWYn1+tDDLatJ25qda/R+a4iZeaMZnL7S0llYHtX92YZY4/If83Nua3pojoU5n93u1zMRRVZio/2bP2bL5wR1YadVj4F2IJNJdc25x8Kp3+awwSpZa8NLyiBraGBmzmkOV/3SgKW5917UHYY1hqVxZMb5Fs+JzOZyuYF/WmknODZGc+Kj2ZjMbNOU1o/cY5T553G+QrfBqMjMxGUrL/i2duvWZqzQxdMN1pVVsBsUihkzZmhf08YgwNsXft2NvasogjtrI7qaiczbTTy5Kh0ZvwGuHp6wKk7GVxv34vpDs7Eqah9O5xQgfcMwVByKwcHWFrIIWotOHaqriN28G7dGbkTy2f/hq23rsWJeCDrV/aF2MfafFmXBRfzWRHflGRnIFXnCx/O6We0bUF2NxebdtzByYzLO/u8rbFu/AvNCOqHuD3Zm8wi2kFbt28sLnm4iXGXbhqrNwG9whYdn89uZtsJtw5ZXUuFq7GbsvjUSG5PP4n9fbcP6FfMQ0qkOWpWoUJz8FTbuvY6HZq9C1L7TyClIx4ZhFTgUc7CVh/nVSDH42cnwyjuImPUxOILH8ew4B90xIyjzcd5Qeci8bAUvX29cNymf7nwDuMakO601RO6m7eX+B5K/2oi91x/C7FVR2Hc6BwXpGzCs4hBiDl7Xnd2Aaf3d7OQJN+tKVNkNQmhDnM6YhjEB3vD16w4HSQ/06yVH3tnkJrpm10/O1r57z1BPyFRbgzuN+bsW16/fauH7xmE+08MT0mvnkFWib1Fz4SLyWPK/63nBqgvTrTUqq+wwKLRhvDMwbUwAvH390F1x2wLdcmPVxbR+H3DygJttCXIuNFk8V5+N7S9OQ/hhgWlZmTubsm1hfjtzDZcfNs8bIm5fYc4CK6pFjd5ZUHv9Om5pzm9L3HD5D2t3t3OumXNGI0JHeLjZoiTnQhO91CN7+4uYFn6gfblCR6vTHLNhD08prp3Lgl49NbhwMY9JwOAcC7d+myNy7wFP6TWcyyrR66LmAi7qGnDFRGvvuptXv5jjQ4Im9wx3Ob8Yw5w4ampAzvOt2jAnKpF//jz06qtAZuZlWHn5wvu65fHRlpj6ywpfuv0dIpfE4mKVEpUXdmPhqv0QjJ2Bia2+DdZ27MZOxySns3jvpUj8UFDD9H4TSRtm4bHhExFxslJ3liGOIdMxzjoekfOikFzCgqTqEr5eEo7YyoGY+pQvxIJL2LdmHuavPoR89crB+j9Q8Hsxah3c4GZnfAwCiRQSqkBpaStRyhxfzG5jam/mIreUGUxZjF8+mY9V35ayYK1pXGVKpQex9vV9yK1WoeJcDF5b9R3ET8zA+AckZrVvRH1nKajFzdxcaE//BZ/MXwXt6S3OtojW7euEkOnjYB0fiXlRydCq9mssCY9F5cCpeMq32TsJ7YDLhsaupL6zFdTeRG5uKUtbShT/8gnmr/oWpep3vKqFEFzahzXz5mP1oXzNKuf6Pwrwe3EtHNzc0IrZNUgGPIunel5G9PpvIXliKkZ31B0wBt3Gd5FLEHuxCsrKC9i9cBX2C8ZixsROkJiUT9e+GabHpDupVRxN26uXCJf2rcG8+atxSBsI+KPgdxTXOsDNzU7bRSMc+rMfi+mTnHD2vZcQ+UMBO67EzaQNmPXYcEyMOIlKKBAyZzq6nlyF6Ys/xbFTJ7DnrRl4bXcRSJOshVC4u8P+1nHsOZCrHh3yj6zGhsNlzd/XaxX7J2bhSftjWPdKNNLKlKjO+xZvrtyDa7r8eXfzgh3GTp8Ep7Pv4aXIH6BNTUnYMOsxDJ8YgZN3BBbo1gzsOPRrPQJTJ3ZG0ofL8FlWOZszypH12Uqs+fQXlNu5m5a1ksO2kvbmGg4/bJE3uHyFeYvCHe72t3B8zwHkMoFr8o9g9YbDKNM5S1vihst/7n7ONW/O0GONEVMnonPSh1j2WRbKWWFQnvUZVq75FL+U27UzV6gRQCKVgCpK0XKas8cTs56E/bF1eCU6DWXKauR9+yZW7rnGrqWGeyyc+m2O/ROY9aQ9jq17BdFpZVBW5+HbN1diT0MDrpjQntUCc+sXTn0KJJBKCBWlpZri/17UHYZwx5FhncJ1vrgNcyLh9neRWBJ7EVXKSlzYvRCr9gswdsZEdGpLnmhLTOme9f1TUT8cLrN/mJ4I7kISsYTEQim5DF9KBwvVjyZrH16Wu75AR/RrDrRtmixuk3eZTZovJlBT8xMt9JXToHW/NT7IXBodQnLd+eo+byVGUoiXDQmFEpJJRSSQudKoFfFUpLmkekGBnFxfOEL6SzI54sPpMTc5CaxkZM3ayFyCaUHcFc1D6OqH+HO+mE1+CiuyknUkW7mYxE5BNG9vrtGHqTXcOU4LfKRkJe1I/RYmGBmnkorjl9HDDiISSmyog0xCDv7TKHLpWFIoJtAO3cI/6x7jKWxEF5LKZEx3Yuoc/DoduabVnen2uoVjjYvbiil+2cPkIBKSxKYDySQO5D8tkpaOVZBiwg6mG/WD6HLqMvugbtEgoy6VVgTIKWBFqm5HS0zbl8H0HR/+GLnJBUx31iQVycgleAHFXdFqViOj3JVeaOoARmjhB8wmmW/1J3m/N3Tbpm1o7DrK4nha9rADiZif2HSQkcTBn6ZFLqWxCgVN2FFEyroc+mK2HymsrEjW0ZbkYjE5Bc2jvbmtWl0Hk231AJKIvGjesUaBW6Je3Cazp4efCKYuEjHTn5CkLsNp6cFCNhoz5DPiy5xtdOc10mzVOJe96nK+oNl+CrJiOu5oKyex2ImC5u0loyrh0J/yViJFhniRjZD5pExKIoGMXEetoHhNoKqppIxP59AwLwVJxR3IJWg6zZ/sQ9IGm9dk0pbJXiQXMltbM5t7hNDyuY+QTZPFbc19JnVFAMkDVui2Wa5IWEWjXWUkVPuu2JEGhk2ivtYNi2fucl5gMZYYGUJeNkIWszKmWwHJXEfRinitXSzSrWbhiOl45dKvsuQkrR3nQXIrCVkz2YVyDxr39k+ab23gktWkbblyTZ2xHKwej/4bAbj8sCUcvkI1lLllMnnJhSRi/cmsPShk+Vx6xEa3uK0NscaENO0/bdJDM5otbuPK+S1QltDJtePIQ25FEmvmU0LW17i36SdmZO5cwe1jd44vIB+pFUk79qOFiYXNbHiLElaNJleZkMQsv4kdB1LYpL5krVvcxj0WrvhsifJWAq0a7UoyNldKmE86DgyjSX2tdd/qoD7OlXMMMT2/GX6rA7c+79DxBcwnraTUsd9CSqy5m/nFeC3FGUcGdUoi9/kWzYnamLZ/+AkK7sJ0x3xAKHWh4UsPklZ9XDWJkTFxttGd1wSB+h9dDfynUbztcXQLd8HenPfR90I6rkm94N+7M2S64/cMZRly0zORXyGFSx8/eDs0Pt3fOvUlyEk9hyJ0Rk+/7nBs1kRVUYCsjEsoFTrBx78XOnEMQlWei5S036Fy8cMAT+Pv2qjK85CWlodqRXf49+3K7tGNoKpAXkoqCsReeNDP8BxT7VXXNuExr7Xw/PoStj2u/hELdsefl4a0vGoouvujb1ejV7MIc+1bX5KD1HNFQOee8OvuqF9Qc7fhsGELVOXIS0tDXrUC3f37oqVKVKgoyELGpVIInXzg36uTGb6rwo1PJ6PXf31xMOVtDGxNhuJteLxbOFz25uD9vheQfk0KL//e6Nz0ApzyGaEtbZph0l7MHwuyMnCpVAgnH3/0MhkIXPpToiw3HZn5FZC69IGft4PuWioUZSbhmp0fHuzWsHCiBsfm9cS4zFdwJ2GBbh+7+7+Qggu3O6JHQG90astvtVQXITstB5VOffCQl6LlR2N3OS8oy3KRnpmPCqkL+vh5wyA1WaRbc2hNvw3Uo+RSKrIKlXDuGQBfJ8OjJmU1adu7k2vMyxvm+grzlpsXkHLhNjr2CEDv5s7S1rgx6T93P+eaNWc0o77kElKzCqF07okAXye9HtudK9j4clOQ9rsKLn794Wnkbb/qomyk5VTCqc9D8FI00445Y+GKzxZUoyg7DTmVTujzkBeaXZLBFRN6LK5fuPTJjuempOF3lQv8+ntq3yW9y/nFGKbiyFidYjruzJ0Ti1nd0Q3hLnuR835fXEi/BqmXP3obTnBtiA8L22jK3z+Zlu+68PxZVJ9eTL2lvWhxUuN32dx1ePs2Q33HWfErrR7iSAObfE2ZUdTv+MobvmeZx5A6+vVNf5J6TqcvcirZdj3d+nkDPdFZRg8uP6s9hYdHA+8rPPcGfn5rD0Y+MfgL4L5RugcIBEJYCQWtPwTPcw+oQcIrvrAPfhdX/Z7G5Adbu59tP7x9m1KP5BX9YesQhP9W/xtr5/Y2+mxxI0xpQish+x+vvJaI4D9vHV5zP47nfBSw7mCDzoPfQt7w9di+uL/uHB4eNbyv8Nwb+PmtPTC9Ca0gZMr7K9X3lzzqwPPXUHX9PC4UCODS1xfObfn4l6dNKMvycO5KNTr39kWzT4152kQ9bueew29FdbD16IWenSz+LJbnHwPvKzw8PIbwhS8PDw8PDw8PD88/gr/kUQceHh4eHh4eHh6ePxu+8OXh4eHh4eHh4flHwBe+PDw8PDw8PDw8/wjuk8JXiSv7I7Fo43Hd9v1NTX4Gsotb+6kYMyg7iU2L3sLei0rdjrtL2clNWPTWXt3W34W/lw/cFbj8QHkF+yMXYePxYt2O9lN/7kusWLgeR1r9qSOeu0pNPjKyi9FC28y2+9b8B4s/TMDNv8oUVaexddFy7MpS/0LTX8E/MOb/NNqg29Z89Z5RhdNbF2H5rizd9t1HeWU/IhdtxPH2zNdmosw7gLWvLcCCBcZeC/FBQonuTNO0u75oM/feHubTuiwaPf+HzYvHbrTZV++bwrcw8TNsij2r275/UV75GBMDZ2JXftsdU1WRirhNO3D86r2YcFSoSI3Dph1/t8nk7+MDdwtOP1AWIvGzTYg9W6rb0X7qr8Rj24dfIukvq7b+QbDi9uOJgZi5K79Fgq46+R4Wv5MAq4D+cPqrsnBtPn4+/D3Siu7NDTg3/7yY//OwULcmfPXeUYv8nw/j+7Qi3fbdR1mYiM82xeJs6b1fw6+89iM+/yga35+/ieLi4havP+5wx9ndqC/azr23h/m0Jks1Tm1cjMh4gt9Dzm0uYPlHHSyEKm7gZgVfNPDw8HBAFbhxs8JIIaHE7zcdMW1rDFY90lG37y9A8Qw+yTyDt0fy3234j6dVX72XKPDMJ5k48/ZI3fb/AwgewKNLorFz585mrx1483En3Umt89fWF/eTPVqRRXkVN+yfwZaYCIxQ6Pa1gb+o8K1C5s75eNTHATKJHbxHLcPRG03vyFQoSngHoUHdYCsRQebUE2Ne/RLZ1brDKMOZj8IwpIcTbCQS2LkFYkpEPK43+Et9Pg6tfgZB7gpIxXI49fkX3vwun003jNorOLBiEgK6doBYJIdzr7F4ddc5JpGWsm9extDp6/HFuil4sLM1xFIH+I5digP5SqgKYzBn5jacr8nBjulDEBady1qocOPEuwgb5gtnGzGsRDI4+ozESzHZqFF3WLIXc4eGYtnyJ9HLwQYOAYtx/I76gJ7aKwewYlIAunYQQyR3Rq+xr2LXuQaJmExnPkLYkB5wspFAYueGwCkRiG8crGlUN3ZjzpDxeDu5VreHqSf9PUweMhuf/67tQ1WUgHdCg9DNVgKRzAk9x7yKL/XKZubKxOfzRsLHQQZJB1cMen4T1s95BFM+yNQe59CpcdrrA8Yw4ReqG9g9ZwjGv53M7iV11KfjvclDMPvz33U7WtK67pndd8/BkPFvQ6/aeqS/NxlDZn+u2zZDt01het45/1Gtnu28MWrZURiopE16thzT/sgRey0owzcvD8X0dTuwcmIfPCCTwMZ1EF78MhuZMS9iqHtHSCT28Bm3Bom3GzqpxZUDKzApoCs6iEWQO/fC2Fd3QSOCqgA7nx+IwMDAZq+Buni82/HE4YdlZ/BR2BD0cLJh47CDW+AURMRfh0pViJg5M7HtfA1ydkzHkLBo5CobckVvDJ0VgbemB6BL01zRoKv1X2DdlAfR2VoMqYMvxi49AJZ+jMP8+sS7YRjm6wwbsRXzMUf4jHwJMdnaHluVT3PsG7w8eDRWJuoc2GScmyEblyycMW/C7hos8z3VjRN4N2wYfJ1tILZitnP0wciXYtAoTjO0uX8ddqyciD4PMB3YMB28yGydGYMXh7qjI7umvc84rEm8rWvRvnmKSz7L/JRLt+x6reUio75q4nwNJdg7dyhCly3Hk70cYOMQgMXffoWXh07Huh0rMbHPA0wOG7gOepG1yUTMi0Ph3pGNw94H49YkQhvqap8ajNErEzU9mpp7NXD6l9qFd2L+oz5wYHnGznsUlh29Ab0WOOZqC/2rrbRmV6P1hRljNqQ9YzS0h8anPp+HkRqf6sBs+Tw2rZ+DR6Z8oD2szh/M3uu/WIcpD3aGtVgKB9+xWHpAV2txyqIu1Q5h9TNBcFdIIZY7oc+/3sR3Gns3l0WXGwKDEfbWGjz/aIBhbuCUpRnq7/H9s6k49gr5SB+gR/7zOSWcTqCYJcOps0hA4iHvaI7XZbxDwQp76v/CZjqUlEKnvl5DEzytqfucQ3Rbffzn16mfTU8KizpGKZm/0pF3J5GbxJWeP1TBjtZQyuog6mAXQM9vOUrJZ49R1HP9yEYxhjZd/oNOLulH1nYP0uwPD9KppHiKfnUIOUk86Ll9NzS/LKv+OUKZrAN5PrqMdiYkU9KBCBrbVUxdZu0nKk+nfRGTyEPcjSaER9G+VCbNrT0U2llGPaZ+QEeSMygj6QD9d5IHiRWTaGcxkfL6ZholEZK1/wu08+RJit2TSNfzP6ARcg+a+0M1UeVJWtLPmuwenE0fHjxFSfHR9OoQJ5J4PEf7bjCJ6n6m1/vZUM+wKDqWkkm/HnmXJrlJyPX5Q6QebUuUdPWDEST3mKvdutrkWjpqfnyNfORD6J2cerWy6Z1gBdn3f4E2H0qilFNf05oJnmTdfQ4dUiubyin+ZR+SPvAI/eez45SUuJtWjO1GEqGIei1OYscrOXVqjPb6gDFM+oXyKn0wQk4ec3+gRk3U/Eiv+chpyDs5uh3NMKl7vZ71qq2hH1/zIbluDFy6NbRNBR17RafnzxPodEIMLRnemUQCsU6+tum5OXe+e446Sx6i8LQ63Z5mcPij6dgzhvonKqUklrvTmJVxdColkTZPcSexrSO5Dfg3bY3/mZLiFtNghYwGrTuvaVF5cgn1s7ajB2d/SAdPJVF89Ks0xElCHs/toxvKPyj9wCcUFRWle31MK8a7kdgmgJac+OOux5NpP6yjn19nuaVnGEUdS6HMX4/Qu5PcSOL6PB2qKKf0fRE0yUNM3SaEU9S+VLrNkSu0upKRrIMnPbpsJyUkJ9GBiLHUVdyFZu0v18jTnFt7QqmzrAdN/eAIJWdksHz1X801FZN2UrFJ+dSNo2iszJnC9qt/PJQrzrllMy0Ld8ybtjtHfLfgFu0J7UyyHlPpgyPJlJHB5P2vOncraJJW2S1Q536pWE7uY1ZS3KkUStw8hdzFtuToNoD+vTWefk6Ko8WDFSQbtE5zfvvmKQ75LPRTLt2azkVGfJVrXlBep82jJCS09qcXdp6kk7F7KPH8FhorFZPcfQytjDtFKYmbaYq7mGwd3WjAv7dS/M9JFLd4MClkg2jdefUPt2t9yjmMza3qLVNzr/o4h38xJdArPlJ64JH/0OcJpykhZgkN7ywigVg313HEn+W5zZCa04uop8ST5h3Tz7UtMGVXI/UF55ib064xGtqjPP5lnU99RseTEmn3irHUjdUyol6LNce1+UNGHTwfpWU7EyiZXStibFcSd5lFmpTAle9qUmh1UAeyC3iethxNprPHoug5phvFmE10ud5QFq7cwClLM/6Cwrec4qY7kTz4XVL7ogZlAW193JYkmiCtpvgX3Uk2cC1pYkPHrZgnycF2PO24wSbvuFBy6DiUIn4t1U749bn0/dZNtD+TjbAmgeZ7S8nvjbOsDNFR8QNFTJtNHx3fRc86ymnQ2mxq7FpZSNHjFWQ98kPKY51pkp8kmDZc0fTMqKGE+d4kGxCh2apLX0n95X705q/awkFZdIZ2bdxBJzTa11KTuIB6yAZQxLl6beErldGoTQWNxUnTgqc89llylA+itdn6wSoLo2m8wppGfphHyjtxFOrQkYZG/Eql2sFS7vdbadP+TKZJY1hW+FbHv0jusoG01lDZ9KSDLY1XK/v2lzSFXX/0JiaL7jAV76ZnncXaCbE8llOnLWm/DxjDpF+0pfA1qXvuwpdLtwa2KY+j6U5yCn43p1GPyoKt9LitRCtfm/TcEq7Cl8sfK03p2CjqBCbV2LXB1tVH55Cb2J3mHNX9Wjsbx0ePyqjL7O/YRjnFPutI8kFrSS+Ckgqjx5PCeiR9aDBQJd04soD8bV1pcnQOK/O45bcsnrj88A7FhTpQx6ER9Ku2M6aO72nrpv2kUUddOq3sLye/N3/VyMaVKxp1FbyB9OlHnc9kNCDinG5HU5RUdGYXbdxxQpv8NdRQ4oIemnx1rp5DvqaFL1ecc8rGJQtXzHPb3WR8N0dZRGd2baQdJ5rcFNYk0oIeWnmbmLMRbe7XFUlqqo/SHDcxuc85SlpPZfJ89CjJusxWH2zfPMUln0V+yqVb7lzU3Fc5z9cUvlKSjdpEBQ0DUPuTVJuvtK2q6egcdlPqPof0of4RPSrrQrO/U+8wLG5Mz71c/sW0EDednOTB9K5eCVSw9XGy1dmUK/4s8i8jaApfkZDEMmuytm72sn+Sdqq74bCrYX3BPebmtG+MTe1xm76cwnLH6E1N5pZi2v2sM4mbFr7M3sEbrmj7YtQkzCfvhtqHQxbNuVI/euNsY6XGSrUImjb7IzpT3VQWM+YEDlma8+c/6lCfi8zscrgEBKKblW6f0BmDB/aASP23shCpGddQf34LJvv3Rd++2tewlSdRdecisnJqIRsxEzPcfsHywK5w9R+NGUu/QXnQFIzr0wGqkiycK7DDQ0F90PjrsDYj8UbMdvx/DudxvrIbBg31QsOl1dcOHtIbygvpOFen3SVQeKF75wbVCKFQdISgXv+oQFOEzkF4ZkYgyuLWYsncmZg8KhC9J2xCjlIFlUr3IYvAHu7uDkaeK6nH5YzzqOw2CEO9GiVifQZjSG8lLqSfQ51sBGbOcMMvywPR1dUfo2csxTflQZgyrg866M5vO0oUpmbgWv15bJns36jrvsNW4mTVHVzMykHVb+nIrnLHgKCuevkVgzCwj1jzZ/3lDLN0asBd8AFjmPKLNtEu3XPrtuko6nMzkV3ugoDAbo16FDoPxsAeGo20Tc8Ww+2PVm3SsQC23j5w0XUpsO4AuagL3LtpfQhCa1jLBVDWK9UDRcb5SnQbNBR6EYRwDh6C3soLSG8y0Kq09xE681NIX/kS0f/nzXznLscTpx8KMWLmDLj9shyBXV3hP3oGln5TjqAp42BMHWblCqYrhVd36NOPAoqOAtTXGvN5ppegZzAjsAxxa5dg7szJGBXYGxM25UCpYn2SzGz56jniXIsp2ThkqeOIeTPsblF8s76DnpmBwLI4rF0yFzMnj0Jg7wnYlKNkulY1+fjbEIGtN3z0jooOchG6uHeDVgtCWFvLIVDWt3ue4pTPEj/lyqcW5iLzzxfA3t0dDk0nNoEtvH1cdDlKAOsOcoi6uEMf6taQC5RQh7oxWp97uXy9HrmZ2Sh3CUCgXglwHjwQuhTKGX93Zf4QdsHk9/+HH374wfB1ZA3GqH8t26I5hWvMutOacNfGWP8b0rOr4D4gCF31CQGDBvbRxYIOgQJe3TszSbUIFQp0FNSjtpY4ZFGiJOscCuweQlAf/e/424x8AzHbX0JQ02UH5s4JJmRpTlOX/ZOoh5I5vVCk80YNAshkUvavmhrUMD+37R+KRUuWYEnDa8V6RO1Yi6e9WTv7MXj/dAoOb1mIEM8KnN6+GE8FBWBK9GUo61j/LNytxNreDKhlAceOiZteml3VSi0LcyRlQ51qZaUvLjQY6UuHqjAWzwUG4um34pBaIoVX8CysCp8Ct6aaFbD+RMb7qFUnUZFYl6B0sPO1IilZgrbHmPdPI+XwFiwM8UTF6e1Y/FQQAqZE43IryaMlzQyvTqy6XTVaZSN0URNdL1mB9VE7sPZpdTGhhliTVh50MlOnhtwFHzCGKb/QnWIojjp5GBVQhxm6b6Faatxlnm51sJlAycLRUCUyyKQ6v2mTni2H0x/N0HFLBBCLDdIlQ6Du1gi1rABWi2AgATtXxGRi9tINVPV7LOY+tQKXRm3GnvBHYKfZe7fjidsP7ce8j9Mph7FlYQg8K05j++KnEBQwBdFGgtOsXKG2Kcs/BrSaflQojH0OgYFP4624VJRIvRA8axXCp7g1JnZL5DMZ5xpMycYlC1fMm2F3S3xPVYjY5wIR+PRbiEstgdQrGLNWhWOKobJbIGB+2sJTjTpqO+cpTvks8VMu3VqYixjmna/2B1HjNTQImP5aKrDZfNo6rc+93L5er1WCwVgEMhkaUihn/LUptzVHAiefARg4cKDhK8hX9+0tltiVe8zNudtjJJYPTD7izGKjtZTAJUud+u5HZAVjpZoh5s0JpmRpTmv6u3eI3NHDU4pr57JQ0qjRGly4mMfCl2HVBZ5u1qisssOg0BmYMUP7mjYmAN6+fujuABQnf4WNe6/jodmrELXvNHIK0rFhWAUOxRzEDXsPuNmWIOeCbgGHmvpsbH9xGlZfsIeb6CoyM283MWYV0jN+A1w94Nk8YI3BgliPCldjN2P3rZHYmHwW//tqG9avmIeQTnX4g13A5ByiQQR3TzeIrmYis3FhD6MqHVqRPGFVnIyvNu7F9YdmY1XUPpzOKUD6hmGoOBSDg+Y8da9OJFSLmjv6yqj2+nXc0jS1Qhd2fevKKtgNCm3U9YxpYxDg7Qs/pmxJj37oJc/D2eQm+vwjGcnZ2rsskbun5Tpttw8Yc1uVSb+4rlIHBaG25o6+Vq29jutaRRhFxaF7dRFAtTXQq7YW16/f0umBW7dNRyFy7wFP6TWcyyrR67HmAi7maTTSNj1bDJc/ujPTm9Kx7vz2wHzD002Eq5mZugUwWqrSM/AbXOGhHmjZj1g55QUc6LIMX0U9C/fGZHeX44nLDxW3kfzVRuy9/hBmr4rCvtM5KEjfgGEVhxBz8DrrgBX32p4Y7c0VRlBdRezm3bg1ciOSz/4PX21bjxXzQtCp7g92NfafqphDPj0ijjjnhEsWrpjntLsVR3zrGuhQXY3F5t23MHJjMs7+7ytsW78C80I6oa7Nym5GO+epwnzT8nHlHgO4dGtWLmrqq5blrj8FLv9Sx34PT0ivnUOWXgkshV6ENoVyxR/X/KHprt1w2rVpfcE55ubcxTGKeqBfLznyziY32f8HkpOzYV5G4JJFCEcPN9iW5OBCkwvXZ2/Hi9PC8V3T75k3Z06wkD+/8GV3PE/MehL2x9bhleg0lCmrkfftm1i555rOkHYYO30SnM6+h5cif0BBDaC8mYQNsx7D8IkROFnJQvTSPqyZNx+rD+Wz8GbK+qMAvxfXwsHNDXYdRmDqxM5I+nAZPssqZwouR9ZnK7Hm019Q7voUpo+zRnzkPEQll7CkUIVLXy9BeGwlBk59Cr5m3JYKJFJIqAKlpbqChN2FCGpvIje3lMmvRPEvn2D+qm9RyiSraVzd2zqOIdMxzjoekfOikFzC+qy6hK+XhCO2ciCmPuXL7oYuYd+aeZi/+hDytYNFwe/FqHVwg5sdt/mECne429/C8T0HkMva1+QfweoNh1GmK9bsxk7HJKezeO+lSPygVTaSNszCY8MnIuJkJaAIwZzpXXFy1XQs/vQYTp3Yg7dmvIbdRaSNUceQNui0vT6gOakZHH4hUsDd3R63ju/BAa0icGT1BhxuUIQRhCZ1L4LC3R32t45jz4FctbWRf2Q1NhwuayysOXXbFPsnMOtJexxb9wqi08qgrM7Dt2+uxJ6GBGCOnusv4HDUVuw9y/FF6VSNktxsZGVl6V/nzqOgnMsfe0FkSsd3JZs4ImT6OFjHR2JeVDK0InyNJeGxqBw4FU9552Bb2FS8UzAc4asnwCZXP4bs/NK7HE8cfnhHgEv71mDe/NU4pO0MfxT8juJaB7i52amTBaQSQkVpqaYAaW+uaIn6EwABam/mIreU+YmyGL98Mh+rvi1l/l2DaiGHfE3hinNOOGThjHkOu/uKTcd3c9Op3/UX1OJmbi604vyCT+avglacNim7Ge2cpySm5TOde5oPlku3ZuSiZr5qUe76U+DyL3UKnYUn7Y9h3SvRSCtTojrvW7y5cg8aUqjp+OOwF1N5/YXDiNq6F2ebFNYtqUPZ1fOGuVXzOofs38s47WpYX3CPuTntHaMeBULmTEfXk6swffGnOHbqBPa8NQOv7S4CmZcQOPOd9YipmNg5CR8u+wxZ5ayQL8/CZyvX4NNfymFn31QYrtxgRuHWHN2zvn8uyluUsGo0ucqEJJaISew4kMIm9SVr3YP46uOJkSHkZSMkoURGUpGAZK6jaEV8kfbB5boc+mK2HymsrEjW0ZbkYjE5Bc2jvbnah5iVJSdp7TgPkltJyFouJqHcg8a9/ZNmpa3yejyFP+ZGcgFray0lkcyFghfE0RXdWh/1A/byLrPpoO5hfHYxSl0RQPKAFdrNO8dpgY+UrKQdqd/CRFIWx9Oyhx1IJJSQTQcZSRz8aVrkUhqrUNCEHUVUp17cJnelF47oF5cZLjhT0vX4cHrMTU4CKxlZS0UkcwmmBXFXNIsM1NfP+WI2+SmsyErWkWzZeMROQTRvb67RBRrq/poublM/DJ+5ZTJ5yYVsrNZszB4UsnwuPWLTsIhDSbcSIynEy4aEbAwydn2BzJVGrYinooanxCsz6NM5w8hLISVxBxcKmj6fJjMd9HvjrOYwl06N0l4fMAaHX9RkbqHJXnISipiemS48QpbT3EdsWl/cxqX7mkzaMtmL5EJmM2vWp0cILZ/7CNk0jIFDt80XHipvJdCq0a4kE4pJwmR3HBhGk/paN8rHqefyT2m8VEz9V6brdrREs7hNqKnNDV8CBT0bW8nO4PBHDh23RL1IQU5dZh/ULRBiavtpIfnKB9G63xralFJ0iLxxkYt64Ux8+GPkJhcwvVsz28vIJXgBxbGBahbHSIzIz17SkGh147sbTxx+WJfzBc32U5AVu1ZHWzmJxU4UNG8vadVxh44v8CGplZQ69ltICddM5wrmLS10RXWptCJATgErUnU7mqKk4vhl9LCDiMlmQx1kEnLwn0aRS8eSQjGBdjAnMylf08VtakzGOZds3LJwx3zrdtdgie8piyl+2cPkIBKSxKYDySQO5D8tkpaOVZBiwg59bmtCi9xf8xMt9JXToHW/NfpGaXQIyZ3DtBvtmac45bPcT03qVu1dJvO8oa8m1nCcr1ncJifXF47oFwur/UnehWbrFUg/LfQl+aB1pA/1aAqRN/ic2qcMF7e1Pvea4V/qMSasotGuMhKKJczXHWlg2CTqa61b3MYxVys5/Kv80/EkFfenlenGJzbt4jbjuYndWZDN5C/YWRx2NagvEswYsyHtG6OhPVhCoIxP59AwLwUbdwdyCZpO8yczH+n3hvZwC3urU8IKCpAH0IpUlqu5ZGH/lZxcS+M85GQlsWayCFndMo7e/kldqTWThSs3cMjSHIH6H2aYv4Tqomyk5VTCqc9D8FI0v4tlNzhluUjPzEeF1AV9/LzhoH8GmqFCRUEWMi6VQujkA/9enSDTHdFSj5JLqcgqVMK5ZwB8nZo2ZsdyUnGuCOjc0w/dHQ065kRVnouUtN+hcvHDAE879Q7kpaUhr1qB7v590dVad6Il1JcgJ/UcitAZPf26o7lIqooCZGVcQqnQCT7+vdDJcLCc1N68gJQLt9GxRwB6dzLyhfXKMuSmZyK/QgqXPn7wblC2qgiZSddg5/cgujU8/15zDPN6jkPmKxeQsMBNt7NtOm2fDxiDwy/YHeiFlAu43bEHAnp3gjlf3W9a97W4eSEFF253RI+A3jCm2lZ1a5RqFGWnIafSCX0e8kJLlbTPd83GpD9yxd7dob4kB6nagcKvu6N+sao53OV4MumHqgoUZGXgUqkQTj7+6NW0M5YbclPS8LvKBX79PWGHu5ArmqEqz0NaWh6qFd3h37crWnRpSr4GzI5z03DKwuCKedN2t8T3VCjPS0NaXjUU3f3R924o2whtn6e45bPUT7l0azIXNfdVdXOLcte9xxz/YkpAdloOKp364CEvheHH2pxz9Z+T20zZtXl9YdaYm3JXxqhCUWYSrtn54UF9QsCxeT0xLvMV3ElYoNvHgTm1EcvVl1KzUKh0Rs8AXxiUas1o15zQhL+08OX5G1CfguWBg/BFv2gc3RoKb2kxkj+YifGvF+LfPybjrf7Nl0Xw8PD87eDjnIeHp5F6pCwPxKAv+iH66FaEektRnPwBZo5/HYX//hEpb/XXnff3hC98eThgd35H3sTU5zcg8YYQcmEdauS+eCriM2x7qf9d+Eo1Hh6evx4+znl4ePSoio7gzanPY0PiDQjlQtTVyOH7VAQ+2/YS+v/NEwJf+PKYR/1t5J77DUV1tvDo1ROdOD9v4eHh+dvBxzkPD08j9bidew6/FdXB1qMXev4/khD4wpeHh4eHh4eHh+cfgZGn33l4eHh4eHh4eHj+34MvfHl4eHh4eHh4eP4R8IUvDw8PDw8PDw/PP4J/QOFbgZ8+XoTwr7Kh/i2UllTh9NZFWL4rS7dtOTX5GcguNvVrLqZRXtmPyEUbcbwdfbRG2clNWPTWXt0WDxeqsmx898EizJo8BiOCRyJk+n+w8X+Xjf5Kjtkor2B/5CJsPF6s28HTbu47nSpxZX8kFm08rt2sOo2ti5ZjV5bxrHPvaX9eaztlOLlpEd7ae1G3zU17c6glVPz0MRaFf4XsNpqGsz2X7f9J+aAmHxnZxfhzLMvDYx7/7xe+qkqkf/0RtsVfaaXwrUX+z4fxfVqRbtsylFc+xsTAmdiV347CtzARn22KxdnSu73OUIWK1Dhs2qGbjHlMUpMZhacf6o9pmzIh6zcak558DL2VJ7DmXwMwatWPbDpvI8pCJH62CbFnS3U7eNrNfadTJQoTP8Om2LPazdp8/Hz4e6QVKbXbfzrty2vtQlWB1LhN2HH8qm6Hae5GDjUfFSrTv8ZH2+JxpU2FrxntuWz/T8kHrMD/eGIgZu7K5wtfnvsK/lEHKPDMJ5k48/ZI3bZlUMUN3Kzgw/pvT+1ZRIa9ih9c38DRs4exZdVCzH9lKd758kccfasPMiJfxLoztbqTeXg4UDyDTzLP4O2R5vw24L2gfXntz+T/uRz6l9v+PoEqcONmBV/08tx3/EWFbz3yD63GM0HuUEjFkDv1wb/e/A75mhtkFW6ceBdhw3zhbCOGlUgGR5+ReCkmGzXqw2Xf4OWh07Fux0pM7PMAZBIbuA56EV9mZyLmxaFw7yiBxN4H49Yk4naTiKOSnxAR4gt7iQS2Ho/g+agUlGuOlOGblwdj9MpEzRZUN3Di3TAM83WGjdgKIpkjfEa+hJhszdUNUBXGYM7MbThfk4Md04cgLDpXs7/2ygGsmBSArh3EEMmd0Wvsq9h1rkpzTE1V5k7Mf9QHDjIJ7LxHYdnRG5of9G6k9goOrJiEgK4dIBbJ4dxrLF7ddQ4NPZSd+QhhQ3rAyYaN1c4NgVMiEH/dvPRiWrYynPkoDEN6OMGG6cnOLRBTIuLRWtdl37yModPXYcfKiejzgAwSG1cMevFLZGfG4MWh7ujI+rD3GYc1ibd1LVQoSngHoUHdYCsRQebUE2NeZec3PkfAcX1VERLeCUVQN1tImF849RyDV7/MbnwMoT16qfzfZmzLcMGsiIUI6qjbqUEG/5fXYt1rU+Ev1fqA6sYJvBs2DL7ONhBbsXE4+mDkSzFodJGqTOyc/yh8HJhO7LwxatlR3GhqYAt8TEMbfF5VlIB3QoPQzVbC+ndCzzGvsvP1D2yY1JWF8mn84Nm1+CR8HHzspZAqPDH0+Sic1b1FrrqxG3OGjMfbyfobh/r09zB5yGx8/rv2mlzycuvUtG80h0tm1iGHr1Yhc+d8POrjwOxhB+9Ry3C0qUBqmw0ejZWJ6jGXYO/coQhdthxP9nKAjUMAFh/X5wOgFN8tHI7gVw+gIVLUVPxvKUYOfw0H2E4unyvZOxdDQ5dh+ZO94GDjgIDF3xrmNdTiyoEVmBTQFR3EIside2Hsq7ugT0uWxL46Zw7Fs2s/Qfg4H9hLpVB4DmU59Sw7YgQT/tS2HGpZnjIKleCniBD42jP/t/XAI8z2KdoJgcFle4ap9ga2Z3D4Lpdtzc9rlTj25igMfu4zNH3zvPbMWoQMfRG7i5q3McOOHHMREw4fhQ1BDycbSFgcuAVOQUT8dahUhYiZMxPbztcgZ8d0DAmLRu7NvZg7NBTLlj+JXg42cAhYjONV7ZwTeHjagvp7fP9salJWU1AHOwp4fgsdTT5Lx6Keo342Chqz6TLRrT0U2llGPaZ+QEeSMygj6QD9d5IHiRWTaGcxa3wrisZKxSR3H0Mr405RSuJmmuIuJltHNxrw760U/3MSxS0eTArZIFp3vp5IeZ02j5KQwMqeAuduo/jTibRr2QjqJPag578rUXdIUWNl5By2XyPbrT2h1FnWg6Z+cISSMzIo6cB/aZKHmBSTdpL68gaUp9O+iEnkIe5GE8KjaF/qbaLKk7SknzXZPTibPjx4ipLio+nVIU4k8XiO9t1QElUco1d8pPTAI/+hzxNOU0LMEhreWUQC8RB6J4fJS5V0ckk/srZ7kGZ/eJBOJcVT9KtDyEniQc/tu0HKup/p9X421DMsio6lZNKvR96lSW4Scn3+EFVopWqCkq5+MILkHnO1mxyy1f38OrNDTwqLOkYpmb/SkXcnkZvElZ4/1LJnNbeixpJULCf3MSsp7lQKJW6eQu5iW3J0G0D/3hpPPyfF0eLBCpINWqc5vy7jHQpW2FP/FzbToaQUOvX1GprgaU3d5xwipjmO69dRxjvBpLDvTy9sPkRJKafo6zUTyNO6O805xFpbpJfm1FDSkt4kdppB31TqdrXKLdoT2plkPabSB0eSKSMjiQ78V+0DCpqkcdAKOvaKD0kfeIT+83kCnU6IoSXDO5NIIKYh7+Roe7DEx9RY6vN1GfROsILs+79Amw8lUcqpr2nNBE+y7j6H1Kri0pWl8mn8QCKjB5hffXz0FJ3YtYxGdBaT2//t05yvvPoBjZB70NwfqrUNGDU/vkY+cp3Pc8nLqVMO3zACl8xcvlpx7BXykT5Aj/znc0o4nUAxS4ZTZ5GAxEPe0fSvsZnMmcL232nMQUJrf3ph50k6GbuHEtW5oBElXf90Atnbsxx3S7eLXWXPs86kCNlO15RcPsfabx5FEqE1+b+wk06ejKU9iecN8lrlySXUz9qOHpz9IR08lUTx0a/SECcJeTy3j9SiWBb76pwpJYnsAdbfx3T01AlNTu0sdqP/28fkUV6lD0bIyWPuD9qzTflTG3KopXnKEJ2uBFZkHziXtsWfpkS17TuJyeP570g9I5i2PXd7A9tz+i6HbS3MayW7n6EH5IPpbXUe0FBNx1/2pg4j3qfLDbsa4bAj11zE4u7n1/uRTc8wijqWQpm/HqF3J7mRxPV5OlRRTun7IjR27jYhnKL2pVLx9c00SiIka/8XaOfJkxS7J5EK09ozJ/DwtI2/oPCtoYT53iT1e4PO1uh2sRD+IWIazf7oDCmLztCujTvoRJOJoSZxAfWQDaCIcyxyNUWARJM0tHFcTUfnuJHYfQ4dVecZhrLwI3pU1oVmf9cw6UhJ9sh/6UJD4CsLaOvjtizxfs4muaaFr5KKzuyijTtOaCYDLTWUuKAHyQZEkPryzalLX0n95X705q91mu3y2GfJUT6I1mbrT1YWRtN4hTWN/DCPyuKmk5M8mN7VFLmao1Sw9XGyleiKgPJYetZRToPWZuvGx1AWUvR4BVmP/JDyKuMo1KEjDY34lUo1MtZT7vdbadP+TCrXnNwUw8KXS7bKuFBy6DiUIn4tZS0Z9bn0/dZNtD+zZc9qtMVDQ8HOqD5Kc9zE5D7nKGlNoaTCjx4lWZfZ6oMU/6I7yQaupcaczLgV8yQ52I6nHTeI7pi6fnU8veguo4Frz+v1wmwX86QD2Y7fQTfuWKKX5tyh72Z3IXGvxZTU6JOtoCyiM7s20o4T6sSvoyaRFvSQ0YCIc1RfHkfTneQU/G6Df7ImBVvpcVutz6p1YqmPWerz1fEvkrtsIK01VDQ96WBL47WKNqEry+XT+IH0YYrMahwxFW4PIYXtv+iTIiVn4cspL5dOuXxDt6cppmWu4vDVcoqb7kTy4HdJH8banCJptfBlOWjUJipo1GkzSnbTVGcFjY++rvWr4i/oKccH6KkvWCXM5XNsr7oYk8pG0abGCzTNa+UU+6wjyQetJX3os/FGjyeF9Uj6ME9pOvZaoC2YpA9Hkl59hbQ9REG2//qEiuqaFr7c/mRpDrU0TxnSoKtH6L/6CUGbgxWT6PNirjzF1Z5tNrU9l+9y2dbSvPbHPgrrIqX+K9NZWcqo/J7muNvR2C1X9f03wmHHMo65SHmH4kIdqOPQCPpVKxwzxfe0ddN+0piiLp1W9peT35u/amRRqgtfqYxGbSrQydLOOYGHp438+Y86qEqQda4Adg8FoY9Etw82GPlGDLa/FAShcxCemRGIsri1WDJ3JiaPCkTvCZuQo1RBpdJ9PiSwhbePC6y0G7DuIIeoizu6iTU7ILS2hlygRH3j2gIruA8cAg9tA3aCMx4e4I3q7AxcNHhsUwjnoGcwI7AMcWuXYO7MyRgV2BsTNuVAqWLXb/rRqlHqcTnjPCq7DcJQr4aLqS8XjCG9lbiQnoGczGyUuwQgsFujMHAePBA9RNqt+ssZOF/ZDYOGeunGx2DyBg/pDeWFdJyzGoGZM9zwy/JAdHX1x+gZS/FNeRCmjOvD8Xv6XLKdg9WImZjh9guWB3aFq/9ozFj6DcqDpmBcn9Z7Fth6w8dF15/AGh3kInRx7watKYSwtpZDoKzXLOhIzbiG+vNbMNm/L/r21b6GrTyJqjsXkZVTC5mJ6ysLU5FxrR7nt0yGv65t377DsPJkFe5czEKOsK16USOADZMTtdXc397AbBH0zAwElsVh7ZK5mDl5FAJ7T8CmHCXzTxXqcjORXe6CgMBujfYTOg/GwAYDt9XHzPZ5JQpTM3Ct/jy2TPZv1HPfYStxsuoOLmbloFZmSldtk8/KMxjDuzeOGM4Dg9C99jwyL3KtIOKWt4pDp5y+0cqj2a3KnJ1v2lfP/8bOKYdLQCD0YeyMwQN7oMHKLRHA3t0dDq1lXPsnEDrOBif2fosipucb3+7BD5LH2T5HTd+mfK7BJAJ7d7gbu0D9ZWScr0S3QUOhD3023uAh6K28gPRzdSZjzzhW8AweDr36nDEwqDtqz2fC0OSW+tO9yVPNsXIfiCH6CQHODw+Ad3U2MrJzOfOUmlbbG04oqOfKB1y2NRmrRug4GlNDnJGx90ukMDtUJuzGd38MxzMTuzApjdG6Hc/9xjEX1ckwYuYMuP2yHIFdXeE/egaWflOOoCnj0KopBPZwd3fQytLOOYGHp638+YUv6jQFqchKzKaClqgKY/FcYCCefisOqSVSeAXPwqrwKXBrKqlADLFuwm9EINAHpxHEErHBYEUi9RYZPlsLFQpjn0Ng4NN4Ky4VJVIvBM9ahfApbmYrqlZd5InEhhOgwIpdj/WuUqKOFSYQigyOC2QySBuUUcuKF3ZUbNgBrLQdQEn2GPP+aaQc3oKFIZ6oOL0di58KQsCUaFxuZRFxA1yykf0YvH86BYe3LESIZwVOb1+Mp4ICMCX6MitPjCNghmhpCmOWqEENmxNs+4di0ZIlWNLwWrEeUTvW4mlvJoSp69fUoBa26B+6SN+WvVasj8KOtU/DW9R2vTDvQK++PhAXZCHzppGHx5S5iFu9DO//L0/toIh9LhCBT7+FuNQSSL2CMWtVOKY0OChzbiXzFrVOGxHIIGs0cBt9zAKfr9EqGqGL9HpasmQF1kftwNqnvZn9TemqbfIJZHLIm55gJWKykdpldTSrcNSTum4Xp7xcOuX0De1pzWldZi5fJWjD2EAgyGRSozlNC7MV67/14x0wetoEOPy4F/sLrmH/nhPoGBKKx+zYIS6f0yGwYrFs9AK10Ia+oSIETB4R80eVkhnC4thn45XLDXzCSsS8kVh/um0tlvvTvchTLRBLIG4qAOtcvUlkRp5S02p77WYjXL7LaVtL85o1RoRORLeLcfgqqQTxew6jZvRUjO/UVNimmLAj51ykdpv3cTrlMLYsDIFnxWlsX/wUggKmILq1pMvsaNXopO2cE3S98PBYSmvRcO8QOsLDzRYlORegf0C9HtnbX8S08AO4GrsZu2+NxMbks/jfV9uwfsU8hHSqwx/sXP0kailKFFz8DRW6LaAcGRm5EHn6GE6KqquI3bwbt0ZuRPLZ/+GrbeuxYl4IOtX9oZ4emiV0Haz40COCu6cbRFczkdl0ZV1VOjJ+A1w9usO7hyek184hq0R/vObCReSxXK9G5O4JN9FVZGbebnK9KqRrO4D7H8n4auNeXH9oNlZF7cPpnAKkbxiGikMxOGjyiX8u2dzxR/JX2Lj3Oh6avQpR+04jpyAdG4ZV4FDMwSa2aiNWXeDpZo3KKjsMCp2BGTO0r2ljAuDt64fuDkCxievf7MT0Yl2JKrtBCNW1nTFjGsYEeMPXrzsUt9uqFzVCOD0+CcOkpxHzWRYrEwypSd2ByDUf4bvfWFF0NRabd9/CyI3JOPu/r7Bt/QrMC+mEOp2Ditx7wFN6DeeySvT2q7mAiw0GbouPWYQVujA7W1dWwW5QaKOeZ0wbgwBvX/hpFd26rgrz2ySfMv88zusDDBWZmbhs5QVf9TtbrCCzolrU3NFXBbXXr+OWpjNueSUcOrXqYto3WnuXtVWZe3Yz7avOnujhKcW1c1nQh3ENLlzMY5ms7ciGTsPkrknY91k0Yn98ABOnjYAN28/lc5yI3Nl4RLjKxmcY+hn4Da7w8LQyGXvGw0eJ/PPnm+TUCpazLsPKy7fx0ysN5vi7RTn07uQpZcFF/NbE9uUZGcgVecLHh8P2OmdqtX2zuyyufMBlW5WpWG1lsNLBz2KyVx4OxqxHzBHg8WfHgUV9K7Rux15epuciT6tiJH+1EXuvP4TZq6Kw73QOCtI3YFjFIcQcvM7OFZi40WO0c05o95zE84/lzy981XekUyeic9KHWMaKjHIW3OVZn2Hlmk/xS7md5l0JQe1N5OaWsmBToviXTzB/1bcoVd8dcn4O3RqE0oNr8fq+XFSrKnAu5jWs+k6MJ2aMxwMGGlDf3QpQezMXuaUsqpTF+OWT+Vj1bSlLVjVGPwYXSKSQUAVKS7WJzDFkOsZZxyNyXhSSS9i+qkv4ekk4YisHYupTvnjgiVl40v4Y1r0SjbQyJarzvsWbK/fgWkMQO4Zg+jhrxEfOQ1RyCZtIq3Dp6yUIj63EwKlPoZfoEvatmYf5qw8hX73qt/4PFPxejFoHN7jZmTanadl6QXRpH9bMm4/Vh/I136BR/0cBfi+uhYObGzi6NgM7jJ0+CU5n38NLkT+ggF1AeTMJG2Y9huETI3CyUgiBqevbj8X0SU44+95LiPyhgB1X4mbSBsx6bDgmRpzEHQGHXuov4HDUVuw9W6KRpjnCbtMRvqAvstY8henrj+BiudogNSj48SP837T1ON9zLlbM8mAuIoZIUIububnQusgv+GT+KmhdhHmI/ROY9aQ9jq17BdFpZVBW5+HbN1diT6OBLfcxS7EbOx2TnM7ivZci8YNW0UjaMAuPDZ+IiJOVEJrUlaRN8tHt7xC5JBYXq5SovLAbC1fth2DsDEzsJIRQ4Q53+1s4vucActn1avKPYPWGwyjT1cFc8nLq1M60b7AejNK6zPYcvmqPJ2Y9Cftj6/BKdBrKlNXI+/ZNrNxzrUmB0AYkQZg2xROn1q/HT92eROgg3ddhcfkcJ44ImT4O1vGRmBeVDG3of40l4bGoHDgVT/mKTcee0dgn3P4uEktiL6JKWYkLuxdi1X4Bxs6YCMM3F7n93bIcyp2nqs99h6iob5Bq4ou3qfQg1r6+D7nVKlSci8Frq76D+IkZGP8Al+252jdTFpfvctjWdKwaNQzzowF49qmeuBy9Ht9KnsDU0QZfU9MME3Z0Mj0X+YoFuLRvDebNX41DWuHwR8HvKK51gJubndqwkEoIFaWlrdwQtnNOaGX4PDyc6J71/XNRltDJtePIQ25FEms5iYVy8hj3Nv10mx0qjqdlDzuQSCghmw4ykjj407TIpTRWoaAJO4pIqV44IO9Csw/qVvVQDf200Jfkg9bRbw0PyJdGU4i86cISa+oxPoxGdJGSTCYmobgzBb9+hK5pnpY3XNxWHL+MHnYQkVBiQx1kEnLwn0aRS8eSQjGBdhS1XB5Ad47TAh8pWUk7Ur+FiWyHkq7Hh9NjbnISWMnIWioimUswLYi7ol1swI7fSlhFo11lTA4JicWONDBsEvW11i8SU16Pp/DH3EgusCKZtZREMhcKXhBHVzQd1FHOF7PJT2FFVrKOZCsXk9gpiObtzW2ysKeBZt/qwCVbXQ59MduPFFbsuh1tSS4Wk1PQPNqb27JnNeoFQvIus0lvip9ooa+cBq37rVGW0ugQkjuHaTeUtygxMoS8bIRMvzKSigQkcx1FK+KZXdXHOa6vvJVIkSFeZCMUkkTG9CKQkeuoFRSvsQuHXso/pfFSsWbRR6soCyl+9STqrRAz/Uipg42ErKw6kvfjb9C3eboRKYspftnD5CBiMth0IJnEgfynRdLSsQpSTNhBalGUtxJo1WhXkgnFJGFjcBwYRpP6WjcubrPYxyz1ebWPJUZSiJcNCVkcyZidBTJXGrUiXiOfaV1ZLp/aD2T2D9MTwV3YeJlPC6XkMnwpHSxsOLeGMrdMJi+5kPmyNfNpDwpZPpcesWnweS55uXSqPm7KN1rCKTOXr7LjCatGk6tMSGIJ05/jQAqb1JesW13cJifXF46QfnmfcerPRdLDaj8NT9PlCwanz2kXXMldX6AjjRdomtcYTIb48MfITS5gNrdm45GRS/ACitMmFQtjX9u3/cNPUHAXpjs2fqHUhYYvPUga9Rl8q4MZ/mRpDuWQ9caWMSQVD6J1jcHRFK2urHuMp7ARXUgqkzHbi6lz8Ot0RDshsFNM2d6M9k1tzzDpu5y2tSTf66nLXE0DJCLymndMt9DYGBx2ZJiei9Sm+IJm+ylYnpRRR1s2l4udKGjeXtKa4g4dX+BDUpZLO/ZbSAn5m2mU3JVe0Dsph64ZFs5JPDzmIFD/o6uB/3TqSy4hNasQSueeCPB1QuNaN1U58tLSkFetQHf/vuhqrdvfTlQVeUhJLYDY60H4mehUVZ6HtLQ8VCu6w79vV3BdXlWei5S036Fy8cMAT/VDeYz6EuSknkMROqOnX3c4Ng5OR3URstNyUOnUBw95KYy89V6PkpxUnCsCOvf0Q/dmHagqCpCVcQmlQif4+PdCJ5nugDmYlE2FioIsZFwqhdDJB/69OsGSrs1BWZaL9Mx8VEhd0MfPGw4WXV+Jstx0ZOZXQOrSB37eDnq/YbRLLw3U3MTFjAu4VmUFR+9+6O2iXvLVFBXK89KQllcNRXd/9DXqS9Uoyk5DTqUT+jzkBUUzA1vqY21CWYbc9EzkV0jh0scP3oaKNqkrS+Qr3vY4uoW7YG/O++h7IR3XpF7w7925hd/U3ryAlAu30bFHAHp3MvLl/hzycumUyzeaYq7Mpn1VHcbZSMuphFOfh+DVUqC7iDk+x019SQ5StUkFft0dm+nH3NgvxrbHuyHcZS9y3u+LC+nXIPXyR+/OrQcblz9ZnkNNyKq6ga2T/w1s/Qb/X6vPtjJUFchLSUWB2AsP+rWUicv2XO0NMeW73La1NK+pbnyKyb3+C9+DKXh7YKtRYKYdTc9Faj0UZGXgUqkQTj7+6GWYSJCbkobfVS7w6+/Z6ru07ZsTeHgs4y8tfHl4eP7+NBaRl7fjib/JjPR3lPn+QV8wXd7+xH1XhFSfXonQHT2xcctUdLuX9yL3JepHKO4gJWIMRh8ch8Qfl6F3q6u+72878vDcG4D/Hw1GKWtxZN6xAAAAAElFTkSuQmCC;" vertex="1" parent="1">
          <mxGeometry x="400" y="20" width="702" height="153" as="geometry" />
        </mxCell>
        <mxCell id="3cIEztt3R_hKzi4iVKEx-3" value="EMPLEADO" style="whiteSpace=wrap;html=1;align=center;" vertex="1" parent="1">
          <mxGeometry x="300" y="290" width="100" height="40" as="geometry" />
        </mxCell>
        <mxCell id="3cIEztt3R_hKzi4iVKEx-4" value="PLATO" style="whiteSpace=wrap;html=1;align=center;" vertex="1" parent="1">
          <mxGeometry x="770" y="270" width="100" height="40" as="geometry" />
        </mxCell>
        <mxCell id="3cIEztt3R_hKzi4iVKEx-5" value="MESA" style="whiteSpace=wrap;html=1;align=center;" vertex="1" parent="1">
          <mxGeometry x="300" y="690" width="100" height="40" as="geometry" />
        </mxCell>
        <mxCell id="3cIEztt3R_hKzi4iVKEx-6" value="ID_empleado" style="ellipse;whiteSpace=wrap;html=1;align=center;fontStyle=4;" vertex="1" parent="1">
          <mxGeometry x="160" y="295" width="90" height="30" as="geometry" />
        </mxCell>
        <mxCell id="3cIEztt3R_hKzi4iVKEx-7" value="Nombre" style="ellipse;whiteSpace=wrap;html=1;align=center;" vertex="1" parent="1">
          <mxGeometry x="180" y="240" width="90" height="30" as="geometry" />
        </mxCell>
        <mxCell id="3cIEztt3R_hKzi4iVKEx-8" value="Documento" style="ellipse;whiteSpace=wrap;html=1;align=center;" vertex="1" parent="1">
          <mxGeometry x="220" y="200" width="90" height="30" as="geometry" />
        </mxCell>
        <mxCell id="3cIEztt3R_hKzi4iVKEx-10" value="Direccion" style="ellipse;whiteSpace=wrap;html=1;align=center;" vertex="1" parent="1">
          <mxGeometry x="315" y="173" width="85" height="30" as="geometry" />
        </mxCell>
        <mxCell id="3cIEztt3R_hKzi4iVKEx-11" value="Telefono" style="ellipse;whiteSpace=wrap;html=1;align=center;" vertex="1" parent="1">
          <mxGeometry x="390" y="203" width="100" height="40" as="geometry" />
        </mxCell>
        <mxCell id="3cIEztt3R_hKzi4iVKEx-12" value="" style="endArrow=none;html=1;rounded=0;exitX=1;exitY=0.5;exitDx=0;exitDy=0;entryX=0;entryY=0.5;entryDx=0;entryDy=0;" edge="1" parent="1" source="3cIEztt3R_hKzi4iVKEx-6" target="3cIEztt3R_hKzi4iVKEx-3">
          <mxGeometry relative="1" as="geometry">
            <mxPoint x="520" y="180" as="sourcePoint" />
            <mxPoint x="680" y="180" as="targetPoint" />
          </mxGeometry>
        </mxCell>
        <mxCell id="3cIEztt3R_hKzi4iVKEx-13" value="" style="endArrow=none;html=1;rounded=0;exitX=1;exitY=0.5;exitDx=0;exitDy=0;entryX=0;entryY=0;entryDx=0;entryDy=0;" edge="1" parent="1" source="3cIEztt3R_hKzi4iVKEx-7" target="3cIEztt3R_hKzi4iVKEx-3">
          <mxGeometry relative="1" as="geometry">
            <mxPoint x="520" y="180" as="sourcePoint" />
            <mxPoint x="680" y="180" as="targetPoint" />
          </mxGeometry>
        </mxCell>
        <mxCell id="3cIEztt3R_hKzi4iVKEx-14" value="" style="endArrow=none;html=1;rounded=0;exitX=1;exitY=1;exitDx=0;exitDy=0;entryX=0.25;entryY=0;entryDx=0;entryDy=0;" edge="1" parent="1" source="3cIEztt3R_hKzi4iVKEx-8" target="3cIEztt3R_hKzi4iVKEx-3">
          <mxGeometry relative="1" as="geometry">
            <mxPoint x="520" y="180" as="sourcePoint" />
            <mxPoint x="680" y="180" as="targetPoint" />
          </mxGeometry>
        </mxCell>
        <mxCell id="3cIEztt3R_hKzi4iVKEx-15" value="" style="endArrow=none;html=1;rounded=0;exitX=0.5;exitY=1;exitDx=0;exitDy=0;entryX=0.5;entryY=0;entryDx=0;entryDy=0;" edge="1" parent="1" source="3cIEztt3R_hKzi4iVKEx-10" target="3cIEztt3R_hKzi4iVKEx-3">
          <mxGeometry relative="1" as="geometry">
            <mxPoint x="520" y="180" as="sourcePoint" />
            <mxPoint x="680" y="180" as="targetPoint" />
          </mxGeometry>
        </mxCell>
        <mxCell id="3cIEztt3R_hKzi4iVKEx-16" value="" style="endArrow=none;html=1;rounded=0;exitX=0.5;exitY=1;exitDx=0;exitDy=0;entryX=0.75;entryY=0;entryDx=0;entryDy=0;" edge="1" parent="1" source="3cIEztt3R_hKzi4iVKEx-11" target="3cIEztt3R_hKzi4iVKEx-3">
          <mxGeometry relative="1" as="geometry">
            <mxPoint x="520" y="180" as="sourcePoint" />
            <mxPoint x="680" y="180" as="targetPoint" />
          </mxGeometry>
        </mxCell>
        <mxCell id="3cIEztt3R_hKzi4iVKEx-17" value="Es un&amp;nbsp;" style="shape=rhombus;perimeter=rhombusPerimeter;whiteSpace=wrap;html=1;align=center;" vertex="1" parent="1">
          <mxGeometry x="290" y="370" width="120" height="60" as="geometry" />
        </mxCell>
        <mxCell id="3cIEztt3R_hKzi4iVKEx-18" value="Cocinero" style="whiteSpace=wrap;html=1;align=center;" vertex="1" parent="1">
          <mxGeometry x="120" y="490" width="100" height="40" as="geometry" />
        </mxCell>
        <mxCell id="3cIEztt3R_hKzi4iVKEx-20" value="Mozo" style="whiteSpace=wrap;html=1;align=center;" vertex="1" parent="1">
          <mxGeometry x="300" y="490" width="100" height="40" as="geometry" />
        </mxCell>
        <mxCell id="3cIEztt3R_hKzi4iVKEx-21" value="Empleado limpieza" style="whiteSpace=wrap;html=1;align=center;" vertex="1" parent="1">
          <mxGeometry x="460" y="490" width="100" height="40" as="geometry" />
        </mxCell>
        <mxCell id="3cIEztt3R_hKzi4iVKEx-25" value="Tipo" style="ellipse;whiteSpace=wrap;html=1;align=center;" vertex="1" parent="1">
          <mxGeometry x="460" y="565" width="100" height="40" as="geometry" />
        </mxCell>
        <mxCell id="3cIEztt3R_hKzi4iVKEx-30" value="" style="endArrow=none;html=1;rounded=0;entryX=0.5;entryY=1;entryDx=0;entryDy=0;exitX=0.5;exitY=0;exitDx=0;exitDy=0;" edge="1" parent="1" source="3cIEztt3R_hKzi4iVKEx-25" target="3cIEztt3R_hKzi4iVKEx-21">
          <mxGeometry relative="1" as="geometry">
            <mxPoint x="520" y="550" as="sourcePoint" />
            <mxPoint x="680" y="550" as="targetPoint" />
          </mxGeometry>
        </mxCell>
        <mxCell id="3cIEztt3R_hKzi4iVKEx-32" value="" style="endArrow=none;html=1;rounded=0;exitX=0.5;exitY=1;exitDx=0;exitDy=0;entryX=0.5;entryY=0;entryDx=0;entryDy=0;" edge="1" parent="1" source="3cIEztt3R_hKzi4iVKEx-20">
          <mxGeometry relative="1" as="geometry">
            <mxPoint x="520" y="550" as="sourcePoint" />
            <mxPoint x="350" y="570" as="targetPoint" />
          </mxGeometry>
        </mxCell>
        <mxCell id="3cIEztt3R_hKzi4iVKEx-34" value="" style="endArrow=none;html=1;rounded=0;exitX=0.5;exitY=1;exitDx=0;exitDy=0;entryX=0.5;entryY=0;entryDx=0;entryDy=0;" edge="1" parent="1" source="3cIEztt3R_hKzi4iVKEx-3" target="3cIEztt3R_hKzi4iVKEx-17">
          <mxGeometry relative="1" as="geometry">
            <mxPoint x="520" y="300" as="sourcePoint" />
            <mxPoint x="680" y="300" as="targetPoint" />
          </mxGeometry>
        </mxCell>
        <mxCell id="3cIEztt3R_hKzi4iVKEx-35" value="" style="endArrow=none;html=1;rounded=0;exitX=0;exitY=1;exitDx=0;exitDy=0;entryX=0.5;entryY=0;entryDx=0;entryDy=0;" edge="1" parent="1" source="3cIEztt3R_hKzi4iVKEx-17" target="3cIEztt3R_hKzi4iVKEx-18">
          <mxGeometry relative="1" as="geometry">
            <mxPoint x="520" y="300" as="sourcePoint" />
            <mxPoint x="680" y="300" as="targetPoint" />
          </mxGeometry>
        </mxCell>
        <mxCell id="3cIEztt3R_hKzi4iVKEx-36" value="" style="endArrow=none;html=1;rounded=0;exitX=0.5;exitY=1;exitDx=0;exitDy=0;entryX=0.5;entryY=0;entryDx=0;entryDy=0;" edge="1" parent="1" source="3cIEztt3R_hKzi4iVKEx-17" target="3cIEztt3R_hKzi4iVKEx-20">
          <mxGeometry relative="1" as="geometry">
            <mxPoint x="520" y="300" as="sourcePoint" />
            <mxPoint x="680" y="300" as="targetPoint" />
          </mxGeometry>
        </mxCell>
        <mxCell id="3cIEztt3R_hKzi4iVKEx-37" value="" style="endArrow=none;html=1;rounded=0;exitX=1;exitY=1;exitDx=0;exitDy=0;entryX=0.5;entryY=0;entryDx=0;entryDy=0;" edge="1" parent="1" source="3cIEztt3R_hKzi4iVKEx-17" target="3cIEztt3R_hKzi4iVKEx-21">
          <mxGeometry relative="1" as="geometry">
            <mxPoint x="520" y="300" as="sourcePoint" />
            <mxPoint x="680" y="300" as="targetPoint" />
          </mxGeometry>
        </mxCell>
        <mxCell id="3cIEztt3R_hKzi4iVKEx-38" value="Nombre" style="ellipse;whiteSpace=wrap;html=1;align=center;" vertex="1" parent="1">
          <mxGeometry x="880" y="220" width="100" height="40" as="geometry" />
        </mxCell>
        <mxCell id="3cIEztt3R_hKzi4iVKEx-39" value="Tipo" style="ellipse;whiteSpace=wrap;html=1;align=center;" vertex="1" parent="1">
          <mxGeometry x="910" y="290" width="100" height="40" as="geometry" />
        </mxCell>
        <mxCell id="3cIEztt3R_hKzi4iVKEx-40" value="" style="endArrow=none;html=1;rounded=0;exitX=1;exitY=0;exitDx=0;exitDy=0;entryX=0;entryY=1;entryDx=0;entryDy=0;" edge="1" parent="1" source="3cIEztt3R_hKzi4iVKEx-4" target="3cIEztt3R_hKzi4iVKEx-38">
          <mxGeometry relative="1" as="geometry">
            <mxPoint x="520" y="180" as="sourcePoint" />
            <mxPoint x="680" y="180" as="targetPoint" />
          </mxGeometry>
        </mxCell>
        <mxCell id="3cIEztt3R_hKzi4iVKEx-41" value="" style="endArrow=none;html=1;rounded=0;exitX=1;exitY=1;exitDx=0;exitDy=0;entryX=0;entryY=0.5;entryDx=0;entryDy=0;" edge="1" parent="1" source="3cIEztt3R_hKzi4iVKEx-4" target="3cIEztt3R_hKzi4iVKEx-39">
          <mxGeometry relative="1" as="geometry">
            <mxPoint x="520" y="180" as="sourcePoint" />
            <mxPoint x="680" y="180" as="targetPoint" />
          </mxGeometry>
        </mxCell>
        <mxCell id="3cIEztt3R_hKzi4iVKEx-42" value="Numero&amp;nbsp;" style="ellipse;whiteSpace=wrap;html=1;align=center;" vertex="1" parent="1">
          <mxGeometry x="240" y="780" width="100" height="40" as="geometry" />
        </mxCell>
        <mxCell id="3cIEztt3R_hKzi4iVKEx-43" value="Pedidos" style="ellipse;whiteSpace=wrap;html=1;align=center;" vertex="1" parent="1">
          <mxGeometry x="360" y="780" width="100" height="40" as="geometry" />
        </mxCell>
        <mxCell id="3cIEztt3R_hKzi4iVKEx-44" value="" style="endArrow=none;html=1;rounded=0;exitX=0.25;exitY=1;exitDx=0;exitDy=0;entryX=0.5;entryY=0;entryDx=0;entryDy=0;" edge="1" parent="1" source="3cIEztt3R_hKzi4iVKEx-5" target="3cIEztt3R_hKzi4iVKEx-42">
          <mxGeometry relative="1" as="geometry">
            <mxPoint x="520" y="430" as="sourcePoint" />
            <mxPoint x="680" y="430" as="targetPoint" />
          </mxGeometry>
        </mxCell>
        <mxCell id="3cIEztt3R_hKzi4iVKEx-45" value="" style="endArrow=none;html=1;rounded=0;exitX=0.75;exitY=1;exitDx=0;exitDy=0;entryX=0.5;entryY=0;entryDx=0;entryDy=0;" edge="1" parent="1" source="3cIEztt3R_hKzi4iVKEx-5" target="3cIEztt3R_hKzi4iVKEx-43">
          <mxGeometry relative="1" as="geometry">
            <mxPoint x="520" y="430" as="sourcePoint" />
            <mxPoint x="680" y="430" as="targetPoint" />
          </mxGeometry>
        </mxCell>
        <mxCell id="3cIEztt3R_hKzi4iVKEx-46" value="ESPECIALIZACION" style="whiteSpace=wrap;html=1;align=center;" vertex="1" parent="1">
          <mxGeometry x="110" y="605" width="120" height="45" as="geometry" />
        </mxCell>
        <mxCell id="3cIEztt3R_hKzi4iVKEx-47" value="" style="endArrow=none;html=1;rounded=0;exitX=0.5;exitY=1;exitDx=0;exitDy=0;" edge="1" parent="1" source="3cIEztt3R_hKzi4iVKEx-18" target="3cIEztt3R_hKzi4iVKEx-46">
          <mxGeometry relative="1" as="geometry">
            <mxPoint x="490" y="320" as="sourcePoint" />
            <mxPoint x="650" y="320" as="targetPoint" />
          </mxGeometry>
        </mxCell>
        <mxCell id="3cIEztt3R_hKzi4iVKEx-48" value="M" style="resizable=0;html=1;whiteSpace=wrap;align=left;verticalAlign=bottom;" connectable="0" vertex="1" parent="3cIEztt3R_hKzi4iVKEx-47">
          <mxGeometry x="-1" relative="1" as="geometry">
            <mxPoint y="20" as="offset" />
          </mxGeometry>
        </mxCell>
        <mxCell id="3cIEztt3R_hKzi4iVKEx-49" value="N" style="resizable=0;html=1;whiteSpace=wrap;align=right;verticalAlign=bottom;" connectable="0" vertex="1" parent="3cIEztt3R_hKzi4iVKEx-47">
          <mxGeometry x="1" relative="1" as="geometry" />
        </mxCell>
        <mxCell id="3cIEztt3R_hKzi4iVKEx-50" value="Asigna" style="shape=rhombus;perimeter=rhombusPerimeter;whiteSpace=wrap;html=1;align=center;" vertex="1" parent="1">
          <mxGeometry x="290" y="570" width="120" height="60" as="geometry" />
        </mxCell>
        <mxCell id="3cIEztt3R_hKzi4iVKEx-51" value="" style="endArrow=none;html=1;rounded=0;exitX=0.5;exitY=1;exitDx=0;exitDy=0;entryX=0.5;entryY=0;entryDx=0;entryDy=0;" edge="1" parent="1" source="3cIEztt3R_hKzi4iVKEx-50" target="3cIEztt3R_hKzi4iVKEx-5">
          <mxGeometry relative="1" as="geometry">
            <mxPoint x="520" y="630" as="sourcePoint" />
            <mxPoint x="680" y="630" as="targetPoint" />
          </mxGeometry>
        </mxCell>
      </root>
    </mxGraphModel>
  </diagram>
</mxfile>
